G04 #@! TF.GenerationSoftware,KiCad,Pcbnew,5.1.6*
G04 #@! TF.CreationDate,2020-07-27T17:19:51+02:00*
G04 #@! TF.ProjectId,motor-board,6d6f746f-722d-4626-9f61-72642e6b6963,1*
G04 #@! TF.SameCoordinates,Original*
G04 #@! TF.FileFunction,Legend,Bot*
G04 #@! TF.FilePolarity,Positive*
%FSLAX46Y46*%
G04 Gerber Fmt 4.6, Leading zero omitted, Abs format (unit mm)*
G04 Created by KiCad (PCBNEW 5.1.6) date 2020-07-27 17:19:51*
%MOMM*%
%LPD*%
G01*
G04 APERTURE LIST*
%ADD10C,0.120000*%
%ADD11C,0.200000*%
%ADD12C,0.100000*%
%ADD13C,0.150000*%
%ADD14R,2.000000X4.000000*%
%ADD15O,2.000000X3.300000*%
%ADD16O,3.500000X2.000000*%
%ADD17C,1.600000*%
%ADD18R,1.700000X1.700000*%
%ADD19O,1.700000X1.700000*%
%ADD20C,1.200000*%
%ADD21C,2.700000*%
G04 APERTURE END LIST*
D10*
X163500000Y-116000000D02*
X163750000Y-116250000D01*
X163500000Y-116000000D02*
X163250000Y-116250000D01*
X162500000Y-116000000D02*
X162250000Y-116250000D01*
X162500000Y-116000000D02*
X162750000Y-116250000D01*
X162500000Y-117500000D02*
X162500000Y-116000000D01*
X163500000Y-117500000D02*
X163500000Y-116000000D01*
D11*
X164000000Y-115500000D02*
X162000000Y-115500000D01*
D10*
X164250000Y-114750000D02*
X163750000Y-114750000D01*
X164250000Y-115250000D02*
X164250000Y-114750000D01*
X161500000Y-114500000D02*
X160500000Y-114500000D01*
X162500000Y-115500000D02*
X161500000Y-114500000D01*
X164500000Y-114500000D02*
X165500000Y-114500000D01*
X163500000Y-115500000D02*
X164500000Y-114500000D01*
X164000000Y-119000000D02*
X165000000Y-119000000D01*
X162000000Y-119000000D02*
X161000000Y-119000000D01*
X162000000Y-120000000D02*
X162000000Y-118000000D01*
D12*
G36*
X162000000Y-119000000D02*
G01*
X164000000Y-120000000D01*
X164000000Y-118000000D01*
X162000000Y-119000000D01*
G37*
X162000000Y-119000000D02*
X164000000Y-120000000D01*
X164000000Y-118000000D01*
X162000000Y-119000000D01*
D10*
X159850000Y-111050000D02*
X159850000Y-122950000D01*
X166150000Y-111050000D02*
X159850000Y-111050000D01*
X166150000Y-122950000D02*
X166150000Y-111050000D01*
X159850000Y-122950000D02*
X166150000Y-122950000D01*
D13*
X161161904Y-109152380D02*
X161161904Y-109961904D01*
X161114285Y-110057142D01*
X161066666Y-110104761D01*
X160971428Y-110152380D01*
X160780952Y-110152380D01*
X160685714Y-110104761D01*
X160638095Y-110057142D01*
X160590476Y-109961904D01*
X160590476Y-109152380D01*
X159638095Y-109152380D02*
X160114285Y-109152380D01*
X160161904Y-109628571D01*
X160114285Y-109580952D01*
X160019047Y-109533333D01*
X159780952Y-109533333D01*
X159685714Y-109580952D01*
X159638095Y-109628571D01*
X159590476Y-109723809D01*
X159590476Y-109961904D01*
X159638095Y-110057142D01*
X159685714Y-110104761D01*
X159780952Y-110152380D01*
X160019047Y-110152380D01*
X160114285Y-110104761D01*
X160161904Y-110057142D01*
%LPC*%
D14*
X187000000Y-106000000D03*
D15*
X193000000Y-106000000D03*
D16*
X194000000Y-110500000D03*
X194000000Y-101500000D03*
D17*
X196000000Y-106000000D03*
D18*
X198000000Y-83000000D03*
D19*
X198000000Y-85540000D03*
D18*
X161000000Y-73000000D03*
D19*
X163540000Y-73000000D03*
X166080000Y-73000000D03*
X168620000Y-73000000D03*
X171160000Y-73000000D03*
X173700000Y-73000000D03*
D20*
X164270000Y-120800000D03*
X161730000Y-120800000D03*
X161730000Y-113200000D03*
X164270000Y-113200000D03*
D21*
X175800000Y-93400000D03*
X162800000Y-106300000D03*
X187900000Y-93400000D03*
X180800000Y-73500000D03*
M02*
