M48
; DRILL file {KiCad 5.1.6} date Mon Jul 27 17:19:59 2020
; FORMAT={2:4/ absolute / inch / suppress trailing zeros}
; #@! TF.CreationDate,2020-07-27T17:19:59+02:00
; #@! TF.GenerationSoftware,Kicad,Pcbnew,5.1.6
FMAT,2
INCH,LZ
T1C0.0157
T2C0.0236
T3C0.0394
T4C0.0630
T5C0.1063
%
G90
G05
T1
X062559Y-033169
X063031Y-033169
X063274Y-036761
X065Y-037913
X066102Y-03437
X066102Y-035315
X066142Y-039154
X066142Y-039567
X066142Y-039961
X069248Y-033358
X069524Y-033087
X069524Y-033634
X069795Y-033354
X070571Y-03124
X071703Y-042982
X072795Y-034724
X072795Y-035118
X072854Y-029567
X073307Y-029567
X075866Y-031378
X077441Y-030433
T2
X062205Y-046575
X066535Y-042362
X067965Y-03261
X068661Y-031614
X070709Y-043228
X070709Y-04376
X07252Y-040217
X07252Y-04063
X063673Y-044567
X063673Y-047559
X064673Y-044567
X064673Y-047559
T3
X063386Y-02874
X064386Y-02874
X065386Y-02874
X066386Y-02874
X067386Y-02874
X068386Y-02874
X077953Y-032677
X077953Y-033677
T4
X077165Y-041732
T5
X069213Y-036772
X073976Y-036772
X071181Y-028937
X064094Y-04185
T3
G00X073622Y-042126
M15
G01X073622Y-041339
M16
G05
G00X075984Y-041988
M15
G01X075984Y-041476
M16
G05
G00X076083Y-039961
M15
G01X076673Y-039961
M16
G05
G00X076083Y-043504
M15
G01X076673Y-043504
M16
G05
T0
M30
