G04 #@! TF.GenerationSoftware,KiCad,Pcbnew,5.1.6*
G04 #@! TF.CreationDate,2020-07-27T17:19:51+02:00*
G04 #@! TF.ProjectId,motor-board,6d6f746f-722d-4626-9f61-72642e6b6963,1*
G04 #@! TF.SameCoordinates,Original*
G04 #@! TF.FileFunction,Legend,Top*
G04 #@! TF.FilePolarity,Positive*
%FSLAX46Y46*%
G04 Gerber Fmt 4.6, Leading zero omitted, Abs format (unit mm)*
G04 Created by KiCad (PCBNEW 5.1.6) date 2020-07-27 17:19:51*
%MOMM*%
%LPD*%
G01*
G04 APERTURE LIST*
%ADD10C,0.150000*%
%ADD11C,0.100000*%
%ADD12C,0.200000*%
%ADD13C,0.120000*%
%ADD14R,2.000000X4.000000*%
%ADD15O,2.000000X3.300000*%
%ADD16O,3.500000X2.000000*%
%ADD17C,1.600000*%
%ADD18R,1.700000X1.700000*%
%ADD19O,1.700000X1.700000*%
%ADD20R,2.000000X2.000000*%
%ADD21R,0.650000X1.560000*%
%ADD22R,1.525000X0.650000*%
%ADD23R,2.390000X2.390000*%
%ADD24R,1.560000X0.650000*%
%ADD25C,1.200000*%
%ADD26C,2.700000*%
G04 APERTURE END LIST*
D10*
X161523809Y-116152380D02*
X161523809Y-115152380D01*
X161761904Y-115152380D01*
X161904761Y-115200000D01*
X162000000Y-115295238D01*
X162047619Y-115390476D01*
X162095238Y-115580952D01*
X162095238Y-115723809D01*
X162047619Y-115914285D01*
X162000000Y-116009523D01*
X161904761Y-116104761D01*
X161761904Y-116152380D01*
X161523809Y-116152380D01*
X162523809Y-116152380D02*
X162523809Y-115152380D01*
X162952380Y-116104761D02*
X163095238Y-116152380D01*
X163333333Y-116152380D01*
X163428571Y-116104761D01*
X163476190Y-116057142D01*
X163523809Y-115961904D01*
X163523809Y-115866666D01*
X163476190Y-115771428D01*
X163428571Y-115723809D01*
X163333333Y-115676190D01*
X163142857Y-115628571D01*
X163047619Y-115580952D01*
X163000000Y-115533333D01*
X162952380Y-115438095D01*
X162952380Y-115342857D01*
X163000000Y-115247619D01*
X163047619Y-115200000D01*
X163142857Y-115152380D01*
X163380952Y-115152380D01*
X163523809Y-115200000D01*
X163952380Y-116152380D02*
X163952380Y-115152380D01*
X164523809Y-116152380D02*
X164095238Y-115580952D01*
X164523809Y-115152380D02*
X163952380Y-115723809D01*
D11*
G36*
X169400000Y-117500000D02*
G01*
X156600000Y-117500000D01*
X156600000Y-116500000D01*
X169400000Y-116500000D01*
X169400000Y-117500000D01*
G37*
X169400000Y-117500000D02*
X156600000Y-117500000D01*
X156600000Y-116500000D01*
X169400000Y-116500000D01*
X169400000Y-117500000D01*
X191626398Y-96938095D02*
X191669255Y-96900000D01*
X191750208Y-96861904D01*
X191940684Y-96861904D01*
X192012113Y-96900000D01*
X192045446Y-96938095D01*
X192074017Y-97014285D01*
X192064494Y-97090476D01*
X192012113Y-97204761D01*
X191497827Y-97661904D01*
X191993065Y-97661904D01*
X192588303Y-96861904D02*
X192664494Y-96861904D01*
X192735922Y-96900000D01*
X192769255Y-96938095D01*
X192797827Y-97014285D01*
X192816875Y-97166666D01*
X192793065Y-97357142D01*
X192735922Y-97509523D01*
X192688303Y-97585714D01*
X192645446Y-97623809D01*
X192564494Y-97661904D01*
X192488303Y-97661904D01*
X192416875Y-97623809D01*
X192383541Y-97585714D01*
X192354970Y-97509523D01*
X192335922Y-97357142D01*
X192359732Y-97166666D01*
X192416875Y-97014285D01*
X192464494Y-96938095D01*
X192507351Y-96900000D01*
X192588303Y-96861904D01*
X193150208Y-96938095D02*
X193193065Y-96900000D01*
X193274017Y-96861904D01*
X193464494Y-96861904D01*
X193535922Y-96900000D01*
X193569255Y-96938095D01*
X193597827Y-97014285D01*
X193588303Y-97090476D01*
X193535922Y-97204761D01*
X193021636Y-97661904D01*
X193516875Y-97661904D01*
X194112113Y-96861904D02*
X194188303Y-96861904D01*
X194259732Y-96900000D01*
X194293065Y-96938095D01*
X194321636Y-97014285D01*
X194340684Y-97166666D01*
X194316875Y-97357142D01*
X194259732Y-97509523D01*
X194212113Y-97585714D01*
X194169255Y-97623809D01*
X194088303Y-97661904D01*
X194012113Y-97661904D01*
X193940684Y-97623809D01*
X193907351Y-97585714D01*
X193878779Y-97509523D01*
X193859732Y-97357142D01*
X193883541Y-97166666D01*
X193940684Y-97014285D01*
X193988303Y-96938095D01*
X194031160Y-96900000D01*
X194112113Y-96861904D01*
X194659732Y-97357142D02*
X195269255Y-97357142D01*
X195864494Y-96861904D02*
X195940684Y-96861904D01*
X196012113Y-96900000D01*
X196045446Y-96938095D01*
X196074017Y-97014285D01*
X196093065Y-97166666D01*
X196069255Y-97357142D01*
X196012113Y-97509523D01*
X195964494Y-97585714D01*
X195921636Y-97623809D01*
X195840684Y-97661904D01*
X195764494Y-97661904D01*
X195693065Y-97623809D01*
X195659732Y-97585714D01*
X195631160Y-97509523D01*
X195612113Y-97357142D01*
X195635922Y-97166666D01*
X195693065Y-97014285D01*
X195740684Y-96938095D01*
X195783541Y-96900000D01*
X195864494Y-96861904D01*
X196397827Y-96861904D02*
X196931160Y-96861904D01*
X196488303Y-97661904D01*
X197174017Y-97357142D02*
X197783541Y-97357142D01*
X198178779Y-96938095D02*
X198221636Y-96900000D01*
X198302589Y-96861904D01*
X198493065Y-96861904D01*
X198564494Y-96900000D01*
X198597827Y-96938095D01*
X198626398Y-97014285D01*
X198616875Y-97090476D01*
X198564494Y-97204761D01*
X198050208Y-97661904D01*
X198545446Y-97661904D01*
X198912113Y-96861904D02*
X199445446Y-96861904D01*
X199002589Y-97661904D01*
D10*
X192380491Y-92302380D02*
X192505491Y-91302380D01*
X192886443Y-91302380D01*
X192975729Y-91350000D01*
X193017395Y-91397619D01*
X193053110Y-91492857D01*
X193035252Y-91635714D01*
X192975729Y-91730952D01*
X192922157Y-91778571D01*
X192820967Y-91826190D01*
X192440014Y-91826190D01*
X193380491Y-92302380D02*
X193463824Y-91635714D01*
X193440014Y-91826190D02*
X193499538Y-91730952D01*
X193553110Y-91683333D01*
X193654300Y-91635714D01*
X193749538Y-91635714D01*
X194142395Y-92302380D02*
X194053110Y-92254761D01*
X194011443Y-92207142D01*
X193975729Y-92111904D01*
X194011443Y-91826190D01*
X194070967Y-91730952D01*
X194124538Y-91683333D01*
X194225729Y-91635714D01*
X194368586Y-91635714D01*
X194457872Y-91683333D01*
X194499538Y-91730952D01*
X194535252Y-91826190D01*
X194499538Y-92111904D01*
X194440014Y-92207142D01*
X194386443Y-92254761D01*
X194285252Y-92302380D01*
X194142395Y-92302380D01*
X194844776Y-91635714D02*
X195225729Y-91635714D01*
X195029300Y-91302380D02*
X194922157Y-92159523D01*
X194957872Y-92254761D01*
X195047157Y-92302380D01*
X195142395Y-92302380D01*
X195618586Y-92302380D02*
X195529300Y-92254761D01*
X195487633Y-92207142D01*
X195451919Y-92111904D01*
X195487633Y-91826190D01*
X195547157Y-91730952D01*
X195600729Y-91683333D01*
X195701919Y-91635714D01*
X195844776Y-91635714D01*
X195934062Y-91683333D01*
X195975729Y-91730952D01*
X196011443Y-91826190D01*
X195975729Y-92111904D01*
X195916205Y-92207142D01*
X195862633Y-92254761D01*
X195761443Y-92302380D01*
X195618586Y-92302380D01*
X196320967Y-91635714D02*
X196701919Y-91635714D01*
X196505491Y-91302380D02*
X196398348Y-92159523D01*
X196434062Y-92254761D01*
X196523348Y-92302380D01*
X196618586Y-92302380D01*
X196940014Y-91635714D02*
X197094776Y-92302380D01*
X197416205Y-91635714D02*
X197094776Y-92302380D01*
X196969776Y-92540476D01*
X196916205Y-92588095D01*
X196815014Y-92635714D01*
X197797157Y-91635714D02*
X197672157Y-92635714D01*
X197791205Y-91683333D02*
X197892395Y-91635714D01*
X198082872Y-91635714D01*
X198172157Y-91683333D01*
X198213824Y-91730952D01*
X198249538Y-91826190D01*
X198213824Y-92111904D01*
X198154300Y-92207142D01*
X198100729Y-92254761D01*
X197999538Y-92302380D01*
X197809062Y-92302380D01*
X197719776Y-92254761D01*
X199005491Y-92254761D02*
X198904300Y-92302380D01*
X198713824Y-92302380D01*
X198624538Y-92254761D01*
X198588824Y-92159523D01*
X198636443Y-91778571D01*
X198695967Y-91683333D01*
X198797157Y-91635714D01*
X198987633Y-91635714D01*
X199076919Y-91683333D01*
X199112633Y-91778571D01*
X199100729Y-91873809D01*
X198612633Y-91969047D01*
X191261443Y-93952380D02*
X191344776Y-93285714D01*
X191332872Y-93380952D02*
X191386443Y-93333333D01*
X191487633Y-93285714D01*
X191630491Y-93285714D01*
X191719776Y-93333333D01*
X191755491Y-93428571D01*
X191690014Y-93952380D01*
X191755491Y-93428571D02*
X191815014Y-93333333D01*
X191916205Y-93285714D01*
X192059062Y-93285714D01*
X192148348Y-93333333D01*
X192184062Y-93428571D01*
X192118586Y-93952380D01*
X192737633Y-93952380D02*
X192648348Y-93904761D01*
X192606681Y-93857142D01*
X192570967Y-93761904D01*
X192606681Y-93476190D01*
X192666205Y-93380952D01*
X192719776Y-93333333D01*
X192820967Y-93285714D01*
X192963824Y-93285714D01*
X193053110Y-93333333D01*
X193094776Y-93380952D01*
X193130491Y-93476190D01*
X193094776Y-93761904D01*
X193035252Y-93857142D01*
X192981681Y-93904761D01*
X192880491Y-93952380D01*
X192737633Y-93952380D01*
X193440014Y-93285714D02*
X193820967Y-93285714D01*
X193624538Y-92952380D02*
X193517395Y-93809523D01*
X193553110Y-93904761D01*
X193642395Y-93952380D01*
X193737633Y-93952380D01*
X194213824Y-93952380D02*
X194124538Y-93904761D01*
X194082872Y-93857142D01*
X194047157Y-93761904D01*
X194082872Y-93476190D01*
X194142395Y-93380952D01*
X194195967Y-93333333D01*
X194297157Y-93285714D01*
X194440014Y-93285714D01*
X194529300Y-93333333D01*
X194570967Y-93380952D01*
X194606681Y-93476190D01*
X194570967Y-93761904D01*
X194511443Y-93857142D01*
X194457872Y-93904761D01*
X194356681Y-93952380D01*
X194213824Y-93952380D01*
X194975729Y-93952380D02*
X195059062Y-93285714D01*
X195035252Y-93476190D02*
X195094776Y-93380952D01*
X195148348Y-93333333D01*
X195249538Y-93285714D01*
X195344776Y-93285714D01*
X196356681Y-93952380D02*
X196481681Y-92952380D01*
X196434062Y-93333333D02*
X196535252Y-93285714D01*
X196725729Y-93285714D01*
X196815014Y-93333333D01*
X196856681Y-93380952D01*
X196892395Y-93476190D01*
X196856681Y-93761904D01*
X196797157Y-93857142D01*
X196743586Y-93904761D01*
X196642395Y-93952380D01*
X196451919Y-93952380D01*
X196362633Y-93904761D01*
X197404300Y-93952380D02*
X197315014Y-93904761D01*
X197273348Y-93857142D01*
X197237633Y-93761904D01*
X197273348Y-93476190D01*
X197332872Y-93380952D01*
X197386443Y-93333333D01*
X197487633Y-93285714D01*
X197630491Y-93285714D01*
X197719776Y-93333333D01*
X197761443Y-93380952D01*
X197797157Y-93476190D01*
X197761443Y-93761904D01*
X197701919Y-93857142D01*
X197648348Y-93904761D01*
X197547157Y-93952380D01*
X197404300Y-93952380D01*
X198594776Y-93952380D02*
X198660252Y-93428571D01*
X198624538Y-93333333D01*
X198535252Y-93285714D01*
X198344776Y-93285714D01*
X198243586Y-93333333D01*
X198600729Y-93904761D02*
X198499538Y-93952380D01*
X198261443Y-93952380D01*
X198172157Y-93904761D01*
X198136443Y-93809523D01*
X198148348Y-93714285D01*
X198207872Y-93619047D01*
X198309062Y-93571428D01*
X198547157Y-93571428D01*
X198648348Y-93523809D01*
X199070967Y-93952380D02*
X199154300Y-93285714D01*
X199130491Y-93476190D02*
X199190014Y-93380952D01*
X199243586Y-93333333D01*
X199344776Y-93285714D01*
X199440014Y-93285714D01*
X200118586Y-93952380D02*
X200243586Y-92952380D01*
X200124538Y-93904761D02*
X200023348Y-93952380D01*
X199832872Y-93952380D01*
X199743586Y-93904761D01*
X199701919Y-93857142D01*
X199666205Y-93761904D01*
X199701919Y-93476190D01*
X199761443Y-93380952D01*
X199815014Y-93333333D01*
X199916205Y-93285714D01*
X200106681Y-93285714D01*
X200195967Y-93333333D01*
X193713824Y-95602380D02*
X193797157Y-94935714D01*
X193773348Y-95126190D02*
X193832872Y-95030952D01*
X193886443Y-94983333D01*
X193987633Y-94935714D01*
X194082872Y-94935714D01*
X194719776Y-95554761D02*
X194618586Y-95602380D01*
X194428110Y-95602380D01*
X194338824Y-95554761D01*
X194303110Y-95459523D01*
X194350729Y-95078571D01*
X194410252Y-94983333D01*
X194511443Y-94935714D01*
X194701919Y-94935714D01*
X194791205Y-94983333D01*
X194826919Y-95078571D01*
X194815014Y-95173809D01*
X194326919Y-95269047D01*
X195178110Y-94935714D02*
X195332872Y-95602380D01*
X195654300Y-94935714D01*
X195963824Y-95507142D02*
X196005491Y-95554761D01*
X195951919Y-95602380D01*
X195910252Y-95554761D01*
X195963824Y-95507142D01*
X195951919Y-95602380D01*
X197713824Y-95602380D02*
X197142395Y-95602380D01*
X197428110Y-95602380D02*
X197553110Y-94602380D01*
X197440014Y-94745238D01*
X197332872Y-94840476D01*
X197231681Y-94888095D01*
D12*
X188421250Y-89742857D02*
X188571250Y-88542857D01*
X188864107Y-89400000D01*
X189371250Y-88542857D01*
X189221250Y-89742857D01*
X189792678Y-89742857D02*
X189892678Y-88942857D01*
X189942678Y-88542857D02*
X189878392Y-88600000D01*
X189928392Y-88657142D01*
X189992678Y-88600000D01*
X189942678Y-88542857D01*
X189928392Y-88657142D01*
X190464107Y-88942857D02*
X190364107Y-89742857D01*
X190449821Y-89057142D02*
X190514107Y-89000000D01*
X190635535Y-88942857D01*
X190806964Y-88942857D01*
X190914107Y-89000000D01*
X190956964Y-89114285D01*
X190878392Y-89742857D01*
X191449821Y-89742857D02*
X191549821Y-88942857D01*
X191599821Y-88542857D02*
X191535535Y-88600000D01*
X191585535Y-88657142D01*
X191649821Y-88600000D01*
X191599821Y-88542857D01*
X191585535Y-88657142D01*
X192078392Y-89285714D02*
X192992678Y-89285714D01*
X193506964Y-89742857D02*
X193656964Y-88542857D01*
X193949821Y-89400000D01*
X194456964Y-88542857D01*
X194306964Y-89742857D01*
X195392678Y-89742857D02*
X195471250Y-89114285D01*
X195428392Y-89000000D01*
X195321250Y-88942857D01*
X195092678Y-88942857D01*
X194971250Y-89000000D01*
X195399821Y-89685714D02*
X195278392Y-89742857D01*
X194992678Y-89742857D01*
X194885535Y-89685714D01*
X194842678Y-89571428D01*
X194856964Y-89457142D01*
X194928392Y-89342857D01*
X195049821Y-89285714D01*
X195335535Y-89285714D01*
X195456964Y-89228571D01*
X196064107Y-88942857D02*
X195914107Y-90142857D01*
X196056964Y-89000000D02*
X196178392Y-88942857D01*
X196406964Y-88942857D01*
X196514107Y-89000000D01*
X196564107Y-89057142D01*
X196606964Y-89171428D01*
X196564107Y-89514285D01*
X196492678Y-89628571D01*
X196428392Y-89685714D01*
X196306964Y-89742857D01*
X196078392Y-89742857D01*
X195971250Y-89685714D01*
X197149821Y-88942857D02*
X196999821Y-90142857D01*
X197142678Y-89000000D02*
X197264107Y-88942857D01*
X197492678Y-88942857D01*
X197599821Y-89000000D01*
X197649821Y-89057142D01*
X197692678Y-89171428D01*
X197649821Y-89514285D01*
X197578392Y-89628571D01*
X197514107Y-89685714D01*
X197392678Y-89742857D01*
X197164107Y-89742857D01*
X197056964Y-89685714D01*
X198599821Y-89685714D02*
X198478392Y-89742857D01*
X198249821Y-89742857D01*
X198142678Y-89685714D01*
X198099821Y-89571428D01*
X198156964Y-89114285D01*
X198228392Y-89000000D01*
X198349821Y-88942857D01*
X198578392Y-88942857D01*
X198685535Y-89000000D01*
X198728392Y-89114285D01*
X198714107Y-89228571D01*
X198128392Y-89342857D01*
X199164107Y-89742857D02*
X199264107Y-88942857D01*
X199235535Y-89171428D02*
X199306964Y-89057142D01*
X199371250Y-89000000D01*
X199492678Y-88942857D01*
X199606964Y-88942857D01*
D10*
X174200000Y-75859404D02*
X174247619Y-75764166D01*
X174247619Y-75621309D01*
X174200000Y-75478452D01*
X174104761Y-75383214D01*
X174009523Y-75335595D01*
X173819047Y-75287976D01*
X173676190Y-75287976D01*
X173485714Y-75335595D01*
X173390476Y-75383214D01*
X173295238Y-75478452D01*
X173247619Y-75621309D01*
X173247619Y-75716547D01*
X173295238Y-75859404D01*
X173342857Y-75907023D01*
X173676190Y-75907023D01*
X173676190Y-75716547D01*
X173247619Y-76335595D02*
X174247619Y-76335595D01*
X173247619Y-76907023D01*
X174247619Y-76907023D01*
X173247619Y-77383214D02*
X174247619Y-77383214D01*
X174247619Y-77621309D01*
X174200000Y-77764166D01*
X174104761Y-77859404D01*
X174009523Y-77907023D01*
X173819047Y-77954642D01*
X173676190Y-77954642D01*
X173485714Y-77907023D01*
X173390476Y-77859404D01*
X173295238Y-77764166D01*
X173247619Y-77621309D01*
X173247619Y-77383214D01*
X170747619Y-75335595D02*
X171747619Y-75335595D01*
X171033333Y-75668928D01*
X171747619Y-76002261D01*
X170747619Y-76002261D01*
X171747619Y-76668928D02*
X171747619Y-76859404D01*
X171700000Y-76954642D01*
X171604761Y-77049880D01*
X171414285Y-77097500D01*
X171080952Y-77097500D01*
X170890476Y-77049880D01*
X170795238Y-76954642D01*
X170747619Y-76859404D01*
X170747619Y-76668928D01*
X170795238Y-76573690D01*
X170890476Y-76478452D01*
X171080952Y-76430833D01*
X171414285Y-76430833D01*
X171604761Y-76478452D01*
X171700000Y-76573690D01*
X171747619Y-76668928D01*
X171747619Y-77383214D02*
X171747619Y-77954642D01*
X170747619Y-77668928D02*
X171747619Y-77668928D01*
X171747619Y-78478452D02*
X171747619Y-78668928D01*
X171700000Y-78764166D01*
X171604761Y-78859404D01*
X171414285Y-78907023D01*
X171080952Y-78907023D01*
X170890476Y-78859404D01*
X170795238Y-78764166D01*
X170747619Y-78668928D01*
X170747619Y-78478452D01*
X170795238Y-78383214D01*
X170890476Y-78287976D01*
X171080952Y-78240357D01*
X171414285Y-78240357D01*
X171604761Y-78287976D01*
X171700000Y-78383214D01*
X171747619Y-78478452D01*
X170747619Y-79907023D02*
X171223809Y-79573690D01*
X170747619Y-79335595D02*
X171747619Y-79335595D01*
X171747619Y-79716547D01*
X171700000Y-79811785D01*
X171652380Y-79859404D01*
X171557142Y-79907023D01*
X171414285Y-79907023D01*
X171319047Y-79859404D01*
X171271428Y-79811785D01*
X171223809Y-79716547D01*
X171223809Y-79335595D01*
X170652380Y-80097500D02*
X170652380Y-80859404D01*
X170795238Y-81049880D02*
X170747619Y-81192738D01*
X170747619Y-81430833D01*
X170795238Y-81526071D01*
X170842857Y-81573690D01*
X170938095Y-81621309D01*
X171033333Y-81621309D01*
X171128571Y-81573690D01*
X171176190Y-81526071D01*
X171223809Y-81430833D01*
X171271428Y-81240357D01*
X171319047Y-81145119D01*
X171366666Y-81097500D01*
X171461904Y-81049880D01*
X171557142Y-81049880D01*
X171652380Y-81097500D01*
X171700000Y-81145119D01*
X171747619Y-81240357D01*
X171747619Y-81478452D01*
X171700000Y-81621309D01*
X171271428Y-82049880D02*
X171271428Y-82383214D01*
X170747619Y-82526071D02*
X170747619Y-82049880D01*
X171747619Y-82049880D01*
X171747619Y-82526071D01*
X170747619Y-82954642D02*
X171747619Y-82954642D01*
X170747619Y-83526071D01*
X171747619Y-83526071D01*
X170795238Y-83954642D02*
X170747619Y-84097500D01*
X170747619Y-84335595D01*
X170795238Y-84430833D01*
X170842857Y-84478452D01*
X170938095Y-84526071D01*
X171033333Y-84526071D01*
X171128571Y-84478452D01*
X171176190Y-84430833D01*
X171223809Y-84335595D01*
X171271428Y-84145119D01*
X171319047Y-84049880D01*
X171366666Y-84002261D01*
X171461904Y-83954642D01*
X171557142Y-83954642D01*
X171652380Y-84002261D01*
X171700000Y-84049880D01*
X171747619Y-84145119D01*
X171747619Y-84383214D01*
X171700000Y-84526071D01*
X171271428Y-84954642D02*
X171271428Y-85287976D01*
X170747619Y-85430833D02*
X170747619Y-84954642D01*
X171747619Y-84954642D01*
X171747619Y-85430833D01*
X168147619Y-75335595D02*
X169147619Y-75335595D01*
X168433333Y-75668928D01*
X169147619Y-76002261D01*
X168147619Y-76002261D01*
X169147619Y-76668928D02*
X169147619Y-76859404D01*
X169100000Y-76954642D01*
X169004761Y-77049880D01*
X168814285Y-77097500D01*
X168480952Y-77097500D01*
X168290476Y-77049880D01*
X168195238Y-76954642D01*
X168147619Y-76859404D01*
X168147619Y-76668928D01*
X168195238Y-76573690D01*
X168290476Y-76478452D01*
X168480952Y-76430833D01*
X168814285Y-76430833D01*
X169004761Y-76478452D01*
X169100000Y-76573690D01*
X169147619Y-76668928D01*
X169147619Y-77383214D02*
X169147619Y-77954642D01*
X168147619Y-77668928D02*
X169147619Y-77668928D01*
X169147619Y-78478452D02*
X169147619Y-78668928D01*
X169100000Y-78764166D01*
X169004761Y-78859404D01*
X168814285Y-78907023D01*
X168480952Y-78907023D01*
X168290476Y-78859404D01*
X168195238Y-78764166D01*
X168147619Y-78668928D01*
X168147619Y-78478452D01*
X168195238Y-78383214D01*
X168290476Y-78287976D01*
X168480952Y-78240357D01*
X168814285Y-78240357D01*
X169004761Y-78287976D01*
X169100000Y-78383214D01*
X169147619Y-78478452D01*
X168147619Y-79907023D02*
X168623809Y-79573690D01*
X168147619Y-79335595D02*
X169147619Y-79335595D01*
X169147619Y-79716547D01*
X169100000Y-79811785D01*
X169052380Y-79859404D01*
X168957142Y-79907023D01*
X168814285Y-79907023D01*
X168719047Y-79859404D01*
X168671428Y-79811785D01*
X168623809Y-79716547D01*
X168623809Y-79335595D01*
X168052380Y-80097500D02*
X168052380Y-80859404D01*
X168147619Y-81097500D02*
X169147619Y-81097500D01*
X168147619Y-81573690D02*
X169147619Y-81573690D01*
X168147619Y-82145119D01*
X169147619Y-82145119D01*
X169052380Y-82573690D02*
X169100000Y-82621309D01*
X169147619Y-82716547D01*
X169147619Y-82954642D01*
X169100000Y-83049880D01*
X169052380Y-83097500D01*
X168957142Y-83145119D01*
X168861904Y-83145119D01*
X168719047Y-83097500D01*
X168147619Y-82526071D01*
X168147619Y-83145119D01*
X165647619Y-75335595D02*
X166647619Y-75335595D01*
X165933333Y-75668928D01*
X166647619Y-76002261D01*
X165647619Y-76002261D01*
X166647619Y-76668928D02*
X166647619Y-76859404D01*
X166600000Y-76954642D01*
X166504761Y-77049880D01*
X166314285Y-77097500D01*
X165980952Y-77097500D01*
X165790476Y-77049880D01*
X165695238Y-76954642D01*
X165647619Y-76859404D01*
X165647619Y-76668928D01*
X165695238Y-76573690D01*
X165790476Y-76478452D01*
X165980952Y-76430833D01*
X166314285Y-76430833D01*
X166504761Y-76478452D01*
X166600000Y-76573690D01*
X166647619Y-76668928D01*
X166647619Y-77383214D02*
X166647619Y-77954642D01*
X165647619Y-77668928D02*
X166647619Y-77668928D01*
X166647619Y-78478452D02*
X166647619Y-78668928D01*
X166600000Y-78764166D01*
X166504761Y-78859404D01*
X166314285Y-78907023D01*
X165980952Y-78907023D01*
X165790476Y-78859404D01*
X165695238Y-78764166D01*
X165647619Y-78668928D01*
X165647619Y-78478452D01*
X165695238Y-78383214D01*
X165790476Y-78287976D01*
X165980952Y-78240357D01*
X166314285Y-78240357D01*
X166504761Y-78287976D01*
X166600000Y-78383214D01*
X166647619Y-78478452D01*
X165647619Y-79907023D02*
X166123809Y-79573690D01*
X165647619Y-79335595D02*
X166647619Y-79335595D01*
X166647619Y-79716547D01*
X166600000Y-79811785D01*
X166552380Y-79859404D01*
X166457142Y-79907023D01*
X166314285Y-79907023D01*
X166219047Y-79859404D01*
X166171428Y-79811785D01*
X166123809Y-79716547D01*
X166123809Y-79335595D01*
X165552380Y-80097500D02*
X165552380Y-80859404D01*
X165647619Y-81097500D02*
X166647619Y-81097500D01*
X165647619Y-81573690D02*
X166647619Y-81573690D01*
X165647619Y-82145119D01*
X166647619Y-82145119D01*
X165647619Y-83145119D02*
X165647619Y-82573690D01*
X165647619Y-82859404D02*
X166647619Y-82859404D01*
X166504761Y-82764166D01*
X166409523Y-82668928D01*
X166361904Y-82573690D01*
X163571428Y-75335595D02*
X163571428Y-75668928D01*
X163047619Y-75811785D02*
X163047619Y-75335595D01*
X164047619Y-75335595D01*
X164047619Y-75811785D01*
X163047619Y-76240357D02*
X164047619Y-76240357D01*
X163047619Y-76811785D01*
X164047619Y-76811785D01*
X163142857Y-77859404D02*
X163095238Y-77811785D01*
X163047619Y-77668928D01*
X163047619Y-77573690D01*
X163095238Y-77430833D01*
X163190476Y-77335595D01*
X163285714Y-77287976D01*
X163476190Y-77240357D01*
X163619047Y-77240357D01*
X163809523Y-77287976D01*
X163904761Y-77335595D01*
X164000000Y-77430833D01*
X164047619Y-77573690D01*
X164047619Y-77668928D01*
X164000000Y-77811785D01*
X163952380Y-77859404D01*
X164047619Y-78478452D02*
X164047619Y-78668928D01*
X164000000Y-78764166D01*
X163904761Y-78859404D01*
X163714285Y-78907023D01*
X163380952Y-78907023D01*
X163190476Y-78859404D01*
X163095238Y-78764166D01*
X163047619Y-78668928D01*
X163047619Y-78478452D01*
X163095238Y-78383214D01*
X163190476Y-78287976D01*
X163380952Y-78240357D01*
X163714285Y-78240357D01*
X163904761Y-78287976D01*
X164000000Y-78383214D01*
X164047619Y-78478452D01*
X163047619Y-79335595D02*
X164047619Y-79335595D01*
X164047619Y-79573690D01*
X164000000Y-79716547D01*
X163904761Y-79811785D01*
X163809523Y-79859404D01*
X163619047Y-79907023D01*
X163476190Y-79907023D01*
X163285714Y-79859404D01*
X163190476Y-79811785D01*
X163095238Y-79716547D01*
X163047619Y-79573690D01*
X163047619Y-79335595D01*
X163571428Y-80335595D02*
X163571428Y-80668928D01*
X163047619Y-80811785D02*
X163047619Y-80335595D01*
X164047619Y-80335595D01*
X164047619Y-80811785D01*
X163047619Y-81811785D02*
X163523809Y-81478452D01*
X163047619Y-81240357D02*
X164047619Y-81240357D01*
X164047619Y-81621309D01*
X164000000Y-81716547D01*
X163952380Y-81764166D01*
X163857142Y-81811785D01*
X163714285Y-81811785D01*
X163619047Y-81764166D01*
X163571428Y-81716547D01*
X163523809Y-81621309D01*
X163523809Y-81240357D01*
X162952380Y-82002261D02*
X162952380Y-82764166D01*
X163047619Y-83002261D02*
X164047619Y-83002261D01*
X164047619Y-83383214D01*
X164000000Y-83478452D01*
X163952380Y-83526071D01*
X163857142Y-83573690D01*
X163714285Y-83573690D01*
X163619047Y-83526071D01*
X163571428Y-83478452D01*
X163523809Y-83383214D01*
X163523809Y-83002261D01*
X164047619Y-84002261D02*
X163238095Y-84002261D01*
X163142857Y-84049880D01*
X163095238Y-84097500D01*
X163047619Y-84192738D01*
X163047619Y-84383214D01*
X163095238Y-84478452D01*
X163142857Y-84526071D01*
X163238095Y-84573690D01*
X164047619Y-84573690D01*
X163047619Y-85526071D02*
X163047619Y-85049880D01*
X164047619Y-85049880D01*
X163095238Y-85811785D02*
X163047619Y-85954642D01*
X163047619Y-86192738D01*
X163095238Y-86287976D01*
X163142857Y-86335595D01*
X163238095Y-86383214D01*
X163333333Y-86383214D01*
X163428571Y-86335595D01*
X163476190Y-86287976D01*
X163523809Y-86192738D01*
X163571428Y-86002261D01*
X163619047Y-85907023D01*
X163666666Y-85859404D01*
X163761904Y-85811785D01*
X163857142Y-85811785D01*
X163952380Y-85859404D01*
X164000000Y-85907023D01*
X164047619Y-86002261D01*
X164047619Y-86240357D01*
X164000000Y-86383214D01*
X163571428Y-86811785D02*
X163571428Y-87145119D01*
X163047619Y-87287976D02*
X163047619Y-86811785D01*
X164047619Y-86811785D01*
X164047619Y-87287976D01*
X160928571Y-75335595D02*
X160928571Y-76097500D01*
X160547619Y-75716547D02*
X161309523Y-75716547D01*
X161547619Y-76478452D02*
X161547619Y-77097500D01*
X161166666Y-76764166D01*
X161166666Y-76907023D01*
X161119047Y-77002261D01*
X161071428Y-77049880D01*
X160976190Y-77097500D01*
X160738095Y-77097500D01*
X160642857Y-77049880D01*
X160595238Y-77002261D01*
X160547619Y-76907023D01*
X160547619Y-76621309D01*
X160595238Y-76526071D01*
X160642857Y-76478452D01*
X161547619Y-77383214D02*
X160547619Y-77716547D01*
X161547619Y-78049880D01*
X161547619Y-78287976D02*
X161547619Y-78907023D01*
X161166666Y-78573690D01*
X161166666Y-78716547D01*
X161119047Y-78811785D01*
X161071428Y-78859404D01*
X160976190Y-78907023D01*
X160738095Y-78907023D01*
X160642857Y-78859404D01*
X160595238Y-78811785D01*
X160547619Y-78716547D01*
X160547619Y-78430833D01*
X160595238Y-78335595D01*
X160642857Y-78287976D01*
X189902500Y-85952380D02*
X189902500Y-84952380D01*
X190235833Y-85666666D01*
X190569166Y-84952380D01*
X190569166Y-85952380D01*
X191235833Y-84952380D02*
X191426309Y-84952380D01*
X191521547Y-85000000D01*
X191616785Y-85095238D01*
X191664404Y-85285714D01*
X191664404Y-85619047D01*
X191616785Y-85809523D01*
X191521547Y-85904761D01*
X191426309Y-85952380D01*
X191235833Y-85952380D01*
X191140595Y-85904761D01*
X191045357Y-85809523D01*
X190997738Y-85619047D01*
X190997738Y-85285714D01*
X191045357Y-85095238D01*
X191140595Y-85000000D01*
X191235833Y-84952380D01*
X191950119Y-84952380D02*
X192521547Y-84952380D01*
X192235833Y-85952380D02*
X192235833Y-84952380D01*
X193045357Y-84952380D02*
X193235833Y-84952380D01*
X193331071Y-85000000D01*
X193426309Y-85095238D01*
X193473928Y-85285714D01*
X193473928Y-85619047D01*
X193426309Y-85809523D01*
X193331071Y-85904761D01*
X193235833Y-85952380D01*
X193045357Y-85952380D01*
X192950119Y-85904761D01*
X192854880Y-85809523D01*
X192807261Y-85619047D01*
X192807261Y-85285714D01*
X192854880Y-85095238D01*
X192950119Y-85000000D01*
X193045357Y-84952380D01*
X194473928Y-85952380D02*
X194140595Y-85476190D01*
X193902500Y-85952380D02*
X193902500Y-84952380D01*
X194283452Y-84952380D01*
X194378690Y-85000000D01*
X194426309Y-85047619D01*
X194473928Y-85142857D01*
X194473928Y-85285714D01*
X194426309Y-85380952D01*
X194378690Y-85428571D01*
X194283452Y-85476190D01*
X193902500Y-85476190D01*
X194902500Y-85571428D02*
X195664404Y-85571428D01*
X189902500Y-83452380D02*
X189902500Y-82452380D01*
X190235833Y-83166666D01*
X190569166Y-82452380D01*
X190569166Y-83452380D01*
X191235833Y-82452380D02*
X191426309Y-82452380D01*
X191521547Y-82500000D01*
X191616785Y-82595238D01*
X191664404Y-82785714D01*
X191664404Y-83119047D01*
X191616785Y-83309523D01*
X191521547Y-83404761D01*
X191426309Y-83452380D01*
X191235833Y-83452380D01*
X191140595Y-83404761D01*
X191045357Y-83309523D01*
X190997738Y-83119047D01*
X190997738Y-82785714D01*
X191045357Y-82595238D01*
X191140595Y-82500000D01*
X191235833Y-82452380D01*
X191950119Y-82452380D02*
X192521547Y-82452380D01*
X192235833Y-83452380D02*
X192235833Y-82452380D01*
X193045357Y-82452380D02*
X193235833Y-82452380D01*
X193331071Y-82500000D01*
X193426309Y-82595238D01*
X193473928Y-82785714D01*
X193473928Y-83119047D01*
X193426309Y-83309523D01*
X193331071Y-83404761D01*
X193235833Y-83452380D01*
X193045357Y-83452380D01*
X192950119Y-83404761D01*
X192854880Y-83309523D01*
X192807261Y-83119047D01*
X192807261Y-82785714D01*
X192854880Y-82595238D01*
X192950119Y-82500000D01*
X193045357Y-82452380D01*
X194473928Y-83452380D02*
X194140595Y-82976190D01*
X193902500Y-83452380D02*
X193902500Y-82452380D01*
X194283452Y-82452380D01*
X194378690Y-82500000D01*
X194426309Y-82547619D01*
X194473928Y-82642857D01*
X194473928Y-82785714D01*
X194426309Y-82880952D01*
X194378690Y-82928571D01*
X194283452Y-82976190D01*
X193902500Y-82976190D01*
X194902500Y-83071428D02*
X195664404Y-83071428D01*
X195283452Y-83452380D02*
X195283452Y-82690476D01*
D13*
X157290000Y-120636252D02*
X157290000Y-120113748D01*
X158710000Y-120636252D02*
X158710000Y-120113748D01*
X177143750Y-102741250D02*
X177143750Y-101953750D01*
X177537500Y-102347500D02*
X176750000Y-102347500D01*
X176510000Y-98154437D02*
X175445563Y-97090000D01*
X176510000Y-102845563D02*
X175445563Y-103910000D01*
X176510000Y-102845563D02*
X176510000Y-101560000D01*
X176510000Y-98154437D02*
X176510000Y-99440000D01*
X175445563Y-97090000D02*
X169690000Y-97090000D01*
X175445563Y-103910000D02*
X169690000Y-103910000D01*
X169690000Y-103910000D02*
X169690000Y-101560000D01*
X169690000Y-97090000D02*
X169690000Y-99440000D01*
X182538748Y-89410000D02*
X183061252Y-89410000D01*
X182538748Y-87990000D02*
X183061252Y-87990000D01*
X182286252Y-111210000D02*
X181763748Y-111210000D01*
X182286252Y-109790000D02*
X181763748Y-109790000D01*
X181763748Y-103460000D02*
X182286252Y-103460000D01*
X181763748Y-102040000D02*
X182286252Y-102040000D01*
X170586252Y-88010000D02*
X170063748Y-88010000D01*
X170586252Y-86590000D02*
X170063748Y-86590000D01*
X184890000Y-77636252D02*
X184890000Y-77113748D01*
X186310000Y-77636252D02*
X186310000Y-77113748D01*
X160210000Y-86736252D02*
X160210000Y-86213748D01*
X158790000Y-86736252D02*
X158790000Y-86213748D01*
X185700000Y-107000000D02*
X185700000Y-105000000D01*
X199110000Y-111110000D02*
X196050000Y-111110000D01*
X199110000Y-100890000D02*
X199110000Y-111110000D01*
X196050000Y-100890000D02*
X199110000Y-100890000D01*
X185890000Y-100890000D02*
X191950000Y-100890000D01*
X185890000Y-103700000D02*
X185890000Y-100890000D01*
X185890000Y-111110000D02*
X185890000Y-108300000D01*
X191950000Y-111110000D02*
X185890000Y-111110000D01*
X198000000Y-81670000D02*
X199330000Y-81670000D01*
X199330000Y-81670000D02*
X199330000Y-83000000D01*
X199330000Y-84270000D02*
X199330000Y-86870000D01*
X196670000Y-86870000D02*
X199330000Y-86870000D01*
X196670000Y-84270000D02*
X196670000Y-86870000D01*
X196670000Y-84270000D02*
X199330000Y-84270000D01*
X159670000Y-74330000D02*
X159670000Y-73000000D01*
X161000000Y-74330000D02*
X159670000Y-74330000D01*
X162270000Y-74330000D02*
X162270000Y-71670000D01*
X162270000Y-71670000D02*
X175030000Y-71670000D01*
X162270000Y-74330000D02*
X175030000Y-74330000D01*
X175030000Y-74330000D02*
X175030000Y-71670000D01*
X176261252Y-89710000D02*
X175738748Y-89710000D01*
X176261252Y-88290000D02*
X175738748Y-88290000D01*
X176886252Y-79590000D02*
X176363748Y-79590000D01*
X176886252Y-81010000D02*
X176363748Y-81010000D01*
X194586252Y-76590000D02*
X194063748Y-76590000D01*
X194586252Y-78010000D02*
X194063748Y-78010000D01*
X170586252Y-90410000D02*
X170063748Y-90410000D01*
X170586252Y-88990000D02*
X170063748Y-88990000D01*
X190586252Y-78010000D02*
X190063748Y-78010000D01*
X190586252Y-76590000D02*
X190063748Y-76590000D01*
X190586252Y-78990000D02*
X190063748Y-78990000D01*
X190586252Y-80410000D02*
X190063748Y-80410000D01*
X163290000Y-90713748D02*
X163290000Y-91236252D01*
X164710000Y-90713748D02*
X164710000Y-91236252D01*
X163210000Y-98586252D02*
X163210000Y-98063748D01*
X161790000Y-98586252D02*
X161790000Y-98063748D01*
X160210000Y-95263748D02*
X160210000Y-95786252D01*
X158790000Y-95263748D02*
X158790000Y-95786252D01*
X169710000Y-110236252D02*
X169710000Y-109713748D01*
X168290000Y-110236252D02*
X168290000Y-109713748D01*
X164390000Y-98586252D02*
X164390000Y-98063748D01*
X165810000Y-98586252D02*
X165810000Y-98063748D01*
X171800000Y-108800000D02*
X174200000Y-108800000D01*
X174200000Y-108800000D02*
X174200000Y-111200000D01*
X174200000Y-111200000D02*
X171800000Y-111200000D01*
X171800000Y-111200000D02*
X171800000Y-108800000D01*
X183735000Y-107525000D02*
X183735000Y-105725000D01*
X180515000Y-105725000D02*
X180515000Y-108175000D01*
D12*
X173113000Y-82155000D02*
X174638000Y-82155000D01*
D13*
X181150000Y-80960000D02*
X182950000Y-80960000D01*
X182950000Y-77740000D02*
X180500000Y-77740000D01*
X159015000Y-89975000D02*
X159015000Y-92425000D01*
X162235000Y-91775000D02*
X162235000Y-89975000D01*
D10*
X159757142Y-119452380D02*
X159423809Y-118976190D01*
X159185714Y-119452380D02*
X159185714Y-118452380D01*
X159566666Y-118452380D01*
X159661904Y-118500000D01*
X159709523Y-118547619D01*
X159757142Y-118642857D01*
X159757142Y-118785714D01*
X159709523Y-118880952D01*
X159661904Y-118928571D01*
X159566666Y-118976190D01*
X159185714Y-118976190D01*
X160709523Y-119452380D02*
X160138095Y-119452380D01*
X160423809Y-119452380D02*
X160423809Y-118452380D01*
X160328571Y-118595238D01*
X160233333Y-118690476D01*
X160138095Y-118738095D01*
X161328571Y-118452380D02*
X161423809Y-118452380D01*
X161519047Y-118500000D01*
X161566666Y-118547619D01*
X161614285Y-118642857D01*
X161661904Y-118833333D01*
X161661904Y-119071428D01*
X161614285Y-119261904D01*
X161566666Y-119357142D01*
X161519047Y-119404761D01*
X161423809Y-119452380D01*
X161328571Y-119452380D01*
X161233333Y-119404761D01*
X161185714Y-119357142D01*
X161138095Y-119261904D01*
X161090476Y-119071428D01*
X161090476Y-118833333D01*
X161138095Y-118642857D01*
X161185714Y-118547619D01*
X161233333Y-118500000D01*
X161328571Y-118452380D01*
X172833333Y-105357142D02*
X172785714Y-105404761D01*
X172642857Y-105452380D01*
X172547619Y-105452380D01*
X172404761Y-105404761D01*
X172309523Y-105309523D01*
X172261904Y-105214285D01*
X172214285Y-105023809D01*
X172214285Y-104880952D01*
X172261904Y-104690476D01*
X172309523Y-104595238D01*
X172404761Y-104500000D01*
X172547619Y-104452380D01*
X172642857Y-104452380D01*
X172785714Y-104500000D01*
X172833333Y-104547619D01*
X173785714Y-105452380D02*
X173214285Y-105452380D01*
X173500000Y-105452380D02*
X173500000Y-104452380D01*
X173404761Y-104595238D01*
X173309523Y-104690476D01*
X173214285Y-104738095D01*
X182633333Y-87407142D02*
X182585714Y-87454761D01*
X182442857Y-87502380D01*
X182347619Y-87502380D01*
X182204761Y-87454761D01*
X182109523Y-87359523D01*
X182061904Y-87264285D01*
X182014285Y-87073809D01*
X182014285Y-86930952D01*
X182061904Y-86740476D01*
X182109523Y-86645238D01*
X182204761Y-86550000D01*
X182347619Y-86502380D01*
X182442857Y-86502380D01*
X182585714Y-86550000D01*
X182633333Y-86597619D01*
X183014285Y-86597619D02*
X183061904Y-86550000D01*
X183157142Y-86502380D01*
X183395238Y-86502380D01*
X183490476Y-86550000D01*
X183538095Y-86597619D01*
X183585714Y-86692857D01*
X183585714Y-86788095D01*
X183538095Y-86930952D01*
X182966666Y-87502380D01*
X183585714Y-87502380D01*
X181833333Y-112657142D02*
X181785714Y-112704761D01*
X181642857Y-112752380D01*
X181547619Y-112752380D01*
X181404761Y-112704761D01*
X181309523Y-112609523D01*
X181261904Y-112514285D01*
X181214285Y-112323809D01*
X181214285Y-112180952D01*
X181261904Y-111990476D01*
X181309523Y-111895238D01*
X181404761Y-111800000D01*
X181547619Y-111752380D01*
X181642857Y-111752380D01*
X181785714Y-111800000D01*
X181833333Y-111847619D01*
X182166666Y-111752380D02*
X182785714Y-111752380D01*
X182452380Y-112133333D01*
X182595238Y-112133333D01*
X182690476Y-112180952D01*
X182738095Y-112228571D01*
X182785714Y-112323809D01*
X182785714Y-112561904D01*
X182738095Y-112657142D01*
X182690476Y-112704761D01*
X182595238Y-112752380D01*
X182309523Y-112752380D01*
X182214285Y-112704761D01*
X182166666Y-112657142D01*
X181858333Y-101357142D02*
X181810714Y-101404761D01*
X181667857Y-101452380D01*
X181572619Y-101452380D01*
X181429761Y-101404761D01*
X181334523Y-101309523D01*
X181286904Y-101214285D01*
X181239285Y-101023809D01*
X181239285Y-100880952D01*
X181286904Y-100690476D01*
X181334523Y-100595238D01*
X181429761Y-100500000D01*
X181572619Y-100452380D01*
X181667857Y-100452380D01*
X181810714Y-100500000D01*
X181858333Y-100547619D01*
X182715476Y-100785714D02*
X182715476Y-101452380D01*
X182477380Y-100404761D02*
X182239285Y-101119047D01*
X182858333Y-101119047D01*
X167033333Y-86257142D02*
X166985714Y-86304761D01*
X166842857Y-86352380D01*
X166747619Y-86352380D01*
X166604761Y-86304761D01*
X166509523Y-86209523D01*
X166461904Y-86114285D01*
X166414285Y-85923809D01*
X166414285Y-85780952D01*
X166461904Y-85590476D01*
X166509523Y-85495238D01*
X166604761Y-85400000D01*
X166747619Y-85352380D01*
X166842857Y-85352380D01*
X166985714Y-85400000D01*
X167033333Y-85447619D01*
X167938095Y-85352380D02*
X167461904Y-85352380D01*
X167414285Y-85828571D01*
X167461904Y-85780952D01*
X167557142Y-85733333D01*
X167795238Y-85733333D01*
X167890476Y-85780952D01*
X167938095Y-85828571D01*
X167985714Y-85923809D01*
X167985714Y-86161904D01*
X167938095Y-86257142D01*
X167890476Y-86304761D01*
X167795238Y-86352380D01*
X167557142Y-86352380D01*
X167461904Y-86304761D01*
X167414285Y-86257142D01*
X187333333Y-74857142D02*
X187285714Y-74904761D01*
X187142857Y-74952380D01*
X187047619Y-74952380D01*
X186904761Y-74904761D01*
X186809523Y-74809523D01*
X186761904Y-74714285D01*
X186714285Y-74523809D01*
X186714285Y-74380952D01*
X186761904Y-74190476D01*
X186809523Y-74095238D01*
X186904761Y-74000000D01*
X187047619Y-73952380D01*
X187142857Y-73952380D01*
X187285714Y-74000000D01*
X187333333Y-74047619D01*
X188190476Y-73952380D02*
X188000000Y-73952380D01*
X187904761Y-74000000D01*
X187857142Y-74047619D01*
X187761904Y-74190476D01*
X187714285Y-74380952D01*
X187714285Y-74761904D01*
X187761904Y-74857142D01*
X187809523Y-74904761D01*
X187904761Y-74952380D01*
X188095238Y-74952380D01*
X188190476Y-74904761D01*
X188238095Y-74857142D01*
X188285714Y-74761904D01*
X188285714Y-74523809D01*
X188238095Y-74428571D01*
X188190476Y-74380952D01*
X188095238Y-74333333D01*
X187904761Y-74333333D01*
X187809523Y-74380952D01*
X187761904Y-74428571D01*
X187714285Y-74523809D01*
X157133333Y-85757142D02*
X157085714Y-85804761D01*
X156942857Y-85852380D01*
X156847619Y-85852380D01*
X156704761Y-85804761D01*
X156609523Y-85709523D01*
X156561904Y-85614285D01*
X156514285Y-85423809D01*
X156514285Y-85280952D01*
X156561904Y-85090476D01*
X156609523Y-84995238D01*
X156704761Y-84900000D01*
X156847619Y-84852380D01*
X156942857Y-84852380D01*
X157085714Y-84900000D01*
X157133333Y-84947619D01*
X157466666Y-84852380D02*
X158133333Y-84852380D01*
X157704761Y-85852380D01*
X185866666Y-98552380D02*
X185866666Y-99266666D01*
X185819047Y-99409523D01*
X185723809Y-99504761D01*
X185580952Y-99552380D01*
X185485714Y-99552380D01*
X186866666Y-99552380D02*
X186295238Y-99552380D01*
X186580952Y-99552380D02*
X186580952Y-98552380D01*
X186485714Y-98695238D01*
X186390476Y-98790476D01*
X186295238Y-98838095D01*
X197566666Y-79852380D02*
X197566666Y-80566666D01*
X197519047Y-80709523D01*
X197423809Y-80804761D01*
X197280952Y-80852380D01*
X197185714Y-80852380D01*
X197995238Y-79947619D02*
X198042857Y-79900000D01*
X198138095Y-79852380D01*
X198376190Y-79852380D01*
X198471428Y-79900000D01*
X198519047Y-79947619D01*
X198566666Y-80042857D01*
X198566666Y-80138095D01*
X198519047Y-80280952D01*
X197947619Y-80852380D01*
X198566666Y-80852380D01*
X157766666Y-72452380D02*
X157766666Y-73166666D01*
X157719047Y-73309523D01*
X157623809Y-73404761D01*
X157480952Y-73452380D01*
X157385714Y-73452380D01*
X158147619Y-72452380D02*
X158766666Y-72452380D01*
X158433333Y-72833333D01*
X158576190Y-72833333D01*
X158671428Y-72880952D01*
X158719047Y-72928571D01*
X158766666Y-73023809D01*
X158766666Y-73261904D01*
X158719047Y-73357142D01*
X158671428Y-73404761D01*
X158576190Y-73452380D01*
X158290476Y-73452380D01*
X158195238Y-73404761D01*
X158147619Y-73357142D01*
X178833333Y-89452380D02*
X178500000Y-88976190D01*
X178261904Y-89452380D02*
X178261904Y-88452380D01*
X178642857Y-88452380D01*
X178738095Y-88500000D01*
X178785714Y-88547619D01*
X178833333Y-88642857D01*
X178833333Y-88785714D01*
X178785714Y-88880952D01*
X178738095Y-88928571D01*
X178642857Y-88976190D01*
X178261904Y-88976190D01*
X179785714Y-89452380D02*
X179214285Y-89452380D01*
X179500000Y-89452380D02*
X179500000Y-88452380D01*
X179404761Y-88595238D01*
X179309523Y-88690476D01*
X179214285Y-88738095D01*
X176433333Y-78952380D02*
X176100000Y-78476190D01*
X175861904Y-78952380D02*
X175861904Y-77952380D01*
X176242857Y-77952380D01*
X176338095Y-78000000D01*
X176385714Y-78047619D01*
X176433333Y-78142857D01*
X176433333Y-78285714D01*
X176385714Y-78380952D01*
X176338095Y-78428571D01*
X176242857Y-78476190D01*
X175861904Y-78476190D01*
X176814285Y-78047619D02*
X176861904Y-78000000D01*
X176957142Y-77952380D01*
X177195238Y-77952380D01*
X177290476Y-78000000D01*
X177338095Y-78047619D01*
X177385714Y-78142857D01*
X177385714Y-78238095D01*
X177338095Y-78380952D01*
X176766666Y-78952380D01*
X177385714Y-78952380D01*
X194133333Y-75952380D02*
X193800000Y-75476190D01*
X193561904Y-75952380D02*
X193561904Y-74952380D01*
X193942857Y-74952380D01*
X194038095Y-75000000D01*
X194085714Y-75047619D01*
X194133333Y-75142857D01*
X194133333Y-75285714D01*
X194085714Y-75380952D01*
X194038095Y-75428571D01*
X193942857Y-75476190D01*
X193561904Y-75476190D01*
X194466666Y-74952380D02*
X195085714Y-74952380D01*
X194752380Y-75333333D01*
X194895238Y-75333333D01*
X194990476Y-75380952D01*
X195038095Y-75428571D01*
X195085714Y-75523809D01*
X195085714Y-75761904D01*
X195038095Y-75857142D01*
X194990476Y-75904761D01*
X194895238Y-75952380D01*
X194609523Y-75952380D01*
X194514285Y-75904761D01*
X194466666Y-75857142D01*
X170133333Y-91952380D02*
X169800000Y-91476190D01*
X169561904Y-91952380D02*
X169561904Y-90952380D01*
X169942857Y-90952380D01*
X170038095Y-91000000D01*
X170085714Y-91047619D01*
X170133333Y-91142857D01*
X170133333Y-91285714D01*
X170085714Y-91380952D01*
X170038095Y-91428571D01*
X169942857Y-91476190D01*
X169561904Y-91476190D01*
X170990476Y-91285714D02*
X170990476Y-91952380D01*
X170752380Y-90904761D02*
X170514285Y-91619047D01*
X171133333Y-91619047D01*
X190133333Y-75952380D02*
X189800000Y-75476190D01*
X189561904Y-75952380D02*
X189561904Y-74952380D01*
X189942857Y-74952380D01*
X190038095Y-75000000D01*
X190085714Y-75047619D01*
X190133333Y-75142857D01*
X190133333Y-75285714D01*
X190085714Y-75380952D01*
X190038095Y-75428571D01*
X189942857Y-75476190D01*
X189561904Y-75476190D01*
X191038095Y-74952380D02*
X190561904Y-74952380D01*
X190514285Y-75428571D01*
X190561904Y-75380952D01*
X190657142Y-75333333D01*
X190895238Y-75333333D01*
X190990476Y-75380952D01*
X191038095Y-75428571D01*
X191085714Y-75523809D01*
X191085714Y-75761904D01*
X191038095Y-75857142D01*
X190990476Y-75904761D01*
X190895238Y-75952380D01*
X190657142Y-75952380D01*
X190561904Y-75904761D01*
X190514285Y-75857142D01*
X187333333Y-80252380D02*
X187000000Y-79776190D01*
X186761904Y-80252380D02*
X186761904Y-79252380D01*
X187142857Y-79252380D01*
X187238095Y-79300000D01*
X187285714Y-79347619D01*
X187333333Y-79442857D01*
X187333333Y-79585714D01*
X187285714Y-79680952D01*
X187238095Y-79728571D01*
X187142857Y-79776190D01*
X186761904Y-79776190D01*
X188190476Y-79252380D02*
X188000000Y-79252380D01*
X187904761Y-79300000D01*
X187857142Y-79347619D01*
X187761904Y-79490476D01*
X187714285Y-79680952D01*
X187714285Y-80061904D01*
X187761904Y-80157142D01*
X187809523Y-80204761D01*
X187904761Y-80252380D01*
X188095238Y-80252380D01*
X188190476Y-80204761D01*
X188238095Y-80157142D01*
X188285714Y-80061904D01*
X188285714Y-79823809D01*
X188238095Y-79728571D01*
X188190476Y-79680952D01*
X188095238Y-79633333D01*
X187904761Y-79633333D01*
X187809523Y-79680952D01*
X187761904Y-79728571D01*
X187714285Y-79823809D01*
X163733333Y-94252380D02*
X163400000Y-93776190D01*
X163161904Y-94252380D02*
X163161904Y-93252380D01*
X163542857Y-93252380D01*
X163638095Y-93300000D01*
X163685714Y-93347619D01*
X163733333Y-93442857D01*
X163733333Y-93585714D01*
X163685714Y-93680952D01*
X163638095Y-93728571D01*
X163542857Y-93776190D01*
X163161904Y-93776190D01*
X164066666Y-93252380D02*
X164733333Y-93252380D01*
X164304761Y-94252380D01*
X162333333Y-101652380D02*
X162000000Y-101176190D01*
X161761904Y-101652380D02*
X161761904Y-100652380D01*
X162142857Y-100652380D01*
X162238095Y-100700000D01*
X162285714Y-100747619D01*
X162333333Y-100842857D01*
X162333333Y-100985714D01*
X162285714Y-101080952D01*
X162238095Y-101128571D01*
X162142857Y-101176190D01*
X161761904Y-101176190D01*
X162904761Y-101080952D02*
X162809523Y-101033333D01*
X162761904Y-100985714D01*
X162714285Y-100890476D01*
X162714285Y-100842857D01*
X162761904Y-100747619D01*
X162809523Y-100700000D01*
X162904761Y-100652380D01*
X163095238Y-100652380D01*
X163190476Y-100700000D01*
X163238095Y-100747619D01*
X163285714Y-100842857D01*
X163285714Y-100890476D01*
X163238095Y-100985714D01*
X163190476Y-101033333D01*
X163095238Y-101080952D01*
X162904761Y-101080952D01*
X162809523Y-101128571D01*
X162761904Y-101176190D01*
X162714285Y-101271428D01*
X162714285Y-101461904D01*
X162761904Y-101557142D01*
X162809523Y-101604761D01*
X162904761Y-101652380D01*
X163095238Y-101652380D01*
X163190476Y-101604761D01*
X163238095Y-101557142D01*
X163285714Y-101461904D01*
X163285714Y-101271428D01*
X163238095Y-101176190D01*
X163190476Y-101128571D01*
X163095238Y-101080952D01*
X159233333Y-98852380D02*
X158900000Y-98376190D01*
X158661904Y-98852380D02*
X158661904Y-97852380D01*
X159042857Y-97852380D01*
X159138095Y-97900000D01*
X159185714Y-97947619D01*
X159233333Y-98042857D01*
X159233333Y-98185714D01*
X159185714Y-98280952D01*
X159138095Y-98328571D01*
X159042857Y-98376190D01*
X158661904Y-98376190D01*
X159709523Y-98852380D02*
X159900000Y-98852380D01*
X159995238Y-98804761D01*
X160042857Y-98757142D01*
X160138095Y-98614285D01*
X160185714Y-98423809D01*
X160185714Y-98042857D01*
X160138095Y-97947619D01*
X160090476Y-97900000D01*
X159995238Y-97852380D01*
X159804761Y-97852380D01*
X159709523Y-97900000D01*
X159661904Y-97947619D01*
X159614285Y-98042857D01*
X159614285Y-98280952D01*
X159661904Y-98376190D01*
X159709523Y-98423809D01*
X159804761Y-98471428D01*
X159995238Y-98471428D01*
X160090476Y-98423809D01*
X160138095Y-98376190D01*
X160185714Y-98280952D01*
X168557142Y-113352380D02*
X168223809Y-112876190D01*
X167985714Y-113352380D02*
X167985714Y-112352380D01*
X168366666Y-112352380D01*
X168461904Y-112400000D01*
X168509523Y-112447619D01*
X168557142Y-112542857D01*
X168557142Y-112685714D01*
X168509523Y-112780952D01*
X168461904Y-112828571D01*
X168366666Y-112876190D01*
X167985714Y-112876190D01*
X169509523Y-113352380D02*
X168938095Y-113352380D01*
X169223809Y-113352380D02*
X169223809Y-112352380D01*
X169128571Y-112495238D01*
X169033333Y-112590476D01*
X168938095Y-112638095D01*
X170461904Y-113352380D02*
X169890476Y-113352380D01*
X170176190Y-113352380D02*
X170176190Y-112352380D01*
X170080952Y-112495238D01*
X169985714Y-112590476D01*
X169890476Y-112638095D01*
X166857142Y-97552380D02*
X166523809Y-97076190D01*
X166285714Y-97552380D02*
X166285714Y-96552380D01*
X166666666Y-96552380D01*
X166761904Y-96600000D01*
X166809523Y-96647619D01*
X166857142Y-96742857D01*
X166857142Y-96885714D01*
X166809523Y-96980952D01*
X166761904Y-97028571D01*
X166666666Y-97076190D01*
X166285714Y-97076190D01*
X167809523Y-97552380D02*
X167238095Y-97552380D01*
X167523809Y-97552380D02*
X167523809Y-96552380D01*
X167428571Y-96695238D01*
X167333333Y-96790476D01*
X167238095Y-96838095D01*
X168190476Y-96647619D02*
X168238095Y-96600000D01*
X168333333Y-96552380D01*
X168571428Y-96552380D01*
X168666666Y-96600000D01*
X168714285Y-96647619D01*
X168761904Y-96742857D01*
X168761904Y-96838095D01*
X168714285Y-96980952D01*
X168142857Y-97552380D01*
X168761904Y-97552380D01*
X171738095Y-107252380D02*
X172309523Y-107252380D01*
X172023809Y-108252380D02*
X172023809Y-107252380D01*
X172642857Y-108252380D02*
X172642857Y-107252380D01*
X173023809Y-107252380D01*
X173119047Y-107300000D01*
X173166666Y-107347619D01*
X173214285Y-107442857D01*
X173214285Y-107585714D01*
X173166666Y-107680952D01*
X173119047Y-107728571D01*
X173023809Y-107776190D01*
X172642857Y-107776190D01*
X174166666Y-108252380D02*
X173595238Y-108252380D01*
X173880952Y-108252380D02*
X173880952Y-107252380D01*
X173785714Y-107395238D01*
X173690476Y-107490476D01*
X173595238Y-107538095D01*
X178438095Y-107652380D02*
X178438095Y-108461904D01*
X178485714Y-108557142D01*
X178533333Y-108604761D01*
X178628571Y-108652380D01*
X178819047Y-108652380D01*
X178914285Y-108604761D01*
X178961904Y-108557142D01*
X179009523Y-108461904D01*
X179009523Y-107652380D01*
X180009523Y-108652380D02*
X179438095Y-108652380D01*
X179723809Y-108652380D02*
X179723809Y-107652380D01*
X179628571Y-107795238D01*
X179533333Y-107890476D01*
X179438095Y-107938095D01*
X181038095Y-81752380D02*
X181038095Y-82561904D01*
X181085714Y-82657142D01*
X181133333Y-82704761D01*
X181228571Y-82752380D01*
X181419047Y-82752380D01*
X181514285Y-82704761D01*
X181561904Y-82657142D01*
X181609523Y-82561904D01*
X181609523Y-81752380D01*
X182038095Y-81847619D02*
X182085714Y-81800000D01*
X182180952Y-81752380D01*
X182419047Y-81752380D01*
X182514285Y-81800000D01*
X182561904Y-81847619D01*
X182609523Y-81942857D01*
X182609523Y-82038095D01*
X182561904Y-82180952D01*
X181990476Y-82752380D01*
X182609523Y-82752380D01*
X179638095Y-76252380D02*
X179638095Y-77061904D01*
X179685714Y-77157142D01*
X179733333Y-77204761D01*
X179828571Y-77252380D01*
X180019047Y-77252380D01*
X180114285Y-77204761D01*
X180161904Y-77157142D01*
X180209523Y-77061904D01*
X180209523Y-76252380D01*
X180590476Y-76252380D02*
X181209523Y-76252380D01*
X180876190Y-76633333D01*
X181019047Y-76633333D01*
X181114285Y-76680952D01*
X181161904Y-76728571D01*
X181209523Y-76823809D01*
X181209523Y-77061904D01*
X181161904Y-77157142D01*
X181114285Y-77204761D01*
X181019047Y-77252380D01*
X180733333Y-77252380D01*
X180638095Y-77204761D01*
X180590476Y-77157142D01*
X156838095Y-92152380D02*
X156838095Y-92961904D01*
X156885714Y-93057142D01*
X156933333Y-93104761D01*
X157028571Y-93152380D01*
X157219047Y-93152380D01*
X157314285Y-93104761D01*
X157361904Y-93057142D01*
X157409523Y-92961904D01*
X157409523Y-92152380D01*
X158314285Y-92485714D02*
X158314285Y-93152380D01*
X158076190Y-92104761D02*
X157838095Y-92819047D01*
X158457142Y-92819047D01*
%LPC*%
G36*
G01*
X158450001Y-119925000D02*
X157549999Y-119925000D01*
G75*
G02*
X157300000Y-119675001I0J249999D01*
G01*
X157300000Y-119024999D01*
G75*
G02*
X157549999Y-118775000I249999J0D01*
G01*
X158450001Y-118775000D01*
G75*
G02*
X158700000Y-119024999I0J-249999D01*
G01*
X158700000Y-119675001D01*
G75*
G02*
X158450001Y-119925000I-249999J0D01*
G01*
G37*
G36*
G01*
X158450001Y-121975000D02*
X157549999Y-121975000D01*
G75*
G02*
X157300000Y-121725001I0J249999D01*
G01*
X157300000Y-121074999D01*
G75*
G02*
X157549999Y-120825000I249999J0D01*
G01*
X158450001Y-120825000D01*
G75*
G02*
X158700000Y-121074999I0J-249999D01*
G01*
X158700000Y-121725001D01*
G75*
G02*
X158450001Y-121975000I-249999J0D01*
G01*
G37*
G36*
G01*
X177550000Y-99949600D02*
X177550000Y-101050400D01*
G75*
G02*
X177300400Y-101300000I-249600J0D01*
G01*
X174299600Y-101300000D01*
G75*
G02*
X174050000Y-101050400I0J249600D01*
G01*
X174050000Y-99949600D01*
G75*
G02*
X174299600Y-99700000I249600J0D01*
G01*
X177300400Y-99700000D01*
G75*
G02*
X177550000Y-99949600I0J-249600D01*
G01*
G37*
G36*
G01*
X172150000Y-99950000D02*
X172150000Y-101050000D01*
G75*
G02*
X171900000Y-101300000I-250000J0D01*
G01*
X168900000Y-101300000D01*
G75*
G02*
X168650000Y-101050000I0J250000D01*
G01*
X168650000Y-99950000D01*
G75*
G02*
X168900000Y-99700000I250000J0D01*
G01*
X171900000Y-99700000D01*
G75*
G02*
X172150000Y-99950000I0J-250000D01*
G01*
G37*
G36*
G01*
X183250000Y-89150001D02*
X183250000Y-88249999D01*
G75*
G02*
X183499999Y-88000000I249999J0D01*
G01*
X184150001Y-88000000D01*
G75*
G02*
X184400000Y-88249999I0J-249999D01*
G01*
X184400000Y-89150001D01*
G75*
G02*
X184150001Y-89400000I-249999J0D01*
G01*
X183499999Y-89400000D01*
G75*
G02*
X183250000Y-89150001I0J249999D01*
G01*
G37*
G36*
G01*
X181200000Y-89150450D02*
X181200000Y-88249550D01*
G75*
G02*
X181449550Y-88000000I249550J0D01*
G01*
X182100450Y-88000000D01*
G75*
G02*
X182350000Y-88249550I0J-249550D01*
G01*
X182350000Y-89150450D01*
G75*
G02*
X182100450Y-89400000I-249550J0D01*
G01*
X181449550Y-89400000D01*
G75*
G02*
X181200000Y-89150450I0J249550D01*
G01*
G37*
G36*
G01*
X183625000Y-110049999D02*
X183625000Y-110950001D01*
G75*
G02*
X183375001Y-111200000I-249999J0D01*
G01*
X182724999Y-111200000D01*
G75*
G02*
X182475000Y-110950001I0J249999D01*
G01*
X182475000Y-110049999D01*
G75*
G02*
X182724999Y-109800000I249999J0D01*
G01*
X183375001Y-109800000D01*
G75*
G02*
X183625000Y-110049999I0J-249999D01*
G01*
G37*
G36*
G01*
X181575000Y-110049999D02*
X181575000Y-110950001D01*
G75*
G02*
X181325001Y-111200000I-249999J0D01*
G01*
X180674999Y-111200000D01*
G75*
G02*
X180425000Y-110950001I0J249999D01*
G01*
X180425000Y-110049999D01*
G75*
G02*
X180674999Y-109800000I249999J0D01*
G01*
X181325001Y-109800000D01*
G75*
G02*
X181575000Y-110049999I0J-249999D01*
G01*
G37*
G36*
G01*
X182475000Y-103200001D02*
X182475000Y-102299999D01*
G75*
G02*
X182724999Y-102050000I249999J0D01*
G01*
X183375001Y-102050000D01*
G75*
G02*
X183625000Y-102299999I0J-249999D01*
G01*
X183625000Y-103200001D01*
G75*
G02*
X183375001Y-103450000I-249999J0D01*
G01*
X182724999Y-103450000D01*
G75*
G02*
X182475000Y-103200001I0J249999D01*
G01*
G37*
G36*
G01*
X180425000Y-103200450D02*
X180425000Y-102299550D01*
G75*
G02*
X180674550Y-102050000I249550J0D01*
G01*
X181325450Y-102050000D01*
G75*
G02*
X181575000Y-102299550I0J-249550D01*
G01*
X181575000Y-103200450D01*
G75*
G02*
X181325450Y-103450000I-249550J0D01*
G01*
X180674550Y-103450000D01*
G75*
G02*
X180425000Y-103200450I0J249550D01*
G01*
G37*
G36*
G01*
X171925000Y-86849999D02*
X171925000Y-87750001D01*
G75*
G02*
X171675001Y-88000000I-249999J0D01*
G01*
X171024999Y-88000000D01*
G75*
G02*
X170775000Y-87750001I0J249999D01*
G01*
X170775000Y-86849999D01*
G75*
G02*
X171024999Y-86600000I249999J0D01*
G01*
X171675001Y-86600000D01*
G75*
G02*
X171925000Y-86849999I0J-249999D01*
G01*
G37*
G36*
G01*
X169875000Y-86849999D02*
X169875000Y-87750001D01*
G75*
G02*
X169625001Y-88000000I-249999J0D01*
G01*
X168974999Y-88000000D01*
G75*
G02*
X168725000Y-87750001I0J249999D01*
G01*
X168725000Y-86849999D01*
G75*
G02*
X168974999Y-86600000I249999J0D01*
G01*
X169625001Y-86600000D01*
G75*
G02*
X169875000Y-86849999I0J-249999D01*
G01*
G37*
G36*
G01*
X186050001Y-78975000D02*
X185149999Y-78975000D01*
G75*
G02*
X184900000Y-78725001I0J249999D01*
G01*
X184900000Y-78074999D01*
G75*
G02*
X185149999Y-77825000I249999J0D01*
G01*
X186050001Y-77825000D01*
G75*
G02*
X186300000Y-78074999I0J-249999D01*
G01*
X186300000Y-78725001D01*
G75*
G02*
X186050001Y-78975000I-249999J0D01*
G01*
G37*
G36*
G01*
X186050001Y-76925000D02*
X185149999Y-76925000D01*
G75*
G02*
X184900000Y-76675001I0J249999D01*
G01*
X184900000Y-76024999D01*
G75*
G02*
X185149999Y-75775000I249999J0D01*
G01*
X186050001Y-75775000D01*
G75*
G02*
X186300000Y-76024999I0J-249999D01*
G01*
X186300000Y-76675001D01*
G75*
G02*
X186050001Y-76925000I-249999J0D01*
G01*
G37*
G36*
G01*
X159950001Y-86025000D02*
X159049999Y-86025000D01*
G75*
G02*
X158800000Y-85775001I0J249999D01*
G01*
X158800000Y-85124999D01*
G75*
G02*
X159049999Y-84875000I249999J0D01*
G01*
X159950001Y-84875000D01*
G75*
G02*
X160200000Y-85124999I0J-249999D01*
G01*
X160200000Y-85775001D01*
G75*
G02*
X159950001Y-86025000I-249999J0D01*
G01*
G37*
G36*
G01*
X159950001Y-88075000D02*
X159049999Y-88075000D01*
G75*
G02*
X158800000Y-87825001I0J249999D01*
G01*
X158800000Y-87174999D01*
G75*
G02*
X159049999Y-86925000I249999J0D01*
G01*
X159950001Y-86925000D01*
G75*
G02*
X160200000Y-87174999I0J-249999D01*
G01*
X160200000Y-87825001D01*
G75*
G02*
X159950001Y-88075000I-249999J0D01*
G01*
G37*
D14*
X187000000Y-106000000D03*
D15*
X193000000Y-106000000D03*
D16*
X194000000Y-110500000D03*
X194000000Y-101500000D03*
D17*
X196000000Y-106000000D03*
D18*
X198000000Y-83000000D03*
D19*
X198000000Y-85540000D03*
D18*
X161000000Y-73000000D03*
D19*
X163540000Y-73000000D03*
X166080000Y-73000000D03*
X168620000Y-73000000D03*
X171160000Y-73000000D03*
X173700000Y-73000000D03*
G36*
G01*
X175550000Y-88549999D02*
X175550000Y-89450001D01*
G75*
G02*
X175300001Y-89700000I-249999J0D01*
G01*
X174649999Y-89700000D01*
G75*
G02*
X174400000Y-89450001I0J249999D01*
G01*
X174400000Y-88549999D01*
G75*
G02*
X174649999Y-88300000I249999J0D01*
G01*
X175300001Y-88300000D01*
G75*
G02*
X175550000Y-88549999I0J-249999D01*
G01*
G37*
G36*
G01*
X177600000Y-88549550D02*
X177600000Y-89450450D01*
G75*
G02*
X177350450Y-89700000I-249550J0D01*
G01*
X176699550Y-89700000D01*
G75*
G02*
X176450000Y-89450450I0J249550D01*
G01*
X176450000Y-88549550D01*
G75*
G02*
X176699550Y-88300000I249550J0D01*
G01*
X177350450Y-88300000D01*
G75*
G02*
X177600000Y-88549550I0J-249550D01*
G01*
G37*
G36*
G01*
X178225000Y-79849999D02*
X178225000Y-80750001D01*
G75*
G02*
X177975001Y-81000000I-249999J0D01*
G01*
X177324999Y-81000000D01*
G75*
G02*
X177075000Y-80750001I0J249999D01*
G01*
X177075000Y-79849999D01*
G75*
G02*
X177324999Y-79600000I249999J0D01*
G01*
X177975001Y-79600000D01*
G75*
G02*
X178225000Y-79849999I0J-249999D01*
G01*
G37*
G36*
G01*
X176175000Y-79849999D02*
X176175000Y-80750001D01*
G75*
G02*
X175925001Y-81000000I-249999J0D01*
G01*
X175274999Y-81000000D01*
G75*
G02*
X175025000Y-80750001I0J249999D01*
G01*
X175025000Y-79849999D01*
G75*
G02*
X175274999Y-79600000I249999J0D01*
G01*
X175925001Y-79600000D01*
G75*
G02*
X176175000Y-79849999I0J-249999D01*
G01*
G37*
G36*
G01*
X195925000Y-76849999D02*
X195925000Y-77750001D01*
G75*
G02*
X195675001Y-78000000I-249999J0D01*
G01*
X195024999Y-78000000D01*
G75*
G02*
X194775000Y-77750001I0J249999D01*
G01*
X194775000Y-76849999D01*
G75*
G02*
X195024999Y-76600000I249999J0D01*
G01*
X195675001Y-76600000D01*
G75*
G02*
X195925000Y-76849999I0J-249999D01*
G01*
G37*
G36*
G01*
X193875000Y-76849999D02*
X193875000Y-77750001D01*
G75*
G02*
X193625001Y-78000000I-249999J0D01*
G01*
X192974999Y-78000000D01*
G75*
G02*
X192725000Y-77750001I0J249999D01*
G01*
X192725000Y-76849999D01*
G75*
G02*
X192974999Y-76600000I249999J0D01*
G01*
X193625001Y-76600000D01*
G75*
G02*
X193875000Y-76849999I0J-249999D01*
G01*
G37*
G36*
G01*
X169875000Y-89249999D02*
X169875000Y-90150001D01*
G75*
G02*
X169625001Y-90400000I-249999J0D01*
G01*
X168974999Y-90400000D01*
G75*
G02*
X168725000Y-90150001I0J249999D01*
G01*
X168725000Y-89249999D01*
G75*
G02*
X168974999Y-89000000I249999J0D01*
G01*
X169625001Y-89000000D01*
G75*
G02*
X169875000Y-89249999I0J-249999D01*
G01*
G37*
G36*
G01*
X171925000Y-89249999D02*
X171925000Y-90150001D01*
G75*
G02*
X171675001Y-90400000I-249999J0D01*
G01*
X171024999Y-90400000D01*
G75*
G02*
X170775000Y-90150001I0J249999D01*
G01*
X170775000Y-89249999D01*
G75*
G02*
X171024999Y-89000000I249999J0D01*
G01*
X171675001Y-89000000D01*
G75*
G02*
X171925000Y-89249999I0J-249999D01*
G01*
G37*
G36*
G01*
X189875000Y-76849999D02*
X189875000Y-77750001D01*
G75*
G02*
X189625001Y-78000000I-249999J0D01*
G01*
X188974999Y-78000000D01*
G75*
G02*
X188725000Y-77750001I0J249999D01*
G01*
X188725000Y-76849999D01*
G75*
G02*
X188974999Y-76600000I249999J0D01*
G01*
X189625001Y-76600000D01*
G75*
G02*
X189875000Y-76849999I0J-249999D01*
G01*
G37*
G36*
G01*
X191925000Y-76849999D02*
X191925000Y-77750001D01*
G75*
G02*
X191675001Y-78000000I-249999J0D01*
G01*
X191024999Y-78000000D01*
G75*
G02*
X190775000Y-77750001I0J249999D01*
G01*
X190775000Y-76849999D01*
G75*
G02*
X191024999Y-76600000I249999J0D01*
G01*
X191675001Y-76600000D01*
G75*
G02*
X191925000Y-76849999I0J-249999D01*
G01*
G37*
G36*
G01*
X191925000Y-79249999D02*
X191925000Y-80150001D01*
G75*
G02*
X191675001Y-80400000I-249999J0D01*
G01*
X191024999Y-80400000D01*
G75*
G02*
X190775000Y-80150001I0J249999D01*
G01*
X190775000Y-79249999D01*
G75*
G02*
X191024999Y-79000000I249999J0D01*
G01*
X191675001Y-79000000D01*
G75*
G02*
X191925000Y-79249999I0J-249999D01*
G01*
G37*
G36*
G01*
X189875000Y-79249999D02*
X189875000Y-80150001D01*
G75*
G02*
X189625001Y-80400000I-249999J0D01*
G01*
X188974999Y-80400000D01*
G75*
G02*
X188725000Y-80150001I0J249999D01*
G01*
X188725000Y-79249999D01*
G75*
G02*
X188974999Y-79000000I249999J0D01*
G01*
X189625001Y-79000000D01*
G75*
G02*
X189875000Y-79249999I0J-249999D01*
G01*
G37*
G36*
G01*
X163549999Y-89375000D02*
X164450001Y-89375000D01*
G75*
G02*
X164700000Y-89624999I0J-249999D01*
G01*
X164700000Y-90275001D01*
G75*
G02*
X164450001Y-90525000I-249999J0D01*
G01*
X163549999Y-90525000D01*
G75*
G02*
X163300000Y-90275001I0J249999D01*
G01*
X163300000Y-89624999D01*
G75*
G02*
X163549999Y-89375000I249999J0D01*
G01*
G37*
G36*
G01*
X163549999Y-91425000D02*
X164450001Y-91425000D01*
G75*
G02*
X164700000Y-91674999I0J-249999D01*
G01*
X164700000Y-92325001D01*
G75*
G02*
X164450001Y-92575000I-249999J0D01*
G01*
X163549999Y-92575000D01*
G75*
G02*
X163300000Y-92325001I0J249999D01*
G01*
X163300000Y-91674999D01*
G75*
G02*
X163549999Y-91425000I249999J0D01*
G01*
G37*
G36*
G01*
X162950001Y-99925000D02*
X162049999Y-99925000D01*
G75*
G02*
X161800000Y-99675001I0J249999D01*
G01*
X161800000Y-99024999D01*
G75*
G02*
X162049999Y-98775000I249999J0D01*
G01*
X162950001Y-98775000D01*
G75*
G02*
X163200000Y-99024999I0J-249999D01*
G01*
X163200000Y-99675001D01*
G75*
G02*
X162950001Y-99925000I-249999J0D01*
G01*
G37*
G36*
G01*
X162950001Y-97875000D02*
X162049999Y-97875000D01*
G75*
G02*
X161800000Y-97625001I0J249999D01*
G01*
X161800000Y-96974999D01*
G75*
G02*
X162049999Y-96725000I249999J0D01*
G01*
X162950001Y-96725000D01*
G75*
G02*
X163200000Y-96974999I0J-249999D01*
G01*
X163200000Y-97625001D01*
G75*
G02*
X162950001Y-97875000I-249999J0D01*
G01*
G37*
G36*
G01*
X159049999Y-95975000D02*
X159950001Y-95975000D01*
G75*
G02*
X160200000Y-96224999I0J-249999D01*
G01*
X160200000Y-96875001D01*
G75*
G02*
X159950001Y-97125000I-249999J0D01*
G01*
X159049999Y-97125000D01*
G75*
G02*
X158800000Y-96875001I0J249999D01*
G01*
X158800000Y-96224999D01*
G75*
G02*
X159049999Y-95975000I249999J0D01*
G01*
G37*
G36*
G01*
X159049999Y-93925000D02*
X159950001Y-93925000D01*
G75*
G02*
X160200000Y-94174999I0J-249999D01*
G01*
X160200000Y-94825001D01*
G75*
G02*
X159950001Y-95075000I-249999J0D01*
G01*
X159049999Y-95075000D01*
G75*
G02*
X158800000Y-94825001I0J249999D01*
G01*
X158800000Y-94174999D01*
G75*
G02*
X159049999Y-93925000I249999J0D01*
G01*
G37*
G36*
G01*
X169450001Y-111575000D02*
X168549999Y-111575000D01*
G75*
G02*
X168300000Y-111325001I0J249999D01*
G01*
X168300000Y-110674999D01*
G75*
G02*
X168549999Y-110425000I249999J0D01*
G01*
X169450001Y-110425000D01*
G75*
G02*
X169700000Y-110674999I0J-249999D01*
G01*
X169700000Y-111325001D01*
G75*
G02*
X169450001Y-111575000I-249999J0D01*
G01*
G37*
G36*
G01*
X169450001Y-109525000D02*
X168549999Y-109525000D01*
G75*
G02*
X168300000Y-109275001I0J249999D01*
G01*
X168300000Y-108624999D01*
G75*
G02*
X168549999Y-108375000I249999J0D01*
G01*
X169450001Y-108375000D01*
G75*
G02*
X169700000Y-108624999I0J-249999D01*
G01*
X169700000Y-109275001D01*
G75*
G02*
X169450001Y-109525000I-249999J0D01*
G01*
G37*
G36*
G01*
X165550001Y-97875000D02*
X164649999Y-97875000D01*
G75*
G02*
X164400000Y-97625001I0J249999D01*
G01*
X164400000Y-96974999D01*
G75*
G02*
X164649999Y-96725000I249999J0D01*
G01*
X165550001Y-96725000D01*
G75*
G02*
X165800000Y-96974999I0J-249999D01*
G01*
X165800000Y-97625001D01*
G75*
G02*
X165550001Y-97875000I-249999J0D01*
G01*
G37*
G36*
G01*
X165550001Y-99925000D02*
X164649999Y-99925000D01*
G75*
G02*
X164400000Y-99675001I0J249999D01*
G01*
X164400000Y-99024999D01*
G75*
G02*
X164649999Y-98775000I249999J0D01*
G01*
X165550001Y-98775000D01*
G75*
G02*
X165800000Y-99024999I0J-249999D01*
G01*
X165800000Y-99675001D01*
G75*
G02*
X165550001Y-99925000I-249999J0D01*
G01*
G37*
D20*
X173000000Y-110000000D03*
D21*
X181175000Y-107975000D03*
X182125000Y-107975000D03*
X183075000Y-107975000D03*
X183075000Y-105275000D03*
X181175000Y-105275000D03*
D22*
X173876000Y-82830000D03*
X173876000Y-84100000D03*
X173876000Y-85370000D03*
X173876000Y-86640000D03*
X179300000Y-86640000D03*
X179300000Y-85370000D03*
X179300000Y-84100000D03*
X179300000Y-82830000D03*
D23*
X176588000Y-84735000D03*
D24*
X180700000Y-78400000D03*
X180700000Y-79350000D03*
X180700000Y-80300000D03*
X183400000Y-80300000D03*
X183400000Y-78400000D03*
D21*
X159675000Y-89525000D03*
X161575000Y-89525000D03*
X161575000Y-92225000D03*
X160625000Y-92225000D03*
X159675000Y-92225000D03*
D25*
X164270000Y-120800000D03*
X161730000Y-120800000D03*
X161730000Y-113200000D03*
X164270000Y-113200000D03*
D26*
X175800000Y-93400000D03*
X162800000Y-106300000D03*
X187900000Y-93400000D03*
X180800000Y-73500000D03*
M02*
