G04 #@! TF.GenerationSoftware,KiCad,Pcbnew,5.1.6*
G04 #@! TF.CreationDate,2020-07-27T17:19:51+02:00*
G04 #@! TF.ProjectId,motor-board,6d6f746f-722d-4626-9f61-72642e6b6963,1*
G04 #@! TF.SameCoordinates,Original*
G04 #@! TF.FileFunction,Copper,L1,Top*
G04 #@! TF.FilePolarity,Positive*
%FSLAX46Y46*%
G04 Gerber Fmt 4.6, Leading zero omitted, Abs format (unit mm)*
G04 Created by KiCad (PCBNEW 5.1.6) date 2020-07-27 17:19:51*
%MOMM*%
%LPD*%
G01*
G04 APERTURE LIST*
G04 #@! TA.AperFunction,ComponentPad*
%ADD10R,2.000000X4.000000*%
G04 #@! TD*
G04 #@! TA.AperFunction,ComponentPad*
%ADD11O,2.000000X3.300000*%
G04 #@! TD*
G04 #@! TA.AperFunction,ComponentPad*
%ADD12O,3.500000X2.000000*%
G04 #@! TD*
G04 #@! TA.AperFunction,ComponentPad*
%ADD13R,1.700000X1.700000*%
G04 #@! TD*
G04 #@! TA.AperFunction,ComponentPad*
%ADD14O,1.700000X1.700000*%
G04 #@! TD*
G04 #@! TA.AperFunction,SMDPad,CuDef*
%ADD15R,2.000000X2.000000*%
G04 #@! TD*
G04 #@! TA.AperFunction,SMDPad,CuDef*
%ADD16R,0.650000X1.560000*%
G04 #@! TD*
G04 #@! TA.AperFunction,SMDPad,CuDef*
%ADD17R,1.525000X0.650000*%
G04 #@! TD*
G04 #@! TA.AperFunction,SMDPad,CuDef*
%ADD18R,2.390000X2.390000*%
G04 #@! TD*
G04 #@! TA.AperFunction,SMDPad,CuDef*
%ADD19R,1.560000X0.650000*%
G04 #@! TD*
G04 #@! TA.AperFunction,ComponentPad*
%ADD20C,1.200000*%
G04 #@! TD*
G04 #@! TA.AperFunction,ViaPad*
%ADD21C,0.800000*%
G04 #@! TD*
G04 #@! TA.AperFunction,ViaPad*
%ADD22C,1.000000*%
G04 #@! TD*
G04 #@! TA.AperFunction,Conductor*
%ADD23C,0.500000*%
G04 #@! TD*
G04 #@! TA.AperFunction,Conductor*
%ADD24C,0.200000*%
G04 #@! TD*
G04 #@! TA.AperFunction,Conductor*
%ADD25C,0.250000*%
G04 #@! TD*
G04 #@! TA.AperFunction,Conductor*
%ADD26C,0.254000*%
G04 #@! TD*
G04 APERTURE END LIST*
G04 #@! TA.AperFunction,SMDPad,CuDef*
G36*
G01*
X158450001Y-119925000D02*
X157549999Y-119925000D01*
G75*
G02*
X157300000Y-119675001I0J249999D01*
G01*
X157300000Y-119024999D01*
G75*
G02*
X157549999Y-118775000I249999J0D01*
G01*
X158450001Y-118775000D01*
G75*
G02*
X158700000Y-119024999I0J-249999D01*
G01*
X158700000Y-119675001D01*
G75*
G02*
X158450001Y-119925000I-249999J0D01*
G01*
G37*
G04 #@! TD.AperFunction*
G04 #@! TA.AperFunction,SMDPad,CuDef*
G36*
G01*
X158450001Y-121975000D02*
X157549999Y-121975000D01*
G75*
G02*
X157300000Y-121725001I0J249999D01*
G01*
X157300000Y-121074999D01*
G75*
G02*
X157549999Y-120825000I249999J0D01*
G01*
X158450001Y-120825000D01*
G75*
G02*
X158700000Y-121074999I0J-249999D01*
G01*
X158700000Y-121725001D01*
G75*
G02*
X158450001Y-121975000I-249999J0D01*
G01*
G37*
G04 #@! TD.AperFunction*
G04 #@! TA.AperFunction,SMDPad,CuDef*
G36*
G01*
X177550000Y-99949600D02*
X177550000Y-101050400D01*
G75*
G02*
X177300400Y-101300000I-249600J0D01*
G01*
X174299600Y-101300000D01*
G75*
G02*
X174050000Y-101050400I0J249600D01*
G01*
X174050000Y-99949600D01*
G75*
G02*
X174299600Y-99700000I249600J0D01*
G01*
X177300400Y-99700000D01*
G75*
G02*
X177550000Y-99949600I0J-249600D01*
G01*
G37*
G04 #@! TD.AperFunction*
G04 #@! TA.AperFunction,SMDPad,CuDef*
G36*
G01*
X172150000Y-99950000D02*
X172150000Y-101050000D01*
G75*
G02*
X171900000Y-101300000I-250000J0D01*
G01*
X168900000Y-101300000D01*
G75*
G02*
X168650000Y-101050000I0J250000D01*
G01*
X168650000Y-99950000D01*
G75*
G02*
X168900000Y-99700000I250000J0D01*
G01*
X171900000Y-99700000D01*
G75*
G02*
X172150000Y-99950000I0J-250000D01*
G01*
G37*
G04 #@! TD.AperFunction*
G04 #@! TA.AperFunction,SMDPad,CuDef*
G36*
G01*
X183250000Y-89150001D02*
X183250000Y-88249999D01*
G75*
G02*
X183499999Y-88000000I249999J0D01*
G01*
X184150001Y-88000000D01*
G75*
G02*
X184400000Y-88249999I0J-249999D01*
G01*
X184400000Y-89150001D01*
G75*
G02*
X184150001Y-89400000I-249999J0D01*
G01*
X183499999Y-89400000D01*
G75*
G02*
X183250000Y-89150001I0J249999D01*
G01*
G37*
G04 #@! TD.AperFunction*
G04 #@! TA.AperFunction,SMDPad,CuDef*
G36*
G01*
X181200000Y-89150450D02*
X181200000Y-88249550D01*
G75*
G02*
X181449550Y-88000000I249550J0D01*
G01*
X182100450Y-88000000D01*
G75*
G02*
X182350000Y-88249550I0J-249550D01*
G01*
X182350000Y-89150450D01*
G75*
G02*
X182100450Y-89400000I-249550J0D01*
G01*
X181449550Y-89400000D01*
G75*
G02*
X181200000Y-89150450I0J249550D01*
G01*
G37*
G04 #@! TD.AperFunction*
G04 #@! TA.AperFunction,SMDPad,CuDef*
G36*
G01*
X183625000Y-110049999D02*
X183625000Y-110950001D01*
G75*
G02*
X183375001Y-111200000I-249999J0D01*
G01*
X182724999Y-111200000D01*
G75*
G02*
X182475000Y-110950001I0J249999D01*
G01*
X182475000Y-110049999D01*
G75*
G02*
X182724999Y-109800000I249999J0D01*
G01*
X183375001Y-109800000D01*
G75*
G02*
X183625000Y-110049999I0J-249999D01*
G01*
G37*
G04 #@! TD.AperFunction*
G04 #@! TA.AperFunction,SMDPad,CuDef*
G36*
G01*
X181575000Y-110049999D02*
X181575000Y-110950001D01*
G75*
G02*
X181325001Y-111200000I-249999J0D01*
G01*
X180674999Y-111200000D01*
G75*
G02*
X180425000Y-110950001I0J249999D01*
G01*
X180425000Y-110049999D01*
G75*
G02*
X180674999Y-109800000I249999J0D01*
G01*
X181325001Y-109800000D01*
G75*
G02*
X181575000Y-110049999I0J-249999D01*
G01*
G37*
G04 #@! TD.AperFunction*
G04 #@! TA.AperFunction,SMDPad,CuDef*
G36*
G01*
X182475000Y-103200001D02*
X182475000Y-102299999D01*
G75*
G02*
X182724999Y-102050000I249999J0D01*
G01*
X183375001Y-102050000D01*
G75*
G02*
X183625000Y-102299999I0J-249999D01*
G01*
X183625000Y-103200001D01*
G75*
G02*
X183375001Y-103450000I-249999J0D01*
G01*
X182724999Y-103450000D01*
G75*
G02*
X182475000Y-103200001I0J249999D01*
G01*
G37*
G04 #@! TD.AperFunction*
G04 #@! TA.AperFunction,SMDPad,CuDef*
G36*
G01*
X180425000Y-103200450D02*
X180425000Y-102299550D01*
G75*
G02*
X180674550Y-102050000I249550J0D01*
G01*
X181325450Y-102050000D01*
G75*
G02*
X181575000Y-102299550I0J-249550D01*
G01*
X181575000Y-103200450D01*
G75*
G02*
X181325450Y-103450000I-249550J0D01*
G01*
X180674550Y-103450000D01*
G75*
G02*
X180425000Y-103200450I0J249550D01*
G01*
G37*
G04 #@! TD.AperFunction*
G04 #@! TA.AperFunction,SMDPad,CuDef*
G36*
G01*
X171925000Y-86849999D02*
X171925000Y-87750001D01*
G75*
G02*
X171675001Y-88000000I-249999J0D01*
G01*
X171024999Y-88000000D01*
G75*
G02*
X170775000Y-87750001I0J249999D01*
G01*
X170775000Y-86849999D01*
G75*
G02*
X171024999Y-86600000I249999J0D01*
G01*
X171675001Y-86600000D01*
G75*
G02*
X171925000Y-86849999I0J-249999D01*
G01*
G37*
G04 #@! TD.AperFunction*
G04 #@! TA.AperFunction,SMDPad,CuDef*
G36*
G01*
X169875000Y-86849999D02*
X169875000Y-87750001D01*
G75*
G02*
X169625001Y-88000000I-249999J0D01*
G01*
X168974999Y-88000000D01*
G75*
G02*
X168725000Y-87750001I0J249999D01*
G01*
X168725000Y-86849999D01*
G75*
G02*
X168974999Y-86600000I249999J0D01*
G01*
X169625001Y-86600000D01*
G75*
G02*
X169875000Y-86849999I0J-249999D01*
G01*
G37*
G04 #@! TD.AperFunction*
G04 #@! TA.AperFunction,SMDPad,CuDef*
G36*
G01*
X186050001Y-78975000D02*
X185149999Y-78975000D01*
G75*
G02*
X184900000Y-78725001I0J249999D01*
G01*
X184900000Y-78074999D01*
G75*
G02*
X185149999Y-77825000I249999J0D01*
G01*
X186050001Y-77825000D01*
G75*
G02*
X186300000Y-78074999I0J-249999D01*
G01*
X186300000Y-78725001D01*
G75*
G02*
X186050001Y-78975000I-249999J0D01*
G01*
G37*
G04 #@! TD.AperFunction*
G04 #@! TA.AperFunction,SMDPad,CuDef*
G36*
G01*
X186050001Y-76925000D02*
X185149999Y-76925000D01*
G75*
G02*
X184900000Y-76675001I0J249999D01*
G01*
X184900000Y-76024999D01*
G75*
G02*
X185149999Y-75775000I249999J0D01*
G01*
X186050001Y-75775000D01*
G75*
G02*
X186300000Y-76024999I0J-249999D01*
G01*
X186300000Y-76675001D01*
G75*
G02*
X186050001Y-76925000I-249999J0D01*
G01*
G37*
G04 #@! TD.AperFunction*
G04 #@! TA.AperFunction,SMDPad,CuDef*
G36*
G01*
X159950001Y-86025000D02*
X159049999Y-86025000D01*
G75*
G02*
X158800000Y-85775001I0J249999D01*
G01*
X158800000Y-85124999D01*
G75*
G02*
X159049999Y-84875000I249999J0D01*
G01*
X159950001Y-84875000D01*
G75*
G02*
X160200000Y-85124999I0J-249999D01*
G01*
X160200000Y-85775001D01*
G75*
G02*
X159950001Y-86025000I-249999J0D01*
G01*
G37*
G04 #@! TD.AperFunction*
G04 #@! TA.AperFunction,SMDPad,CuDef*
G36*
G01*
X159950001Y-88075000D02*
X159049999Y-88075000D01*
G75*
G02*
X158800000Y-87825001I0J249999D01*
G01*
X158800000Y-87174999D01*
G75*
G02*
X159049999Y-86925000I249999J0D01*
G01*
X159950001Y-86925000D01*
G75*
G02*
X160200000Y-87174999I0J-249999D01*
G01*
X160200000Y-87825001D01*
G75*
G02*
X159950001Y-88075000I-249999J0D01*
G01*
G37*
G04 #@! TD.AperFunction*
D10*
X187000000Y-106000000D03*
D11*
X193000000Y-106000000D03*
D12*
X194000000Y-110500000D03*
X194000000Y-101500000D03*
D13*
X198000000Y-83000000D03*
D14*
X198000000Y-85540000D03*
D13*
X161000000Y-73000000D03*
D14*
X163540000Y-73000000D03*
X166080000Y-73000000D03*
X168620000Y-73000000D03*
X171160000Y-73000000D03*
X173700000Y-73000000D03*
G04 #@! TA.AperFunction,SMDPad,CuDef*
G36*
G01*
X175550000Y-88549999D02*
X175550000Y-89450001D01*
G75*
G02*
X175300001Y-89700000I-249999J0D01*
G01*
X174649999Y-89700000D01*
G75*
G02*
X174400000Y-89450001I0J249999D01*
G01*
X174400000Y-88549999D01*
G75*
G02*
X174649999Y-88300000I249999J0D01*
G01*
X175300001Y-88300000D01*
G75*
G02*
X175550000Y-88549999I0J-249999D01*
G01*
G37*
G04 #@! TD.AperFunction*
G04 #@! TA.AperFunction,SMDPad,CuDef*
G36*
G01*
X177600000Y-88549550D02*
X177600000Y-89450450D01*
G75*
G02*
X177350450Y-89700000I-249550J0D01*
G01*
X176699550Y-89700000D01*
G75*
G02*
X176450000Y-89450450I0J249550D01*
G01*
X176450000Y-88549550D01*
G75*
G02*
X176699550Y-88300000I249550J0D01*
G01*
X177350450Y-88300000D01*
G75*
G02*
X177600000Y-88549550I0J-249550D01*
G01*
G37*
G04 #@! TD.AperFunction*
G04 #@! TA.AperFunction,SMDPad,CuDef*
G36*
G01*
X178225000Y-79849999D02*
X178225000Y-80750001D01*
G75*
G02*
X177975001Y-81000000I-249999J0D01*
G01*
X177324999Y-81000000D01*
G75*
G02*
X177075000Y-80750001I0J249999D01*
G01*
X177075000Y-79849999D01*
G75*
G02*
X177324999Y-79600000I249999J0D01*
G01*
X177975001Y-79600000D01*
G75*
G02*
X178225000Y-79849999I0J-249999D01*
G01*
G37*
G04 #@! TD.AperFunction*
G04 #@! TA.AperFunction,SMDPad,CuDef*
G36*
G01*
X176175000Y-79849999D02*
X176175000Y-80750001D01*
G75*
G02*
X175925001Y-81000000I-249999J0D01*
G01*
X175274999Y-81000000D01*
G75*
G02*
X175025000Y-80750001I0J249999D01*
G01*
X175025000Y-79849999D01*
G75*
G02*
X175274999Y-79600000I249999J0D01*
G01*
X175925001Y-79600000D01*
G75*
G02*
X176175000Y-79849999I0J-249999D01*
G01*
G37*
G04 #@! TD.AperFunction*
G04 #@! TA.AperFunction,SMDPad,CuDef*
G36*
G01*
X195925000Y-76849999D02*
X195925000Y-77750001D01*
G75*
G02*
X195675001Y-78000000I-249999J0D01*
G01*
X195024999Y-78000000D01*
G75*
G02*
X194775000Y-77750001I0J249999D01*
G01*
X194775000Y-76849999D01*
G75*
G02*
X195024999Y-76600000I249999J0D01*
G01*
X195675001Y-76600000D01*
G75*
G02*
X195925000Y-76849999I0J-249999D01*
G01*
G37*
G04 #@! TD.AperFunction*
G04 #@! TA.AperFunction,SMDPad,CuDef*
G36*
G01*
X193875000Y-76849999D02*
X193875000Y-77750001D01*
G75*
G02*
X193625001Y-78000000I-249999J0D01*
G01*
X192974999Y-78000000D01*
G75*
G02*
X192725000Y-77750001I0J249999D01*
G01*
X192725000Y-76849999D01*
G75*
G02*
X192974999Y-76600000I249999J0D01*
G01*
X193625001Y-76600000D01*
G75*
G02*
X193875000Y-76849999I0J-249999D01*
G01*
G37*
G04 #@! TD.AperFunction*
G04 #@! TA.AperFunction,SMDPad,CuDef*
G36*
G01*
X169875000Y-89249999D02*
X169875000Y-90150001D01*
G75*
G02*
X169625001Y-90400000I-249999J0D01*
G01*
X168974999Y-90400000D01*
G75*
G02*
X168725000Y-90150001I0J249999D01*
G01*
X168725000Y-89249999D01*
G75*
G02*
X168974999Y-89000000I249999J0D01*
G01*
X169625001Y-89000000D01*
G75*
G02*
X169875000Y-89249999I0J-249999D01*
G01*
G37*
G04 #@! TD.AperFunction*
G04 #@! TA.AperFunction,SMDPad,CuDef*
G36*
G01*
X171925000Y-89249999D02*
X171925000Y-90150001D01*
G75*
G02*
X171675001Y-90400000I-249999J0D01*
G01*
X171024999Y-90400000D01*
G75*
G02*
X170775000Y-90150001I0J249999D01*
G01*
X170775000Y-89249999D01*
G75*
G02*
X171024999Y-89000000I249999J0D01*
G01*
X171675001Y-89000000D01*
G75*
G02*
X171925000Y-89249999I0J-249999D01*
G01*
G37*
G04 #@! TD.AperFunction*
G04 #@! TA.AperFunction,SMDPad,CuDef*
G36*
G01*
X189875000Y-76849999D02*
X189875000Y-77750001D01*
G75*
G02*
X189625001Y-78000000I-249999J0D01*
G01*
X188974999Y-78000000D01*
G75*
G02*
X188725000Y-77750001I0J249999D01*
G01*
X188725000Y-76849999D01*
G75*
G02*
X188974999Y-76600000I249999J0D01*
G01*
X189625001Y-76600000D01*
G75*
G02*
X189875000Y-76849999I0J-249999D01*
G01*
G37*
G04 #@! TD.AperFunction*
G04 #@! TA.AperFunction,SMDPad,CuDef*
G36*
G01*
X191925000Y-76849999D02*
X191925000Y-77750001D01*
G75*
G02*
X191675001Y-78000000I-249999J0D01*
G01*
X191024999Y-78000000D01*
G75*
G02*
X190775000Y-77750001I0J249999D01*
G01*
X190775000Y-76849999D01*
G75*
G02*
X191024999Y-76600000I249999J0D01*
G01*
X191675001Y-76600000D01*
G75*
G02*
X191925000Y-76849999I0J-249999D01*
G01*
G37*
G04 #@! TD.AperFunction*
G04 #@! TA.AperFunction,SMDPad,CuDef*
G36*
G01*
X191925000Y-79249999D02*
X191925000Y-80150001D01*
G75*
G02*
X191675001Y-80400000I-249999J0D01*
G01*
X191024999Y-80400000D01*
G75*
G02*
X190775000Y-80150001I0J249999D01*
G01*
X190775000Y-79249999D01*
G75*
G02*
X191024999Y-79000000I249999J0D01*
G01*
X191675001Y-79000000D01*
G75*
G02*
X191925000Y-79249999I0J-249999D01*
G01*
G37*
G04 #@! TD.AperFunction*
G04 #@! TA.AperFunction,SMDPad,CuDef*
G36*
G01*
X189875000Y-79249999D02*
X189875000Y-80150001D01*
G75*
G02*
X189625001Y-80400000I-249999J0D01*
G01*
X188974999Y-80400000D01*
G75*
G02*
X188725000Y-80150001I0J249999D01*
G01*
X188725000Y-79249999D01*
G75*
G02*
X188974999Y-79000000I249999J0D01*
G01*
X189625001Y-79000000D01*
G75*
G02*
X189875000Y-79249999I0J-249999D01*
G01*
G37*
G04 #@! TD.AperFunction*
G04 #@! TA.AperFunction,SMDPad,CuDef*
G36*
G01*
X163549999Y-89375000D02*
X164450001Y-89375000D01*
G75*
G02*
X164700000Y-89624999I0J-249999D01*
G01*
X164700000Y-90275001D01*
G75*
G02*
X164450001Y-90525000I-249999J0D01*
G01*
X163549999Y-90525000D01*
G75*
G02*
X163300000Y-90275001I0J249999D01*
G01*
X163300000Y-89624999D01*
G75*
G02*
X163549999Y-89375000I249999J0D01*
G01*
G37*
G04 #@! TD.AperFunction*
G04 #@! TA.AperFunction,SMDPad,CuDef*
G36*
G01*
X163549999Y-91425000D02*
X164450001Y-91425000D01*
G75*
G02*
X164700000Y-91674999I0J-249999D01*
G01*
X164700000Y-92325001D01*
G75*
G02*
X164450001Y-92575000I-249999J0D01*
G01*
X163549999Y-92575000D01*
G75*
G02*
X163300000Y-92325001I0J249999D01*
G01*
X163300000Y-91674999D01*
G75*
G02*
X163549999Y-91425000I249999J0D01*
G01*
G37*
G04 #@! TD.AperFunction*
G04 #@! TA.AperFunction,SMDPad,CuDef*
G36*
G01*
X162950001Y-99925000D02*
X162049999Y-99925000D01*
G75*
G02*
X161800000Y-99675001I0J249999D01*
G01*
X161800000Y-99024999D01*
G75*
G02*
X162049999Y-98775000I249999J0D01*
G01*
X162950001Y-98775000D01*
G75*
G02*
X163200000Y-99024999I0J-249999D01*
G01*
X163200000Y-99675001D01*
G75*
G02*
X162950001Y-99925000I-249999J0D01*
G01*
G37*
G04 #@! TD.AperFunction*
G04 #@! TA.AperFunction,SMDPad,CuDef*
G36*
G01*
X162950001Y-97875000D02*
X162049999Y-97875000D01*
G75*
G02*
X161800000Y-97625001I0J249999D01*
G01*
X161800000Y-96974999D01*
G75*
G02*
X162049999Y-96725000I249999J0D01*
G01*
X162950001Y-96725000D01*
G75*
G02*
X163200000Y-96974999I0J-249999D01*
G01*
X163200000Y-97625001D01*
G75*
G02*
X162950001Y-97875000I-249999J0D01*
G01*
G37*
G04 #@! TD.AperFunction*
G04 #@! TA.AperFunction,SMDPad,CuDef*
G36*
G01*
X159049999Y-95975000D02*
X159950001Y-95975000D01*
G75*
G02*
X160200000Y-96224999I0J-249999D01*
G01*
X160200000Y-96875001D01*
G75*
G02*
X159950001Y-97125000I-249999J0D01*
G01*
X159049999Y-97125000D01*
G75*
G02*
X158800000Y-96875001I0J249999D01*
G01*
X158800000Y-96224999D01*
G75*
G02*
X159049999Y-95975000I249999J0D01*
G01*
G37*
G04 #@! TD.AperFunction*
G04 #@! TA.AperFunction,SMDPad,CuDef*
G36*
G01*
X159049999Y-93925000D02*
X159950001Y-93925000D01*
G75*
G02*
X160200000Y-94174999I0J-249999D01*
G01*
X160200000Y-94825001D01*
G75*
G02*
X159950001Y-95075000I-249999J0D01*
G01*
X159049999Y-95075000D01*
G75*
G02*
X158800000Y-94825001I0J249999D01*
G01*
X158800000Y-94174999D01*
G75*
G02*
X159049999Y-93925000I249999J0D01*
G01*
G37*
G04 #@! TD.AperFunction*
G04 #@! TA.AperFunction,SMDPad,CuDef*
G36*
G01*
X169450001Y-111575000D02*
X168549999Y-111575000D01*
G75*
G02*
X168300000Y-111325001I0J249999D01*
G01*
X168300000Y-110674999D01*
G75*
G02*
X168549999Y-110425000I249999J0D01*
G01*
X169450001Y-110425000D01*
G75*
G02*
X169700000Y-110674999I0J-249999D01*
G01*
X169700000Y-111325001D01*
G75*
G02*
X169450001Y-111575000I-249999J0D01*
G01*
G37*
G04 #@! TD.AperFunction*
G04 #@! TA.AperFunction,SMDPad,CuDef*
G36*
G01*
X169450001Y-109525000D02*
X168549999Y-109525000D01*
G75*
G02*
X168300000Y-109275001I0J249999D01*
G01*
X168300000Y-108624999D01*
G75*
G02*
X168549999Y-108375000I249999J0D01*
G01*
X169450001Y-108375000D01*
G75*
G02*
X169700000Y-108624999I0J-249999D01*
G01*
X169700000Y-109275001D01*
G75*
G02*
X169450001Y-109525000I-249999J0D01*
G01*
G37*
G04 #@! TD.AperFunction*
G04 #@! TA.AperFunction,SMDPad,CuDef*
G36*
G01*
X165550001Y-97875000D02*
X164649999Y-97875000D01*
G75*
G02*
X164400000Y-97625001I0J249999D01*
G01*
X164400000Y-96974999D01*
G75*
G02*
X164649999Y-96725000I249999J0D01*
G01*
X165550001Y-96725000D01*
G75*
G02*
X165800000Y-96974999I0J-249999D01*
G01*
X165800000Y-97625001D01*
G75*
G02*
X165550001Y-97875000I-249999J0D01*
G01*
G37*
G04 #@! TD.AperFunction*
G04 #@! TA.AperFunction,SMDPad,CuDef*
G36*
G01*
X165550001Y-99925000D02*
X164649999Y-99925000D01*
G75*
G02*
X164400000Y-99675001I0J249999D01*
G01*
X164400000Y-99024999D01*
G75*
G02*
X164649999Y-98775000I249999J0D01*
G01*
X165550001Y-98775000D01*
G75*
G02*
X165800000Y-99024999I0J-249999D01*
G01*
X165800000Y-99675001D01*
G75*
G02*
X165550001Y-99925000I-249999J0D01*
G01*
G37*
G04 #@! TD.AperFunction*
D15*
X173000000Y-110000000D03*
D16*
X181175000Y-107975000D03*
X182125000Y-107975000D03*
X183075000Y-107975000D03*
X183075000Y-105275000D03*
X181175000Y-105275000D03*
D17*
X173876000Y-82830000D03*
X173876000Y-84100000D03*
X173876000Y-85370000D03*
X173876000Y-86640000D03*
X179300000Y-86640000D03*
X179300000Y-85370000D03*
X179300000Y-84100000D03*
X179300000Y-82830000D03*
D18*
X176588000Y-84735000D03*
D19*
X180700000Y-78400000D03*
X180700000Y-79350000D03*
X180700000Y-80300000D03*
X183400000Y-80300000D03*
X183400000Y-78400000D03*
D16*
X159675000Y-89525000D03*
X161575000Y-89525000D03*
X161575000Y-92225000D03*
X160625000Y-92225000D03*
X159675000Y-92225000D03*
D20*
X164270000Y-120800000D03*
X161730000Y-120800000D03*
X161730000Y-113200000D03*
X164270000Y-113200000D03*
D21*
X176590000Y-85430000D03*
X175890000Y-84730000D03*
X176590000Y-84040000D03*
X177280000Y-84720000D03*
D22*
X174399994Y-80300000D03*
X172629974Y-82830000D03*
X169000000Y-107600000D03*
D21*
X182125000Y-109175000D03*
X165100000Y-96300000D03*
X160714995Y-93374151D03*
X167900000Y-87300000D03*
X167900000Y-89700000D03*
X179250000Y-79350000D03*
X192700000Y-79700000D03*
X196700000Y-77300000D03*
D22*
X158000000Y-118300000D03*
X179600000Y-109800002D03*
X179600000Y-111149998D03*
X184200000Y-103200000D03*
X184200000Y-102150000D03*
D21*
X184900002Y-89200000D03*
X184900002Y-88200000D03*
X185050000Y-75100000D03*
X186200000Y-75100000D03*
X160099994Y-84250000D03*
X158900000Y-84250000D03*
X167999994Y-100500000D03*
X167999992Y-99450000D03*
X167999994Y-101500000D03*
D23*
X175600000Y-80300000D02*
X174399994Y-80300000D01*
X173876000Y-82830000D02*
X172629974Y-82830000D01*
X169000000Y-108950000D02*
X169000000Y-107600000D01*
X182125000Y-107975000D02*
X182125000Y-109175000D01*
X165100000Y-97300000D02*
X165100000Y-96300000D01*
X160749999Y-92549999D02*
X160749999Y-93349999D01*
X160625000Y-92425000D02*
X160749999Y-92549999D01*
X160625000Y-92225000D02*
X160625000Y-92425000D01*
X160725847Y-93374151D02*
X160714995Y-93374151D01*
X160749999Y-93349999D02*
X160725847Y-93374151D01*
D24*
X169300000Y-87300000D02*
X167900000Y-87300000D01*
X169300000Y-89700000D02*
X167900000Y-89700000D01*
X180700000Y-79350000D02*
X179250000Y-79350000D01*
X191350000Y-79700000D02*
X192700000Y-79700000D01*
X195350000Y-77300000D02*
X196700000Y-77300000D01*
D23*
X158000000Y-119350000D02*
X158000000Y-118300000D01*
X180299998Y-110500000D02*
X179600000Y-109800002D01*
X179650000Y-111149998D02*
X179600000Y-111149998D01*
X181000000Y-110500000D02*
X180299998Y-110500000D01*
X180299998Y-110500000D02*
X179650000Y-111149998D01*
X183050000Y-102750000D02*
X183750000Y-102750000D01*
X183750000Y-102750000D02*
X184200000Y-103200000D01*
X183600000Y-102750000D02*
X184200000Y-102150000D01*
X183050000Y-102750000D02*
X183600000Y-102750000D01*
X184400002Y-88700000D02*
X184900002Y-89200000D01*
X184400002Y-88700000D02*
X184900002Y-88200000D01*
X183825000Y-88700000D02*
X184400002Y-88700000D01*
X185600000Y-75650000D02*
X185050000Y-75100000D01*
X185600000Y-76350000D02*
X185600000Y-75650000D01*
X185600000Y-75700000D02*
X186200000Y-75100000D01*
X185600000Y-76350000D02*
X185600000Y-75700000D01*
X159500000Y-85450000D02*
X159500000Y-84849994D01*
X159500000Y-84849994D02*
X160099994Y-84250000D01*
X159500000Y-84850000D02*
X158900000Y-84250000D01*
X159500000Y-85450000D02*
X159500000Y-84850000D01*
X170400000Y-100500000D02*
X169350000Y-99450000D01*
X169350000Y-99450000D02*
X167999992Y-99450000D01*
X170400000Y-100500000D02*
X167999994Y-100500000D01*
X170400000Y-100500000D02*
X169450000Y-101450000D01*
X169400000Y-101500000D02*
X169450000Y-101450000D01*
X167999994Y-101500000D02*
X169400000Y-101500000D01*
D24*
X173876000Y-87901000D02*
X174975000Y-89000000D01*
X173876000Y-86640000D02*
X173876000Y-87901000D01*
X172010000Y-86640000D02*
X171350000Y-87300000D01*
X173876000Y-86640000D02*
X172010000Y-86640000D01*
X171350000Y-87300000D02*
X171350000Y-89700000D01*
X183400000Y-78400000D02*
X185600000Y-78400000D01*
X173876000Y-85370000D02*
X169470000Y-85370000D01*
X166080000Y-81980000D02*
X166080000Y-73000000D01*
X169470000Y-85370000D02*
X166080000Y-81980000D01*
X173876000Y-84100000D02*
X170800000Y-84100000D01*
X168620000Y-81920000D02*
X168620000Y-73000000D01*
X170800000Y-84100000D02*
X168620000Y-81920000D01*
X180700000Y-78400000D02*
X173400000Y-78400000D01*
X171160000Y-76160000D02*
X171160000Y-73000000D01*
X173400000Y-78400000D02*
X171160000Y-76160000D01*
X181680000Y-78400000D02*
X182680000Y-79400000D01*
X180700000Y-78400000D02*
X181680000Y-78400000D01*
X185400000Y-79400000D02*
X185800000Y-79400000D01*
X182680000Y-79400000D02*
X185400000Y-79400000D01*
X186600000Y-79400000D02*
X185400000Y-79400000D01*
X188700000Y-77300000D02*
X186600000Y-79400000D01*
X189300000Y-77300000D02*
X188700000Y-77300000D01*
X162000000Y-89950000D02*
X161575000Y-89525000D01*
X164000000Y-89950000D02*
X162000000Y-89950000D01*
D25*
X161575000Y-89525000D02*
X161575000Y-85625000D01*
X163540000Y-83660000D02*
X163540000Y-73000000D01*
X161575000Y-85625000D02*
X163540000Y-83660000D01*
D24*
X178862500Y-84100000D02*
X177650000Y-82887500D01*
X177650000Y-82887500D02*
X177650000Y-80300000D01*
X179300000Y-84100000D02*
X178862500Y-84100000D01*
X180700000Y-80300000D02*
X177650000Y-80300000D01*
X191350000Y-77300000D02*
X193300000Y-77300000D01*
X191350000Y-77650000D02*
X189300000Y-79700000D01*
X191350000Y-77300000D02*
X191350000Y-77650000D01*
X188700000Y-80300000D02*
X183400000Y-80300000D01*
X189300000Y-79700000D02*
X188700000Y-80300000D01*
X159500000Y-92400000D02*
X159675000Y-92225000D01*
X159500000Y-94500000D02*
X159500000Y-92400000D01*
X159675000Y-91439998D02*
X159675000Y-92225000D01*
X160019999Y-91094999D02*
X159675000Y-91439998D01*
X163094999Y-91094999D02*
X160019999Y-91094999D01*
X164000000Y-92000000D02*
X163094999Y-91094999D01*
X161575000Y-92425000D02*
X161575000Y-92225000D01*
X162500000Y-93350000D02*
X161575000Y-92425000D01*
X162500000Y-97300000D02*
X162500000Y-93350000D01*
X163050000Y-97300000D02*
X165100000Y-99350000D01*
X162500000Y-97300000D02*
X163050000Y-97300000D01*
X166800000Y-113200000D02*
X169000000Y-111000000D01*
X164270000Y-113200000D02*
X166800000Y-113200000D01*
X172000000Y-111000000D02*
X173000000Y-110000000D01*
X169000000Y-111000000D02*
X172000000Y-111000000D01*
X166500000Y-108500000D02*
X169000000Y-111000000D01*
X163800000Y-101600000D02*
X166500000Y-104300000D01*
X166500000Y-104300000D02*
X166500000Y-108500000D01*
X163800000Y-99026454D02*
X163800000Y-101600000D01*
X163078202Y-98304656D02*
X163800000Y-99026454D01*
X161254656Y-98304656D02*
X163078202Y-98304656D01*
X159500000Y-96550000D02*
X161254656Y-98304656D01*
X161130001Y-121399999D02*
X161730000Y-120800000D01*
X158000000Y-121400000D02*
X161130001Y-121399999D01*
D26*
G36*
X188873000Y-113623000D02*
G01*
X180527000Y-113623000D01*
X180527000Y-111559060D01*
X180552322Y-111566741D01*
X180674999Y-111578824D01*
X181325001Y-111578824D01*
X181447678Y-111566741D01*
X181565641Y-111530958D01*
X181674356Y-111472848D01*
X181769646Y-111394646D01*
X181847848Y-111299356D01*
X181905958Y-111190641D01*
X181941741Y-111072678D01*
X181953824Y-110950001D01*
X181953824Y-110049999D01*
X181942087Y-109930839D01*
X182048472Y-109952000D01*
X182201528Y-109952000D01*
X182351643Y-109922141D01*
X182493048Y-109863569D01*
X182620309Y-109778536D01*
X182728536Y-109670309D01*
X182813569Y-109543048D01*
X182872141Y-109401643D01*
X182902000Y-109251528D01*
X182902000Y-109098472D01*
X182872141Y-108948357D01*
X182821760Y-108826726D01*
X182828824Y-108755000D01*
X182828824Y-108000000D01*
X185671418Y-108000000D01*
X185677732Y-108064103D01*
X185696430Y-108125743D01*
X185726794Y-108182550D01*
X185767657Y-108232343D01*
X185817450Y-108273206D01*
X185874257Y-108303570D01*
X185935897Y-108322268D01*
X186000000Y-108328582D01*
X186791250Y-108327000D01*
X186873000Y-108245250D01*
X186873000Y-106127000D01*
X187127000Y-106127000D01*
X187127000Y-108245250D01*
X187208750Y-108327000D01*
X188000000Y-108328582D01*
X188064103Y-108322268D01*
X188125743Y-108303570D01*
X188182550Y-108273206D01*
X188232343Y-108232343D01*
X188273206Y-108182550D01*
X188303570Y-108125743D01*
X188322268Y-108064103D01*
X188328582Y-108000000D01*
X188327000Y-106208750D01*
X188245250Y-106127000D01*
X187127000Y-106127000D01*
X186873000Y-106127000D01*
X185754750Y-106127000D01*
X185673000Y-106208750D01*
X185671418Y-108000000D01*
X182828824Y-108000000D01*
X182828824Y-107195000D01*
X182821545Y-107121095D01*
X182799988Y-107050030D01*
X182764981Y-106984537D01*
X182717869Y-106927131D01*
X182660463Y-106880019D01*
X182594970Y-106845012D01*
X182523905Y-106823455D01*
X182450000Y-106816176D01*
X181800000Y-106816176D01*
X181726095Y-106823455D01*
X181655030Y-106845012D01*
X181589537Y-106880019D01*
X181532131Y-106927131D01*
X181485019Y-106984537D01*
X181450012Y-107050030D01*
X181428455Y-107121095D01*
X181421176Y-107195000D01*
X181421176Y-108755000D01*
X181428240Y-108826726D01*
X181377859Y-108948357D01*
X181348000Y-109098472D01*
X181348000Y-109251528D01*
X181377859Y-109401643D01*
X181388542Y-109427434D01*
X181325001Y-109421176D01*
X180674999Y-109421176D01*
X180552322Y-109433259D01*
X180527000Y-109440940D01*
X180527000Y-106527000D01*
X183900000Y-106527000D01*
X183924776Y-106524560D01*
X183948601Y-106517333D01*
X183970557Y-106505597D01*
X183989803Y-106489803D01*
X184005597Y-106470557D01*
X184017333Y-106448601D01*
X184024560Y-106424776D01*
X184027000Y-106400000D01*
X184027000Y-104355021D01*
X184333569Y-104067613D01*
X184455811Y-104043297D01*
X184560339Y-104000000D01*
X185671418Y-104000000D01*
X185673000Y-105791250D01*
X185754750Y-105873000D01*
X186873000Y-105873000D01*
X186873000Y-103754750D01*
X187127000Y-103754750D01*
X187127000Y-105873000D01*
X188245250Y-105873000D01*
X188327000Y-105791250D01*
X188328582Y-104000000D01*
X188322268Y-103935897D01*
X188303570Y-103874257D01*
X188273206Y-103817450D01*
X188232343Y-103767657D01*
X188182550Y-103726794D01*
X188125743Y-103696430D01*
X188064103Y-103677732D01*
X188000000Y-103671418D01*
X187208750Y-103673000D01*
X187127000Y-103754750D01*
X186873000Y-103754750D01*
X186791250Y-103673000D01*
X186000000Y-103671418D01*
X185935897Y-103677732D01*
X185874257Y-103696430D01*
X185817450Y-103726794D01*
X185767657Y-103767657D01*
X185726794Y-103817450D01*
X185696430Y-103874257D01*
X185677732Y-103935897D01*
X185671418Y-104000000D01*
X184560339Y-104000000D01*
X184615415Y-103977187D01*
X184759055Y-103881210D01*
X184881210Y-103759055D01*
X184977187Y-103615415D01*
X185043297Y-103455811D01*
X185056395Y-103389963D01*
X185550222Y-102927000D01*
X188873000Y-102927000D01*
X188873000Y-113623000D01*
G37*
X188873000Y-113623000D02*
X180527000Y-113623000D01*
X180527000Y-111559060D01*
X180552322Y-111566741D01*
X180674999Y-111578824D01*
X181325001Y-111578824D01*
X181447678Y-111566741D01*
X181565641Y-111530958D01*
X181674356Y-111472848D01*
X181769646Y-111394646D01*
X181847848Y-111299356D01*
X181905958Y-111190641D01*
X181941741Y-111072678D01*
X181953824Y-110950001D01*
X181953824Y-110049999D01*
X181942087Y-109930839D01*
X182048472Y-109952000D01*
X182201528Y-109952000D01*
X182351643Y-109922141D01*
X182493048Y-109863569D01*
X182620309Y-109778536D01*
X182728536Y-109670309D01*
X182813569Y-109543048D01*
X182872141Y-109401643D01*
X182902000Y-109251528D01*
X182902000Y-109098472D01*
X182872141Y-108948357D01*
X182821760Y-108826726D01*
X182828824Y-108755000D01*
X182828824Y-108000000D01*
X185671418Y-108000000D01*
X185677732Y-108064103D01*
X185696430Y-108125743D01*
X185726794Y-108182550D01*
X185767657Y-108232343D01*
X185817450Y-108273206D01*
X185874257Y-108303570D01*
X185935897Y-108322268D01*
X186000000Y-108328582D01*
X186791250Y-108327000D01*
X186873000Y-108245250D01*
X186873000Y-106127000D01*
X187127000Y-106127000D01*
X187127000Y-108245250D01*
X187208750Y-108327000D01*
X188000000Y-108328582D01*
X188064103Y-108322268D01*
X188125743Y-108303570D01*
X188182550Y-108273206D01*
X188232343Y-108232343D01*
X188273206Y-108182550D01*
X188303570Y-108125743D01*
X188322268Y-108064103D01*
X188328582Y-108000000D01*
X188327000Y-106208750D01*
X188245250Y-106127000D01*
X187127000Y-106127000D01*
X186873000Y-106127000D01*
X185754750Y-106127000D01*
X185673000Y-106208750D01*
X185671418Y-108000000D01*
X182828824Y-108000000D01*
X182828824Y-107195000D01*
X182821545Y-107121095D01*
X182799988Y-107050030D01*
X182764981Y-106984537D01*
X182717869Y-106927131D01*
X182660463Y-106880019D01*
X182594970Y-106845012D01*
X182523905Y-106823455D01*
X182450000Y-106816176D01*
X181800000Y-106816176D01*
X181726095Y-106823455D01*
X181655030Y-106845012D01*
X181589537Y-106880019D01*
X181532131Y-106927131D01*
X181485019Y-106984537D01*
X181450012Y-107050030D01*
X181428455Y-107121095D01*
X181421176Y-107195000D01*
X181421176Y-108755000D01*
X181428240Y-108826726D01*
X181377859Y-108948357D01*
X181348000Y-109098472D01*
X181348000Y-109251528D01*
X181377859Y-109401643D01*
X181388542Y-109427434D01*
X181325001Y-109421176D01*
X180674999Y-109421176D01*
X180552322Y-109433259D01*
X180527000Y-109440940D01*
X180527000Y-106527000D01*
X183900000Y-106527000D01*
X183924776Y-106524560D01*
X183948601Y-106517333D01*
X183970557Y-106505597D01*
X183989803Y-106489803D01*
X184005597Y-106470557D01*
X184017333Y-106448601D01*
X184024560Y-106424776D01*
X184027000Y-106400000D01*
X184027000Y-104355021D01*
X184333569Y-104067613D01*
X184455811Y-104043297D01*
X184560339Y-104000000D01*
X185671418Y-104000000D01*
X185673000Y-105791250D01*
X185754750Y-105873000D01*
X186873000Y-105873000D01*
X186873000Y-103754750D01*
X187127000Y-103754750D01*
X187127000Y-105873000D01*
X188245250Y-105873000D01*
X188327000Y-105791250D01*
X188328582Y-104000000D01*
X188322268Y-103935897D01*
X188303570Y-103874257D01*
X188273206Y-103817450D01*
X188232343Y-103767657D01*
X188182550Y-103726794D01*
X188125743Y-103696430D01*
X188064103Y-103677732D01*
X188000000Y-103671418D01*
X187208750Y-103673000D01*
X187127000Y-103754750D01*
X186873000Y-103754750D01*
X186791250Y-103673000D01*
X186000000Y-103671418D01*
X185935897Y-103677732D01*
X185874257Y-103696430D01*
X185817450Y-103726794D01*
X185767657Y-103767657D01*
X185726794Y-103817450D01*
X185696430Y-103874257D01*
X185677732Y-103935897D01*
X185671418Y-104000000D01*
X184560339Y-104000000D01*
X184615415Y-103977187D01*
X184759055Y-103881210D01*
X184881210Y-103759055D01*
X184977187Y-103615415D01*
X185043297Y-103455811D01*
X185056395Y-103389963D01*
X185550222Y-102927000D01*
X188873000Y-102927000D01*
X188873000Y-113623000D01*
G36*
X199573000Y-83873000D02*
G01*
X199176317Y-83873000D01*
X199178582Y-83850000D01*
X199177000Y-83208750D01*
X199095250Y-83127000D01*
X198127000Y-83127000D01*
X198127000Y-83147000D01*
X197873000Y-83147000D01*
X197873000Y-83127000D01*
X196904750Y-83127000D01*
X196823000Y-83208750D01*
X196821418Y-83850000D01*
X196823683Y-83873000D01*
X181852606Y-83873000D01*
X181289803Y-83310197D01*
X181270557Y-83294403D01*
X181248601Y-83282667D01*
X181224776Y-83275440D01*
X181200000Y-83273000D01*
X178710080Y-83273000D01*
X178427000Y-82989920D01*
X178427000Y-82427000D01*
X180300000Y-82427000D01*
X180324776Y-82424560D01*
X180348601Y-82417333D01*
X180370557Y-82405597D01*
X180389803Y-82389803D01*
X180629606Y-82150000D01*
X196821418Y-82150000D01*
X196823000Y-82791250D01*
X196904750Y-82873000D01*
X197873000Y-82873000D01*
X197873000Y-81904750D01*
X198127000Y-81904750D01*
X198127000Y-82873000D01*
X199095250Y-82873000D01*
X199177000Y-82791250D01*
X199178582Y-82150000D01*
X199172268Y-82085897D01*
X199153570Y-82024257D01*
X199123206Y-81967450D01*
X199082343Y-81917657D01*
X199032550Y-81876794D01*
X198975743Y-81846430D01*
X198914103Y-81827732D01*
X198850000Y-81821418D01*
X198208750Y-81823000D01*
X198127000Y-81904750D01*
X197873000Y-81904750D01*
X197791250Y-81823000D01*
X197150000Y-81821418D01*
X197085897Y-81827732D01*
X197024257Y-81846430D01*
X196967450Y-81876794D01*
X196917657Y-81917657D01*
X196876794Y-81967450D01*
X196846430Y-82024257D01*
X196827732Y-82085897D01*
X196821418Y-82150000D01*
X180629606Y-82150000D01*
X181452606Y-81327000D01*
X199573000Y-81327000D01*
X199573000Y-83873000D01*
G37*
X199573000Y-83873000D02*
X199176317Y-83873000D01*
X199178582Y-83850000D01*
X199177000Y-83208750D01*
X199095250Y-83127000D01*
X198127000Y-83127000D01*
X198127000Y-83147000D01*
X197873000Y-83147000D01*
X197873000Y-83127000D01*
X196904750Y-83127000D01*
X196823000Y-83208750D01*
X196821418Y-83850000D01*
X196823683Y-83873000D01*
X181852606Y-83873000D01*
X181289803Y-83310197D01*
X181270557Y-83294403D01*
X181248601Y-83282667D01*
X181224776Y-83275440D01*
X181200000Y-83273000D01*
X178710080Y-83273000D01*
X178427000Y-82989920D01*
X178427000Y-82427000D01*
X180300000Y-82427000D01*
X180324776Y-82424560D01*
X180348601Y-82417333D01*
X180370557Y-82405597D01*
X180389803Y-82389803D01*
X180629606Y-82150000D01*
X196821418Y-82150000D01*
X196823000Y-82791250D01*
X196904750Y-82873000D01*
X197873000Y-82873000D01*
X197873000Y-81904750D01*
X198127000Y-81904750D01*
X198127000Y-82873000D01*
X199095250Y-82873000D01*
X199177000Y-82791250D01*
X199178582Y-82150000D01*
X199172268Y-82085897D01*
X199153570Y-82024257D01*
X199123206Y-81967450D01*
X199082343Y-81917657D01*
X199032550Y-81876794D01*
X198975743Y-81846430D01*
X198914103Y-81827732D01*
X198850000Y-81821418D01*
X198208750Y-81823000D01*
X198127000Y-81904750D01*
X197873000Y-81904750D01*
X197791250Y-81823000D01*
X197150000Y-81821418D01*
X197085897Y-81827732D01*
X197024257Y-81846430D01*
X196967450Y-81876794D01*
X196917657Y-81917657D01*
X196876794Y-81967450D01*
X196846430Y-82024257D01*
X196827732Y-82085897D01*
X196821418Y-82150000D01*
X180629606Y-82150000D01*
X181452606Y-81327000D01*
X199573000Y-81327000D01*
X199573000Y-83873000D01*
G36*
X197280321Y-84608654D02*
G01*
X197112453Y-84766952D01*
X196978693Y-84954958D01*
X196884181Y-85165447D01*
X196864145Y-85231515D01*
X196912138Y-85413000D01*
X197873000Y-85413000D01*
X197873000Y-85393000D01*
X198127000Y-85393000D01*
X198127000Y-85413000D01*
X199087862Y-85413000D01*
X199135855Y-85231515D01*
X199115819Y-85165447D01*
X199021307Y-84954958D01*
X198887547Y-84766952D01*
X198719679Y-84608654D01*
X198589357Y-84527000D01*
X199644553Y-84527000D01*
X199576357Y-87073000D01*
X181602606Y-87073000D01*
X180378091Y-85848485D01*
X196864145Y-85848485D01*
X196884181Y-85914553D01*
X196978693Y-86125042D01*
X197112453Y-86313048D01*
X197280321Y-86471346D01*
X197475846Y-86593853D01*
X197691514Y-86675861D01*
X197873000Y-86628384D01*
X197873000Y-85667000D01*
X198127000Y-85667000D01*
X198127000Y-86628384D01*
X198308486Y-86675861D01*
X198524154Y-86593853D01*
X198719679Y-86471346D01*
X198887547Y-86313048D01*
X199021307Y-86125042D01*
X199115819Y-85914553D01*
X199135855Y-85848485D01*
X199087862Y-85667000D01*
X198127000Y-85667000D01*
X197873000Y-85667000D01*
X196912138Y-85667000D01*
X196864145Y-85848485D01*
X180378091Y-85848485D01*
X180339803Y-85810197D01*
X180320557Y-85794403D01*
X180298601Y-85782667D01*
X180274776Y-85775440D01*
X180250000Y-85773000D01*
X178427000Y-85773000D01*
X178427000Y-84927000D01*
X181450000Y-84927000D01*
X181474776Y-84924560D01*
X181498601Y-84917333D01*
X181520557Y-84905597D01*
X181534374Y-84894921D01*
X181948285Y-84527000D01*
X197410643Y-84527000D01*
X197280321Y-84608654D01*
G37*
X197280321Y-84608654D02*
X197112453Y-84766952D01*
X196978693Y-84954958D01*
X196884181Y-85165447D01*
X196864145Y-85231515D01*
X196912138Y-85413000D01*
X197873000Y-85413000D01*
X197873000Y-85393000D01*
X198127000Y-85393000D01*
X198127000Y-85413000D01*
X199087862Y-85413000D01*
X199135855Y-85231515D01*
X199115819Y-85165447D01*
X199021307Y-84954958D01*
X198887547Y-84766952D01*
X198719679Y-84608654D01*
X198589357Y-84527000D01*
X199644553Y-84527000D01*
X199576357Y-87073000D01*
X181602606Y-87073000D01*
X180378091Y-85848485D01*
X196864145Y-85848485D01*
X196884181Y-85914553D01*
X196978693Y-86125042D01*
X197112453Y-86313048D01*
X197280321Y-86471346D01*
X197475846Y-86593853D01*
X197691514Y-86675861D01*
X197873000Y-86628384D01*
X197873000Y-85667000D01*
X198127000Y-85667000D01*
X198127000Y-86628384D01*
X198308486Y-86675861D01*
X198524154Y-86593853D01*
X198719679Y-86471346D01*
X198887547Y-86313048D01*
X199021307Y-86125042D01*
X199115819Y-85914553D01*
X199135855Y-85848485D01*
X199087862Y-85667000D01*
X198127000Y-85667000D01*
X197873000Y-85667000D01*
X196912138Y-85667000D01*
X196864145Y-85848485D01*
X180378091Y-85848485D01*
X180339803Y-85810197D01*
X180320557Y-85794403D01*
X180298601Y-85782667D01*
X180274776Y-85775440D01*
X180250000Y-85773000D01*
X178427000Y-85773000D01*
X178427000Y-84927000D01*
X181450000Y-84927000D01*
X181474776Y-84924560D01*
X181498601Y-84917333D01*
X181520557Y-84905597D01*
X181534374Y-84894921D01*
X181948285Y-84527000D01*
X197410643Y-84527000D01*
X197280321Y-84608654D01*
G36*
X187273000Y-77947394D02*
G01*
X186619322Y-78601072D01*
X186545250Y-78527000D01*
X185727000Y-78527000D01*
X185727000Y-78547000D01*
X185473000Y-78547000D01*
X185473000Y-78527000D01*
X184654750Y-78527000D01*
X184573000Y-78608750D01*
X184571859Y-78873000D01*
X184471673Y-78873000D01*
X184483570Y-78850743D01*
X184502268Y-78789103D01*
X184508582Y-78725000D01*
X184507000Y-78608750D01*
X184425250Y-78527000D01*
X183527000Y-78527000D01*
X183527000Y-78547000D01*
X183273000Y-78547000D01*
X183273000Y-78527000D01*
X183253000Y-78527000D01*
X183253000Y-78273000D01*
X183273000Y-78273000D01*
X183273000Y-77829750D01*
X183527000Y-77829750D01*
X183527000Y-78273000D01*
X184425250Y-78273000D01*
X184507000Y-78191250D01*
X184508582Y-78075000D01*
X184502268Y-78010897D01*
X184483570Y-77949257D01*
X184453206Y-77892450D01*
X184412343Y-77842657D01*
X184390828Y-77825000D01*
X184571418Y-77825000D01*
X184573000Y-78191250D01*
X184654750Y-78273000D01*
X185473000Y-78273000D01*
X185473000Y-77579750D01*
X185727000Y-77579750D01*
X185727000Y-78273000D01*
X186545250Y-78273000D01*
X186627000Y-78191250D01*
X186628582Y-77825000D01*
X186622268Y-77760897D01*
X186603570Y-77699257D01*
X186573206Y-77642450D01*
X186532343Y-77592657D01*
X186482550Y-77551794D01*
X186425743Y-77521430D01*
X186364103Y-77502732D01*
X186300000Y-77496418D01*
X185808750Y-77498000D01*
X185727000Y-77579750D01*
X185473000Y-77579750D01*
X185391250Y-77498000D01*
X184900000Y-77496418D01*
X184835897Y-77502732D01*
X184774257Y-77521430D01*
X184717450Y-77551794D01*
X184667657Y-77592657D01*
X184626794Y-77642450D01*
X184596430Y-77699257D01*
X184577732Y-77760897D01*
X184571418Y-77825000D01*
X184390828Y-77825000D01*
X184362550Y-77801794D01*
X184305743Y-77771430D01*
X184244103Y-77752732D01*
X184180000Y-77746418D01*
X183608750Y-77748000D01*
X183527000Y-77829750D01*
X183273000Y-77829750D01*
X183191250Y-77748000D01*
X182620000Y-77746418D01*
X182555897Y-77752732D01*
X182494257Y-77771430D01*
X182437450Y-77801794D01*
X182387657Y-77842657D01*
X182346794Y-77892450D01*
X182327000Y-77929482D01*
X182327000Y-77700000D01*
X182324560Y-77675224D01*
X182317333Y-77651399D01*
X182305597Y-77629443D01*
X182289803Y-77610197D01*
X182270557Y-77594403D01*
X182248601Y-77582667D01*
X182224776Y-77575440D01*
X182200000Y-77573000D01*
X175627000Y-77573000D01*
X175627000Y-73329905D01*
X179073000Y-73329905D01*
X179073000Y-73670095D01*
X179139368Y-74003747D01*
X179269553Y-74318041D01*
X179458552Y-74600898D01*
X179699102Y-74841448D01*
X179981959Y-75030447D01*
X180296253Y-75160632D01*
X180629905Y-75227000D01*
X180970095Y-75227000D01*
X181303747Y-75160632D01*
X181618041Y-75030447D01*
X181628479Y-75023472D01*
X184273000Y-75023472D01*
X184273000Y-75176528D01*
X184302859Y-75326643D01*
X184361431Y-75468048D01*
X184446464Y-75595309D01*
X184554691Y-75703536D01*
X184597098Y-75731871D01*
X184569042Y-75784359D01*
X184533259Y-75902322D01*
X184521176Y-76024999D01*
X184521176Y-76675001D01*
X184533259Y-76797678D01*
X184569042Y-76915641D01*
X184627152Y-77024356D01*
X184705354Y-77119646D01*
X184800644Y-77197848D01*
X184909359Y-77255958D01*
X185027322Y-77291741D01*
X185149999Y-77303824D01*
X186050001Y-77303824D01*
X186172678Y-77291741D01*
X186290641Y-77255958D01*
X186399356Y-77197848D01*
X186494646Y-77119646D01*
X186572848Y-77024356D01*
X186630958Y-76915641D01*
X186666741Y-76797678D01*
X186678824Y-76675001D01*
X186678824Y-76024999D01*
X186666741Y-75902322D01*
X186630958Y-75784359D01*
X186616061Y-75756488D01*
X186695309Y-75703536D01*
X186803536Y-75595309D01*
X186888569Y-75468048D01*
X186947141Y-75326643D01*
X186977000Y-75176528D01*
X186977000Y-75023472D01*
X186947141Y-74873357D01*
X186888569Y-74731952D01*
X186803536Y-74604691D01*
X186695309Y-74496464D01*
X186568048Y-74411431D01*
X186426643Y-74352859D01*
X186276528Y-74323000D01*
X186123472Y-74323000D01*
X185973357Y-74352859D01*
X185831952Y-74411431D01*
X185704691Y-74496464D01*
X185625000Y-74576155D01*
X185545309Y-74496464D01*
X185418048Y-74411431D01*
X185276643Y-74352859D01*
X185126528Y-74323000D01*
X184973472Y-74323000D01*
X184823357Y-74352859D01*
X184681952Y-74411431D01*
X184554691Y-74496464D01*
X184446464Y-74604691D01*
X184361431Y-74731952D01*
X184302859Y-74873357D01*
X184273000Y-75023472D01*
X181628479Y-75023472D01*
X181900898Y-74841448D01*
X182141448Y-74600898D01*
X182330447Y-74318041D01*
X182460632Y-74003747D01*
X182527000Y-73670095D01*
X182527000Y-73329905D01*
X182460632Y-72996253D01*
X182330447Y-72681959D01*
X182141448Y-72399102D01*
X181900898Y-72158552D01*
X181618041Y-71969553D01*
X181303747Y-71839368D01*
X180970095Y-71773000D01*
X180629905Y-71773000D01*
X180296253Y-71839368D01*
X179981959Y-71969553D01*
X179699102Y-72158552D01*
X179458552Y-72399102D01*
X179269553Y-72681959D01*
X179139368Y-72996253D01*
X179073000Y-73329905D01*
X175627000Y-73329905D01*
X175627000Y-71200000D01*
X175624560Y-71175224D01*
X175617333Y-71151399D01*
X175605597Y-71129443D01*
X175589803Y-71110197D01*
X175570557Y-71094403D01*
X175548601Y-71082667D01*
X175524776Y-71075440D01*
X175500000Y-71073000D01*
X162300000Y-71073000D01*
X162275224Y-71075440D01*
X162251399Y-71082667D01*
X162229443Y-71094403D01*
X162210197Y-71110197D01*
X162194403Y-71129443D01*
X162182667Y-71151399D01*
X162175440Y-71175224D01*
X162173000Y-71200000D01*
X162173000Y-72093329D01*
X162172268Y-72085897D01*
X162153570Y-72024257D01*
X162123206Y-71967450D01*
X162082343Y-71917657D01*
X162032550Y-71876794D01*
X161975743Y-71846430D01*
X161914103Y-71827732D01*
X161850000Y-71821418D01*
X161208750Y-71823000D01*
X161127000Y-71904750D01*
X161127000Y-72873000D01*
X161147000Y-72873000D01*
X161147000Y-73127000D01*
X161127000Y-73127000D01*
X161127000Y-74095250D01*
X161208750Y-74177000D01*
X161850000Y-74178582D01*
X161914103Y-74172268D01*
X161975743Y-74153570D01*
X162032550Y-74123206D01*
X162082343Y-74082343D01*
X162123206Y-74032550D01*
X162153570Y-73975743D01*
X162172268Y-73914103D01*
X162173000Y-73906671D01*
X162173000Y-83147394D01*
X160847975Y-84472419D01*
X160876994Y-84326528D01*
X160876994Y-84173472D01*
X160847135Y-84023357D01*
X160788563Y-83881952D01*
X160703530Y-83754691D01*
X160595303Y-83646464D01*
X160468042Y-83561431D01*
X160326637Y-83502859D01*
X160176522Y-83473000D01*
X160023466Y-83473000D01*
X159873351Y-83502859D01*
X159731946Y-83561431D01*
X159604685Y-83646464D01*
X159499997Y-83751152D01*
X159395309Y-83646464D01*
X159268048Y-83561431D01*
X159126643Y-83502859D01*
X158976528Y-83473000D01*
X158823472Y-83473000D01*
X158673357Y-83502859D01*
X158531952Y-83561431D01*
X158404691Y-83646464D01*
X158296464Y-83754691D01*
X158211431Y-83881952D01*
X158152859Y-84023357D01*
X158123000Y-84173472D01*
X158123000Y-84326528D01*
X158152859Y-84476643D01*
X158211431Y-84618048D01*
X158296464Y-84745309D01*
X158404691Y-84853536D01*
X158465971Y-84894482D01*
X158433259Y-85002322D01*
X158421176Y-85124999D01*
X158421176Y-85775001D01*
X158433259Y-85897678D01*
X158469042Y-86015641D01*
X158527152Y-86124356D01*
X158605354Y-86219646D01*
X158700644Y-86297848D01*
X158809359Y-86355958D01*
X158927322Y-86391741D01*
X159049999Y-86403824D01*
X159950001Y-86403824D01*
X160072678Y-86391741D01*
X160190641Y-86355958D01*
X160299356Y-86297848D01*
X160394646Y-86219646D01*
X160472848Y-86124356D01*
X160530958Y-86015641D01*
X160566741Y-85897678D01*
X160573000Y-85834131D01*
X160573000Y-90473000D01*
X160280983Y-90473000D01*
X160303570Y-90430743D01*
X160322268Y-90369103D01*
X160328582Y-90305000D01*
X160327000Y-89733750D01*
X160245250Y-89652000D01*
X159802000Y-89652000D01*
X159802000Y-89672000D01*
X159548000Y-89672000D01*
X159548000Y-89652000D01*
X159104750Y-89652000D01*
X159023000Y-89733750D01*
X159021418Y-90305000D01*
X159027732Y-90369103D01*
X159046430Y-90430743D01*
X159069017Y-90473000D01*
X158500000Y-90473000D01*
X158475224Y-90475440D01*
X158451399Y-90482667D01*
X158429443Y-90494403D01*
X158410197Y-90510197D01*
X158394403Y-90529443D01*
X158382667Y-90551399D01*
X158375440Y-90575224D01*
X158373002Y-90600794D01*
X158423002Y-98600794D01*
X158425598Y-98625554D01*
X158432973Y-98649333D01*
X158444846Y-98671216D01*
X158460760Y-98690362D01*
X158480104Y-98706036D01*
X158502133Y-98717634D01*
X158526002Y-98724712D01*
X158550000Y-98727000D01*
X161032922Y-98727000D01*
X161071233Y-98747478D01*
X161117231Y-98761431D01*
X161161147Y-98774753D01*
X161169994Y-98775624D01*
X161231233Y-98781656D01*
X161231240Y-98781656D01*
X161254655Y-98783962D01*
X161278070Y-98781656D01*
X161471447Y-98781656D01*
X161473000Y-99141250D01*
X161554750Y-99223000D01*
X162373000Y-99223000D01*
X162373000Y-99203000D01*
X162627000Y-99203000D01*
X162627000Y-99223000D01*
X162647000Y-99223000D01*
X162647000Y-99477000D01*
X162627000Y-99477000D01*
X162627000Y-100170250D01*
X162708750Y-100252000D01*
X163173000Y-100253495D01*
X163173000Y-100332032D01*
X158429553Y-103494330D01*
X158410291Y-103510104D01*
X158394477Y-103529332D01*
X158382718Y-103551276D01*
X158375466Y-103575093D01*
X158373000Y-103600000D01*
X158373000Y-108300000D01*
X158375440Y-108324776D01*
X158382667Y-108348601D01*
X158394403Y-108370557D01*
X158410197Y-108389803D01*
X162873000Y-112852606D01*
X162873000Y-117500000D01*
X162875440Y-117524776D01*
X162882667Y-117548601D01*
X162894403Y-117570557D01*
X162910197Y-117589803D01*
X165373000Y-120052606D01*
X165373000Y-121973000D01*
X163127000Y-121973000D01*
X163127000Y-121483907D01*
X163765698Y-121483907D01*
X163830344Y-121621199D01*
X163999001Y-121691193D01*
X164178071Y-121726939D01*
X164360674Y-121727062D01*
X164539793Y-121691559D01*
X164708543Y-121621794D01*
X164709656Y-121621199D01*
X164774302Y-121483907D01*
X164270000Y-120979605D01*
X163765698Y-121483907D01*
X163127000Y-121483907D01*
X163127000Y-120890674D01*
X163342938Y-120890674D01*
X163378441Y-121069793D01*
X163448206Y-121238543D01*
X163448801Y-121239656D01*
X163586093Y-121304302D01*
X164090395Y-120800000D01*
X164449605Y-120800000D01*
X164953907Y-121304302D01*
X165091199Y-121239656D01*
X165161193Y-121070999D01*
X165196939Y-120891929D01*
X165197062Y-120709326D01*
X165161559Y-120530207D01*
X165091794Y-120361457D01*
X165091199Y-120360344D01*
X164953907Y-120295698D01*
X164449605Y-120800000D01*
X164090395Y-120800000D01*
X163586093Y-120295698D01*
X163448801Y-120360344D01*
X163378807Y-120529001D01*
X163343061Y-120708071D01*
X163342938Y-120890674D01*
X163127000Y-120890674D01*
X163127000Y-120116093D01*
X163765698Y-120116093D01*
X164270000Y-120620395D01*
X164774302Y-120116093D01*
X164709656Y-119978801D01*
X164540999Y-119908807D01*
X164361929Y-119873061D01*
X164179326Y-119872938D01*
X164000207Y-119908441D01*
X163831457Y-119978206D01*
X163830344Y-119978801D01*
X163765698Y-120116093D01*
X163127000Y-120116093D01*
X163127000Y-119800000D01*
X163124560Y-119775224D01*
X163117333Y-119751399D01*
X163105597Y-119729443D01*
X163089803Y-119710197D01*
X160627000Y-117247394D01*
X160627000Y-115500000D01*
X160624560Y-115475224D01*
X160617333Y-115451399D01*
X160605597Y-115429443D01*
X160589803Y-115410197D01*
X159063513Y-113883907D01*
X161225698Y-113883907D01*
X161290344Y-114021199D01*
X161459001Y-114091193D01*
X161638071Y-114126939D01*
X161820674Y-114127062D01*
X161999793Y-114091559D01*
X162168543Y-114021794D01*
X162169656Y-114021199D01*
X162234302Y-113883907D01*
X161730000Y-113379605D01*
X161225698Y-113883907D01*
X159063513Y-113883907D01*
X158470280Y-113290674D01*
X160802938Y-113290674D01*
X160838441Y-113469793D01*
X160908206Y-113638543D01*
X160908801Y-113639656D01*
X161046093Y-113704302D01*
X161550395Y-113200000D01*
X161909605Y-113200000D01*
X162413907Y-113704302D01*
X162551199Y-113639656D01*
X162621193Y-113470999D01*
X162656939Y-113291929D01*
X162657062Y-113109326D01*
X162621559Y-112930207D01*
X162551794Y-112761457D01*
X162551199Y-112760344D01*
X162413907Y-112695698D01*
X161909605Y-113200000D01*
X161550395Y-113200000D01*
X161046093Y-112695698D01*
X160908801Y-112760344D01*
X160838807Y-112929001D01*
X160803061Y-113108071D01*
X160802938Y-113290674D01*
X158470280Y-113290674D01*
X157695699Y-112516093D01*
X161225698Y-112516093D01*
X161730000Y-113020395D01*
X162234302Y-112516093D01*
X162169656Y-112378801D01*
X162000999Y-112308807D01*
X161821929Y-112273061D01*
X161639326Y-112272938D01*
X161460207Y-112308441D01*
X161291457Y-112378206D01*
X161290344Y-112378801D01*
X161225698Y-112516093D01*
X157695699Y-112516093D01*
X156377000Y-111197394D01*
X156377000Y-99925000D01*
X161471418Y-99925000D01*
X161477732Y-99989103D01*
X161496430Y-100050743D01*
X161526794Y-100107550D01*
X161567657Y-100157343D01*
X161617450Y-100198206D01*
X161674257Y-100228570D01*
X161735897Y-100247268D01*
X161800000Y-100253582D01*
X162291250Y-100252000D01*
X162373000Y-100170250D01*
X162373000Y-99477000D01*
X161554750Y-99477000D01*
X161473000Y-99558750D01*
X161471418Y-99925000D01*
X156377000Y-99925000D01*
X156377000Y-88745000D01*
X159021418Y-88745000D01*
X159023000Y-89316250D01*
X159104750Y-89398000D01*
X159548000Y-89398000D01*
X159548000Y-88499750D01*
X159802000Y-88499750D01*
X159802000Y-89398000D01*
X160245250Y-89398000D01*
X160327000Y-89316250D01*
X160328582Y-88745000D01*
X160322268Y-88680897D01*
X160303570Y-88619257D01*
X160273206Y-88562450D01*
X160232343Y-88512657D01*
X160182550Y-88471794D01*
X160125743Y-88441430D01*
X160064103Y-88422732D01*
X160000000Y-88416418D01*
X159883750Y-88418000D01*
X159802000Y-88499750D01*
X159548000Y-88499750D01*
X159466250Y-88418000D01*
X159350000Y-88416418D01*
X159285897Y-88422732D01*
X159224257Y-88441430D01*
X159167450Y-88471794D01*
X159117657Y-88512657D01*
X159076794Y-88562450D01*
X159046430Y-88619257D01*
X159027732Y-88680897D01*
X159021418Y-88745000D01*
X156377000Y-88745000D01*
X156377000Y-88075000D01*
X158471418Y-88075000D01*
X158477732Y-88139103D01*
X158496430Y-88200743D01*
X158526794Y-88257550D01*
X158567657Y-88307343D01*
X158617450Y-88348206D01*
X158674257Y-88378570D01*
X158735897Y-88397268D01*
X158800000Y-88403582D01*
X159291250Y-88402000D01*
X159373000Y-88320250D01*
X159373000Y-87627000D01*
X159627000Y-87627000D01*
X159627000Y-88320250D01*
X159708750Y-88402000D01*
X160200000Y-88403582D01*
X160264103Y-88397268D01*
X160325743Y-88378570D01*
X160382550Y-88348206D01*
X160432343Y-88307343D01*
X160473206Y-88257550D01*
X160503570Y-88200743D01*
X160522268Y-88139103D01*
X160528582Y-88075000D01*
X160527000Y-87708750D01*
X160445250Y-87627000D01*
X159627000Y-87627000D01*
X159373000Y-87627000D01*
X158554750Y-87627000D01*
X158473000Y-87708750D01*
X158471418Y-88075000D01*
X156377000Y-88075000D01*
X156377000Y-86925000D01*
X158471418Y-86925000D01*
X158473000Y-87291250D01*
X158554750Y-87373000D01*
X159373000Y-87373000D01*
X159373000Y-86679750D01*
X159627000Y-86679750D01*
X159627000Y-87373000D01*
X160445250Y-87373000D01*
X160527000Y-87291250D01*
X160528582Y-86925000D01*
X160522268Y-86860897D01*
X160503570Y-86799257D01*
X160473206Y-86742450D01*
X160432343Y-86692657D01*
X160382550Y-86651794D01*
X160325743Y-86621430D01*
X160264103Y-86602732D01*
X160200000Y-86596418D01*
X159708750Y-86598000D01*
X159627000Y-86679750D01*
X159373000Y-86679750D01*
X159291250Y-86598000D01*
X158800000Y-86596418D01*
X158735897Y-86602732D01*
X158674257Y-86621430D01*
X158617450Y-86651794D01*
X158567657Y-86692657D01*
X158526794Y-86742450D01*
X158496430Y-86799257D01*
X158477732Y-86860897D01*
X158471418Y-86925000D01*
X156377000Y-86925000D01*
X156377000Y-73850000D01*
X159821418Y-73850000D01*
X159827732Y-73914103D01*
X159846430Y-73975743D01*
X159876794Y-74032550D01*
X159917657Y-74082343D01*
X159967450Y-74123206D01*
X160024257Y-74153570D01*
X160085897Y-74172268D01*
X160150000Y-74178582D01*
X160791250Y-74177000D01*
X160873000Y-74095250D01*
X160873000Y-73127000D01*
X159904750Y-73127000D01*
X159823000Y-73208750D01*
X159821418Y-73850000D01*
X156377000Y-73850000D01*
X156377000Y-72150000D01*
X159821418Y-72150000D01*
X159823000Y-72791250D01*
X159904750Y-72873000D01*
X160873000Y-72873000D01*
X160873000Y-71904750D01*
X160791250Y-71823000D01*
X160150000Y-71821418D01*
X160085897Y-71827732D01*
X160024257Y-71846430D01*
X159967450Y-71876794D01*
X159917657Y-71917657D01*
X159876794Y-71967450D01*
X159846430Y-72024257D01*
X159827732Y-72085897D01*
X159821418Y-72150000D01*
X156377000Y-72150000D01*
X156377000Y-72018442D01*
X156409684Y-71685109D01*
X156501133Y-71382213D01*
X156649676Y-71102845D01*
X156849651Y-70857652D01*
X157093438Y-70655973D01*
X157371764Y-70505483D01*
X157674013Y-70411921D01*
X158006263Y-70377000D01*
X187273000Y-70377000D01*
X187273000Y-77947394D01*
G37*
X187273000Y-77947394D02*
X186619322Y-78601072D01*
X186545250Y-78527000D01*
X185727000Y-78527000D01*
X185727000Y-78547000D01*
X185473000Y-78547000D01*
X185473000Y-78527000D01*
X184654750Y-78527000D01*
X184573000Y-78608750D01*
X184571859Y-78873000D01*
X184471673Y-78873000D01*
X184483570Y-78850743D01*
X184502268Y-78789103D01*
X184508582Y-78725000D01*
X184507000Y-78608750D01*
X184425250Y-78527000D01*
X183527000Y-78527000D01*
X183527000Y-78547000D01*
X183273000Y-78547000D01*
X183273000Y-78527000D01*
X183253000Y-78527000D01*
X183253000Y-78273000D01*
X183273000Y-78273000D01*
X183273000Y-77829750D01*
X183527000Y-77829750D01*
X183527000Y-78273000D01*
X184425250Y-78273000D01*
X184507000Y-78191250D01*
X184508582Y-78075000D01*
X184502268Y-78010897D01*
X184483570Y-77949257D01*
X184453206Y-77892450D01*
X184412343Y-77842657D01*
X184390828Y-77825000D01*
X184571418Y-77825000D01*
X184573000Y-78191250D01*
X184654750Y-78273000D01*
X185473000Y-78273000D01*
X185473000Y-77579750D01*
X185727000Y-77579750D01*
X185727000Y-78273000D01*
X186545250Y-78273000D01*
X186627000Y-78191250D01*
X186628582Y-77825000D01*
X186622268Y-77760897D01*
X186603570Y-77699257D01*
X186573206Y-77642450D01*
X186532343Y-77592657D01*
X186482550Y-77551794D01*
X186425743Y-77521430D01*
X186364103Y-77502732D01*
X186300000Y-77496418D01*
X185808750Y-77498000D01*
X185727000Y-77579750D01*
X185473000Y-77579750D01*
X185391250Y-77498000D01*
X184900000Y-77496418D01*
X184835897Y-77502732D01*
X184774257Y-77521430D01*
X184717450Y-77551794D01*
X184667657Y-77592657D01*
X184626794Y-77642450D01*
X184596430Y-77699257D01*
X184577732Y-77760897D01*
X184571418Y-77825000D01*
X184390828Y-77825000D01*
X184362550Y-77801794D01*
X184305743Y-77771430D01*
X184244103Y-77752732D01*
X184180000Y-77746418D01*
X183608750Y-77748000D01*
X183527000Y-77829750D01*
X183273000Y-77829750D01*
X183191250Y-77748000D01*
X182620000Y-77746418D01*
X182555897Y-77752732D01*
X182494257Y-77771430D01*
X182437450Y-77801794D01*
X182387657Y-77842657D01*
X182346794Y-77892450D01*
X182327000Y-77929482D01*
X182327000Y-77700000D01*
X182324560Y-77675224D01*
X182317333Y-77651399D01*
X182305597Y-77629443D01*
X182289803Y-77610197D01*
X182270557Y-77594403D01*
X182248601Y-77582667D01*
X182224776Y-77575440D01*
X182200000Y-77573000D01*
X175627000Y-77573000D01*
X175627000Y-73329905D01*
X179073000Y-73329905D01*
X179073000Y-73670095D01*
X179139368Y-74003747D01*
X179269553Y-74318041D01*
X179458552Y-74600898D01*
X179699102Y-74841448D01*
X179981959Y-75030447D01*
X180296253Y-75160632D01*
X180629905Y-75227000D01*
X180970095Y-75227000D01*
X181303747Y-75160632D01*
X181618041Y-75030447D01*
X181628479Y-75023472D01*
X184273000Y-75023472D01*
X184273000Y-75176528D01*
X184302859Y-75326643D01*
X184361431Y-75468048D01*
X184446464Y-75595309D01*
X184554691Y-75703536D01*
X184597098Y-75731871D01*
X184569042Y-75784359D01*
X184533259Y-75902322D01*
X184521176Y-76024999D01*
X184521176Y-76675001D01*
X184533259Y-76797678D01*
X184569042Y-76915641D01*
X184627152Y-77024356D01*
X184705354Y-77119646D01*
X184800644Y-77197848D01*
X184909359Y-77255958D01*
X185027322Y-77291741D01*
X185149999Y-77303824D01*
X186050001Y-77303824D01*
X186172678Y-77291741D01*
X186290641Y-77255958D01*
X186399356Y-77197848D01*
X186494646Y-77119646D01*
X186572848Y-77024356D01*
X186630958Y-76915641D01*
X186666741Y-76797678D01*
X186678824Y-76675001D01*
X186678824Y-76024999D01*
X186666741Y-75902322D01*
X186630958Y-75784359D01*
X186616061Y-75756488D01*
X186695309Y-75703536D01*
X186803536Y-75595309D01*
X186888569Y-75468048D01*
X186947141Y-75326643D01*
X186977000Y-75176528D01*
X186977000Y-75023472D01*
X186947141Y-74873357D01*
X186888569Y-74731952D01*
X186803536Y-74604691D01*
X186695309Y-74496464D01*
X186568048Y-74411431D01*
X186426643Y-74352859D01*
X186276528Y-74323000D01*
X186123472Y-74323000D01*
X185973357Y-74352859D01*
X185831952Y-74411431D01*
X185704691Y-74496464D01*
X185625000Y-74576155D01*
X185545309Y-74496464D01*
X185418048Y-74411431D01*
X185276643Y-74352859D01*
X185126528Y-74323000D01*
X184973472Y-74323000D01*
X184823357Y-74352859D01*
X184681952Y-74411431D01*
X184554691Y-74496464D01*
X184446464Y-74604691D01*
X184361431Y-74731952D01*
X184302859Y-74873357D01*
X184273000Y-75023472D01*
X181628479Y-75023472D01*
X181900898Y-74841448D01*
X182141448Y-74600898D01*
X182330447Y-74318041D01*
X182460632Y-74003747D01*
X182527000Y-73670095D01*
X182527000Y-73329905D01*
X182460632Y-72996253D01*
X182330447Y-72681959D01*
X182141448Y-72399102D01*
X181900898Y-72158552D01*
X181618041Y-71969553D01*
X181303747Y-71839368D01*
X180970095Y-71773000D01*
X180629905Y-71773000D01*
X180296253Y-71839368D01*
X179981959Y-71969553D01*
X179699102Y-72158552D01*
X179458552Y-72399102D01*
X179269553Y-72681959D01*
X179139368Y-72996253D01*
X179073000Y-73329905D01*
X175627000Y-73329905D01*
X175627000Y-71200000D01*
X175624560Y-71175224D01*
X175617333Y-71151399D01*
X175605597Y-71129443D01*
X175589803Y-71110197D01*
X175570557Y-71094403D01*
X175548601Y-71082667D01*
X175524776Y-71075440D01*
X175500000Y-71073000D01*
X162300000Y-71073000D01*
X162275224Y-71075440D01*
X162251399Y-71082667D01*
X162229443Y-71094403D01*
X162210197Y-71110197D01*
X162194403Y-71129443D01*
X162182667Y-71151399D01*
X162175440Y-71175224D01*
X162173000Y-71200000D01*
X162173000Y-72093329D01*
X162172268Y-72085897D01*
X162153570Y-72024257D01*
X162123206Y-71967450D01*
X162082343Y-71917657D01*
X162032550Y-71876794D01*
X161975743Y-71846430D01*
X161914103Y-71827732D01*
X161850000Y-71821418D01*
X161208750Y-71823000D01*
X161127000Y-71904750D01*
X161127000Y-72873000D01*
X161147000Y-72873000D01*
X161147000Y-73127000D01*
X161127000Y-73127000D01*
X161127000Y-74095250D01*
X161208750Y-74177000D01*
X161850000Y-74178582D01*
X161914103Y-74172268D01*
X161975743Y-74153570D01*
X162032550Y-74123206D01*
X162082343Y-74082343D01*
X162123206Y-74032550D01*
X162153570Y-73975743D01*
X162172268Y-73914103D01*
X162173000Y-73906671D01*
X162173000Y-83147394D01*
X160847975Y-84472419D01*
X160876994Y-84326528D01*
X160876994Y-84173472D01*
X160847135Y-84023357D01*
X160788563Y-83881952D01*
X160703530Y-83754691D01*
X160595303Y-83646464D01*
X160468042Y-83561431D01*
X160326637Y-83502859D01*
X160176522Y-83473000D01*
X160023466Y-83473000D01*
X159873351Y-83502859D01*
X159731946Y-83561431D01*
X159604685Y-83646464D01*
X159499997Y-83751152D01*
X159395309Y-83646464D01*
X159268048Y-83561431D01*
X159126643Y-83502859D01*
X158976528Y-83473000D01*
X158823472Y-83473000D01*
X158673357Y-83502859D01*
X158531952Y-83561431D01*
X158404691Y-83646464D01*
X158296464Y-83754691D01*
X158211431Y-83881952D01*
X158152859Y-84023357D01*
X158123000Y-84173472D01*
X158123000Y-84326528D01*
X158152859Y-84476643D01*
X158211431Y-84618048D01*
X158296464Y-84745309D01*
X158404691Y-84853536D01*
X158465971Y-84894482D01*
X158433259Y-85002322D01*
X158421176Y-85124999D01*
X158421176Y-85775001D01*
X158433259Y-85897678D01*
X158469042Y-86015641D01*
X158527152Y-86124356D01*
X158605354Y-86219646D01*
X158700644Y-86297848D01*
X158809359Y-86355958D01*
X158927322Y-86391741D01*
X159049999Y-86403824D01*
X159950001Y-86403824D01*
X160072678Y-86391741D01*
X160190641Y-86355958D01*
X160299356Y-86297848D01*
X160394646Y-86219646D01*
X160472848Y-86124356D01*
X160530958Y-86015641D01*
X160566741Y-85897678D01*
X160573000Y-85834131D01*
X160573000Y-90473000D01*
X160280983Y-90473000D01*
X160303570Y-90430743D01*
X160322268Y-90369103D01*
X160328582Y-90305000D01*
X160327000Y-89733750D01*
X160245250Y-89652000D01*
X159802000Y-89652000D01*
X159802000Y-89672000D01*
X159548000Y-89672000D01*
X159548000Y-89652000D01*
X159104750Y-89652000D01*
X159023000Y-89733750D01*
X159021418Y-90305000D01*
X159027732Y-90369103D01*
X159046430Y-90430743D01*
X159069017Y-90473000D01*
X158500000Y-90473000D01*
X158475224Y-90475440D01*
X158451399Y-90482667D01*
X158429443Y-90494403D01*
X158410197Y-90510197D01*
X158394403Y-90529443D01*
X158382667Y-90551399D01*
X158375440Y-90575224D01*
X158373002Y-90600794D01*
X158423002Y-98600794D01*
X158425598Y-98625554D01*
X158432973Y-98649333D01*
X158444846Y-98671216D01*
X158460760Y-98690362D01*
X158480104Y-98706036D01*
X158502133Y-98717634D01*
X158526002Y-98724712D01*
X158550000Y-98727000D01*
X161032922Y-98727000D01*
X161071233Y-98747478D01*
X161117231Y-98761431D01*
X161161147Y-98774753D01*
X161169994Y-98775624D01*
X161231233Y-98781656D01*
X161231240Y-98781656D01*
X161254655Y-98783962D01*
X161278070Y-98781656D01*
X161471447Y-98781656D01*
X161473000Y-99141250D01*
X161554750Y-99223000D01*
X162373000Y-99223000D01*
X162373000Y-99203000D01*
X162627000Y-99203000D01*
X162627000Y-99223000D01*
X162647000Y-99223000D01*
X162647000Y-99477000D01*
X162627000Y-99477000D01*
X162627000Y-100170250D01*
X162708750Y-100252000D01*
X163173000Y-100253495D01*
X163173000Y-100332032D01*
X158429553Y-103494330D01*
X158410291Y-103510104D01*
X158394477Y-103529332D01*
X158382718Y-103551276D01*
X158375466Y-103575093D01*
X158373000Y-103600000D01*
X158373000Y-108300000D01*
X158375440Y-108324776D01*
X158382667Y-108348601D01*
X158394403Y-108370557D01*
X158410197Y-108389803D01*
X162873000Y-112852606D01*
X162873000Y-117500000D01*
X162875440Y-117524776D01*
X162882667Y-117548601D01*
X162894403Y-117570557D01*
X162910197Y-117589803D01*
X165373000Y-120052606D01*
X165373000Y-121973000D01*
X163127000Y-121973000D01*
X163127000Y-121483907D01*
X163765698Y-121483907D01*
X163830344Y-121621199D01*
X163999001Y-121691193D01*
X164178071Y-121726939D01*
X164360674Y-121727062D01*
X164539793Y-121691559D01*
X164708543Y-121621794D01*
X164709656Y-121621199D01*
X164774302Y-121483907D01*
X164270000Y-120979605D01*
X163765698Y-121483907D01*
X163127000Y-121483907D01*
X163127000Y-120890674D01*
X163342938Y-120890674D01*
X163378441Y-121069793D01*
X163448206Y-121238543D01*
X163448801Y-121239656D01*
X163586093Y-121304302D01*
X164090395Y-120800000D01*
X164449605Y-120800000D01*
X164953907Y-121304302D01*
X165091199Y-121239656D01*
X165161193Y-121070999D01*
X165196939Y-120891929D01*
X165197062Y-120709326D01*
X165161559Y-120530207D01*
X165091794Y-120361457D01*
X165091199Y-120360344D01*
X164953907Y-120295698D01*
X164449605Y-120800000D01*
X164090395Y-120800000D01*
X163586093Y-120295698D01*
X163448801Y-120360344D01*
X163378807Y-120529001D01*
X163343061Y-120708071D01*
X163342938Y-120890674D01*
X163127000Y-120890674D01*
X163127000Y-120116093D01*
X163765698Y-120116093D01*
X164270000Y-120620395D01*
X164774302Y-120116093D01*
X164709656Y-119978801D01*
X164540999Y-119908807D01*
X164361929Y-119873061D01*
X164179326Y-119872938D01*
X164000207Y-119908441D01*
X163831457Y-119978206D01*
X163830344Y-119978801D01*
X163765698Y-120116093D01*
X163127000Y-120116093D01*
X163127000Y-119800000D01*
X163124560Y-119775224D01*
X163117333Y-119751399D01*
X163105597Y-119729443D01*
X163089803Y-119710197D01*
X160627000Y-117247394D01*
X160627000Y-115500000D01*
X160624560Y-115475224D01*
X160617333Y-115451399D01*
X160605597Y-115429443D01*
X160589803Y-115410197D01*
X159063513Y-113883907D01*
X161225698Y-113883907D01*
X161290344Y-114021199D01*
X161459001Y-114091193D01*
X161638071Y-114126939D01*
X161820674Y-114127062D01*
X161999793Y-114091559D01*
X162168543Y-114021794D01*
X162169656Y-114021199D01*
X162234302Y-113883907D01*
X161730000Y-113379605D01*
X161225698Y-113883907D01*
X159063513Y-113883907D01*
X158470280Y-113290674D01*
X160802938Y-113290674D01*
X160838441Y-113469793D01*
X160908206Y-113638543D01*
X160908801Y-113639656D01*
X161046093Y-113704302D01*
X161550395Y-113200000D01*
X161909605Y-113200000D01*
X162413907Y-113704302D01*
X162551199Y-113639656D01*
X162621193Y-113470999D01*
X162656939Y-113291929D01*
X162657062Y-113109326D01*
X162621559Y-112930207D01*
X162551794Y-112761457D01*
X162551199Y-112760344D01*
X162413907Y-112695698D01*
X161909605Y-113200000D01*
X161550395Y-113200000D01*
X161046093Y-112695698D01*
X160908801Y-112760344D01*
X160838807Y-112929001D01*
X160803061Y-113108071D01*
X160802938Y-113290674D01*
X158470280Y-113290674D01*
X157695699Y-112516093D01*
X161225698Y-112516093D01*
X161730000Y-113020395D01*
X162234302Y-112516093D01*
X162169656Y-112378801D01*
X162000999Y-112308807D01*
X161821929Y-112273061D01*
X161639326Y-112272938D01*
X161460207Y-112308441D01*
X161291457Y-112378206D01*
X161290344Y-112378801D01*
X161225698Y-112516093D01*
X157695699Y-112516093D01*
X156377000Y-111197394D01*
X156377000Y-99925000D01*
X161471418Y-99925000D01*
X161477732Y-99989103D01*
X161496430Y-100050743D01*
X161526794Y-100107550D01*
X161567657Y-100157343D01*
X161617450Y-100198206D01*
X161674257Y-100228570D01*
X161735897Y-100247268D01*
X161800000Y-100253582D01*
X162291250Y-100252000D01*
X162373000Y-100170250D01*
X162373000Y-99477000D01*
X161554750Y-99477000D01*
X161473000Y-99558750D01*
X161471418Y-99925000D01*
X156377000Y-99925000D01*
X156377000Y-88745000D01*
X159021418Y-88745000D01*
X159023000Y-89316250D01*
X159104750Y-89398000D01*
X159548000Y-89398000D01*
X159548000Y-88499750D01*
X159802000Y-88499750D01*
X159802000Y-89398000D01*
X160245250Y-89398000D01*
X160327000Y-89316250D01*
X160328582Y-88745000D01*
X160322268Y-88680897D01*
X160303570Y-88619257D01*
X160273206Y-88562450D01*
X160232343Y-88512657D01*
X160182550Y-88471794D01*
X160125743Y-88441430D01*
X160064103Y-88422732D01*
X160000000Y-88416418D01*
X159883750Y-88418000D01*
X159802000Y-88499750D01*
X159548000Y-88499750D01*
X159466250Y-88418000D01*
X159350000Y-88416418D01*
X159285897Y-88422732D01*
X159224257Y-88441430D01*
X159167450Y-88471794D01*
X159117657Y-88512657D01*
X159076794Y-88562450D01*
X159046430Y-88619257D01*
X159027732Y-88680897D01*
X159021418Y-88745000D01*
X156377000Y-88745000D01*
X156377000Y-88075000D01*
X158471418Y-88075000D01*
X158477732Y-88139103D01*
X158496430Y-88200743D01*
X158526794Y-88257550D01*
X158567657Y-88307343D01*
X158617450Y-88348206D01*
X158674257Y-88378570D01*
X158735897Y-88397268D01*
X158800000Y-88403582D01*
X159291250Y-88402000D01*
X159373000Y-88320250D01*
X159373000Y-87627000D01*
X159627000Y-87627000D01*
X159627000Y-88320250D01*
X159708750Y-88402000D01*
X160200000Y-88403582D01*
X160264103Y-88397268D01*
X160325743Y-88378570D01*
X160382550Y-88348206D01*
X160432343Y-88307343D01*
X160473206Y-88257550D01*
X160503570Y-88200743D01*
X160522268Y-88139103D01*
X160528582Y-88075000D01*
X160527000Y-87708750D01*
X160445250Y-87627000D01*
X159627000Y-87627000D01*
X159373000Y-87627000D01*
X158554750Y-87627000D01*
X158473000Y-87708750D01*
X158471418Y-88075000D01*
X156377000Y-88075000D01*
X156377000Y-86925000D01*
X158471418Y-86925000D01*
X158473000Y-87291250D01*
X158554750Y-87373000D01*
X159373000Y-87373000D01*
X159373000Y-86679750D01*
X159627000Y-86679750D01*
X159627000Y-87373000D01*
X160445250Y-87373000D01*
X160527000Y-87291250D01*
X160528582Y-86925000D01*
X160522268Y-86860897D01*
X160503570Y-86799257D01*
X160473206Y-86742450D01*
X160432343Y-86692657D01*
X160382550Y-86651794D01*
X160325743Y-86621430D01*
X160264103Y-86602732D01*
X160200000Y-86596418D01*
X159708750Y-86598000D01*
X159627000Y-86679750D01*
X159373000Y-86679750D01*
X159291250Y-86598000D01*
X158800000Y-86596418D01*
X158735897Y-86602732D01*
X158674257Y-86621430D01*
X158617450Y-86651794D01*
X158567657Y-86692657D01*
X158526794Y-86742450D01*
X158496430Y-86799257D01*
X158477732Y-86860897D01*
X158471418Y-86925000D01*
X156377000Y-86925000D01*
X156377000Y-73850000D01*
X159821418Y-73850000D01*
X159827732Y-73914103D01*
X159846430Y-73975743D01*
X159876794Y-74032550D01*
X159917657Y-74082343D01*
X159967450Y-74123206D01*
X160024257Y-74153570D01*
X160085897Y-74172268D01*
X160150000Y-74178582D01*
X160791250Y-74177000D01*
X160873000Y-74095250D01*
X160873000Y-73127000D01*
X159904750Y-73127000D01*
X159823000Y-73208750D01*
X159821418Y-73850000D01*
X156377000Y-73850000D01*
X156377000Y-72150000D01*
X159821418Y-72150000D01*
X159823000Y-72791250D01*
X159904750Y-72873000D01*
X160873000Y-72873000D01*
X160873000Y-71904750D01*
X160791250Y-71823000D01*
X160150000Y-71821418D01*
X160085897Y-71827732D01*
X160024257Y-71846430D01*
X159967450Y-71876794D01*
X159917657Y-71917657D01*
X159876794Y-71967450D01*
X159846430Y-72024257D01*
X159827732Y-72085897D01*
X159821418Y-72150000D01*
X156377000Y-72150000D01*
X156377000Y-72018442D01*
X156409684Y-71685109D01*
X156501133Y-71382213D01*
X156649676Y-71102845D01*
X156849651Y-70857652D01*
X157093438Y-70655973D01*
X157371764Y-70505483D01*
X157674013Y-70411921D01*
X158006263Y-70377000D01*
X187273000Y-70377000D01*
X187273000Y-77947394D01*
G36*
X181063705Y-87377772D02*
G01*
X180955820Y-87410498D01*
X180845506Y-87469463D01*
X180748815Y-87548815D01*
X180669463Y-87645506D01*
X180610498Y-87755820D01*
X180574188Y-87875518D01*
X180561928Y-88000000D01*
X180565000Y-88414250D01*
X180723750Y-88573000D01*
X181648000Y-88573000D01*
X181648000Y-88553000D01*
X181902000Y-88553000D01*
X181902000Y-88573000D01*
X181922000Y-88573000D01*
X181922000Y-88827000D01*
X181902000Y-88827000D01*
X181902000Y-89876250D01*
X182060750Y-90035000D01*
X182350000Y-90038072D01*
X182474482Y-90025812D01*
X182594180Y-89989502D01*
X182704494Y-89930537D01*
X182801185Y-89851185D01*
X182880537Y-89754494D01*
X182939502Y-89644180D01*
X182975812Y-89524482D01*
X182978165Y-89500590D01*
X183055354Y-89594646D01*
X183150644Y-89672848D01*
X183259359Y-89730958D01*
X183377322Y-89766741D01*
X183473000Y-89776165D01*
X183473000Y-101659475D01*
X183459613Y-101679510D01*
X183375001Y-101671176D01*
X182724999Y-101671176D01*
X182602322Y-101683259D01*
X182484359Y-101719042D01*
X182375644Y-101777152D01*
X182280354Y-101855354D01*
X182203165Y-101949410D01*
X182200812Y-101925518D01*
X182164502Y-101805820D01*
X182105537Y-101695506D01*
X182026185Y-101598815D01*
X181929494Y-101519463D01*
X181819180Y-101460498D01*
X181699482Y-101424188D01*
X181575000Y-101411928D01*
X181285750Y-101415000D01*
X181127000Y-101573750D01*
X181127000Y-102623000D01*
X181147000Y-102623000D01*
X181147000Y-102877000D01*
X181127000Y-102877000D01*
X181127000Y-103926250D01*
X181285750Y-104085000D01*
X181575000Y-104088072D01*
X181699482Y-104075812D01*
X181819180Y-104039502D01*
X181929494Y-103980537D01*
X182026185Y-103901185D01*
X182105537Y-103804494D01*
X182164502Y-103694180D01*
X182200812Y-103574482D01*
X182203165Y-103550590D01*
X182280354Y-103644646D01*
X182375644Y-103722848D01*
X182484359Y-103780958D01*
X182602322Y-103816741D01*
X182724999Y-103828824D01*
X183375001Y-103828824D01*
X183473000Y-103819172D01*
X183473000Y-104123366D01*
X183400000Y-104116176D01*
X182750000Y-104116176D01*
X182676095Y-104123455D01*
X182605030Y-104145012D01*
X182539537Y-104180019D01*
X182482131Y-104227131D01*
X182435019Y-104284537D01*
X182400012Y-104350030D01*
X182378455Y-104421095D01*
X182371176Y-104495000D01*
X182371176Y-105973000D01*
X180452606Y-105973000D01*
X178689803Y-104210197D01*
X178670557Y-104194403D01*
X178648601Y-104182667D01*
X178624776Y-104175440D01*
X178600000Y-104173000D01*
X175352606Y-104173000D01*
X174629606Y-103450000D01*
X179786928Y-103450000D01*
X179799188Y-103574482D01*
X179835498Y-103694180D01*
X179894463Y-103804494D01*
X179973815Y-103901185D01*
X180070506Y-103980537D01*
X180180820Y-104039502D01*
X180300518Y-104075812D01*
X180425000Y-104088072D01*
X180714250Y-104085000D01*
X180873000Y-103926250D01*
X180873000Y-102877000D01*
X179948750Y-102877000D01*
X179790000Y-103035750D01*
X179786928Y-103450000D01*
X174629606Y-103450000D01*
X173927000Y-102747394D01*
X173927000Y-102050000D01*
X179786928Y-102050000D01*
X179790000Y-102464250D01*
X179948750Y-102623000D01*
X180873000Y-102623000D01*
X180873000Y-101573750D01*
X180714250Y-101415000D01*
X180425000Y-101411928D01*
X180300518Y-101424188D01*
X180180820Y-101460498D01*
X180070506Y-101519463D01*
X179973815Y-101598815D01*
X179894463Y-101695506D01*
X179835498Y-101805820D01*
X179799188Y-101925518D01*
X179786928Y-102050000D01*
X173927000Y-102050000D01*
X173927000Y-101925958D01*
X174050000Y-101938072D01*
X175318250Y-101935000D01*
X175477000Y-101776250D01*
X175477000Y-100823000D01*
X176123000Y-100823000D01*
X176123000Y-101776250D01*
X176281750Y-101935000D01*
X177550000Y-101938072D01*
X177674482Y-101925812D01*
X177794180Y-101889502D01*
X177904494Y-101830537D01*
X178001185Y-101751185D01*
X178080537Y-101654494D01*
X178139502Y-101544180D01*
X178175812Y-101424482D01*
X178188072Y-101300000D01*
X178185000Y-100981750D01*
X178026250Y-100823000D01*
X176123000Y-100823000D01*
X175477000Y-100823000D01*
X175457000Y-100823000D01*
X175457000Y-100177000D01*
X175477000Y-100177000D01*
X175477000Y-99223750D01*
X176123000Y-99223750D01*
X176123000Y-100177000D01*
X178026250Y-100177000D01*
X178185000Y-100018250D01*
X178188072Y-99700000D01*
X178175812Y-99575518D01*
X178139502Y-99455820D01*
X178080537Y-99345506D01*
X178001185Y-99248815D01*
X177904494Y-99169463D01*
X177794180Y-99110498D01*
X177674482Y-99074188D01*
X177550000Y-99061928D01*
X176281750Y-99065000D01*
X176123000Y-99223750D01*
X175477000Y-99223750D01*
X175318250Y-99065000D01*
X174050000Y-99061928D01*
X173927000Y-99074042D01*
X173927000Y-98152606D01*
X175352606Y-96727000D01*
X177500000Y-96727000D01*
X177524776Y-96724560D01*
X177548601Y-96717333D01*
X177570557Y-96705597D01*
X177589803Y-96689803D01*
X179089803Y-95189803D01*
X179105597Y-95170557D01*
X179117333Y-95148601D01*
X179124560Y-95124776D01*
X179127000Y-95100000D01*
X179127000Y-90100000D01*
X179124560Y-90075224D01*
X179117333Y-90051399D01*
X179105597Y-90029443D01*
X179089803Y-90010197D01*
X179070557Y-89994403D01*
X179048601Y-89982667D01*
X179024776Y-89975440D01*
X179000000Y-89973000D01*
X178174097Y-89973000D01*
X178189502Y-89944180D01*
X178225812Y-89824482D01*
X178238072Y-89700000D01*
X178235848Y-89400000D01*
X180561928Y-89400000D01*
X180574188Y-89524482D01*
X180610498Y-89644180D01*
X180669463Y-89754494D01*
X180748815Y-89851185D01*
X180845506Y-89930537D01*
X180955820Y-89989502D01*
X181075518Y-90025812D01*
X181200000Y-90038072D01*
X181489250Y-90035000D01*
X181648000Y-89876250D01*
X181648000Y-88827000D01*
X180723750Y-88827000D01*
X180565000Y-88985750D01*
X180561928Y-89400000D01*
X178235848Y-89400000D01*
X178235000Y-89285750D01*
X178076250Y-89127000D01*
X177152000Y-89127000D01*
X177152000Y-89147000D01*
X176898000Y-89147000D01*
X176898000Y-89127000D01*
X176878000Y-89127000D01*
X176878000Y-88873000D01*
X176898000Y-88873000D01*
X176898000Y-87823750D01*
X177152000Y-87823750D01*
X177152000Y-88873000D01*
X178076250Y-88873000D01*
X178235000Y-88714250D01*
X178238072Y-88300000D01*
X178225812Y-88175518D01*
X178189502Y-88055820D01*
X178130537Y-87945506D01*
X178051185Y-87848815D01*
X177954494Y-87769463D01*
X177844180Y-87710498D01*
X177724482Y-87674188D01*
X177600000Y-87661928D01*
X177310750Y-87665000D01*
X177152000Y-87823750D01*
X176898000Y-87823750D01*
X176739250Y-87665000D01*
X176450000Y-87661928D01*
X176325518Y-87674188D01*
X176205820Y-87710498D01*
X176127000Y-87752629D01*
X176127000Y-86627000D01*
X178000000Y-86627000D01*
X178024776Y-86624560D01*
X178048601Y-86617333D01*
X178070557Y-86605597D01*
X178089803Y-86589803D01*
X178352606Y-86327000D01*
X179997922Y-86327000D01*
X181063705Y-87377772D01*
G37*
X181063705Y-87377772D02*
X180955820Y-87410498D01*
X180845506Y-87469463D01*
X180748815Y-87548815D01*
X180669463Y-87645506D01*
X180610498Y-87755820D01*
X180574188Y-87875518D01*
X180561928Y-88000000D01*
X180565000Y-88414250D01*
X180723750Y-88573000D01*
X181648000Y-88573000D01*
X181648000Y-88553000D01*
X181902000Y-88553000D01*
X181902000Y-88573000D01*
X181922000Y-88573000D01*
X181922000Y-88827000D01*
X181902000Y-88827000D01*
X181902000Y-89876250D01*
X182060750Y-90035000D01*
X182350000Y-90038072D01*
X182474482Y-90025812D01*
X182594180Y-89989502D01*
X182704494Y-89930537D01*
X182801185Y-89851185D01*
X182880537Y-89754494D01*
X182939502Y-89644180D01*
X182975812Y-89524482D01*
X182978165Y-89500590D01*
X183055354Y-89594646D01*
X183150644Y-89672848D01*
X183259359Y-89730958D01*
X183377322Y-89766741D01*
X183473000Y-89776165D01*
X183473000Y-101659475D01*
X183459613Y-101679510D01*
X183375001Y-101671176D01*
X182724999Y-101671176D01*
X182602322Y-101683259D01*
X182484359Y-101719042D01*
X182375644Y-101777152D01*
X182280354Y-101855354D01*
X182203165Y-101949410D01*
X182200812Y-101925518D01*
X182164502Y-101805820D01*
X182105537Y-101695506D01*
X182026185Y-101598815D01*
X181929494Y-101519463D01*
X181819180Y-101460498D01*
X181699482Y-101424188D01*
X181575000Y-101411928D01*
X181285750Y-101415000D01*
X181127000Y-101573750D01*
X181127000Y-102623000D01*
X181147000Y-102623000D01*
X181147000Y-102877000D01*
X181127000Y-102877000D01*
X181127000Y-103926250D01*
X181285750Y-104085000D01*
X181575000Y-104088072D01*
X181699482Y-104075812D01*
X181819180Y-104039502D01*
X181929494Y-103980537D01*
X182026185Y-103901185D01*
X182105537Y-103804494D01*
X182164502Y-103694180D01*
X182200812Y-103574482D01*
X182203165Y-103550590D01*
X182280354Y-103644646D01*
X182375644Y-103722848D01*
X182484359Y-103780958D01*
X182602322Y-103816741D01*
X182724999Y-103828824D01*
X183375001Y-103828824D01*
X183473000Y-103819172D01*
X183473000Y-104123366D01*
X183400000Y-104116176D01*
X182750000Y-104116176D01*
X182676095Y-104123455D01*
X182605030Y-104145012D01*
X182539537Y-104180019D01*
X182482131Y-104227131D01*
X182435019Y-104284537D01*
X182400012Y-104350030D01*
X182378455Y-104421095D01*
X182371176Y-104495000D01*
X182371176Y-105973000D01*
X180452606Y-105973000D01*
X178689803Y-104210197D01*
X178670557Y-104194403D01*
X178648601Y-104182667D01*
X178624776Y-104175440D01*
X178600000Y-104173000D01*
X175352606Y-104173000D01*
X174629606Y-103450000D01*
X179786928Y-103450000D01*
X179799188Y-103574482D01*
X179835498Y-103694180D01*
X179894463Y-103804494D01*
X179973815Y-103901185D01*
X180070506Y-103980537D01*
X180180820Y-104039502D01*
X180300518Y-104075812D01*
X180425000Y-104088072D01*
X180714250Y-104085000D01*
X180873000Y-103926250D01*
X180873000Y-102877000D01*
X179948750Y-102877000D01*
X179790000Y-103035750D01*
X179786928Y-103450000D01*
X174629606Y-103450000D01*
X173927000Y-102747394D01*
X173927000Y-102050000D01*
X179786928Y-102050000D01*
X179790000Y-102464250D01*
X179948750Y-102623000D01*
X180873000Y-102623000D01*
X180873000Y-101573750D01*
X180714250Y-101415000D01*
X180425000Y-101411928D01*
X180300518Y-101424188D01*
X180180820Y-101460498D01*
X180070506Y-101519463D01*
X179973815Y-101598815D01*
X179894463Y-101695506D01*
X179835498Y-101805820D01*
X179799188Y-101925518D01*
X179786928Y-102050000D01*
X173927000Y-102050000D01*
X173927000Y-101925958D01*
X174050000Y-101938072D01*
X175318250Y-101935000D01*
X175477000Y-101776250D01*
X175477000Y-100823000D01*
X176123000Y-100823000D01*
X176123000Y-101776250D01*
X176281750Y-101935000D01*
X177550000Y-101938072D01*
X177674482Y-101925812D01*
X177794180Y-101889502D01*
X177904494Y-101830537D01*
X178001185Y-101751185D01*
X178080537Y-101654494D01*
X178139502Y-101544180D01*
X178175812Y-101424482D01*
X178188072Y-101300000D01*
X178185000Y-100981750D01*
X178026250Y-100823000D01*
X176123000Y-100823000D01*
X175477000Y-100823000D01*
X175457000Y-100823000D01*
X175457000Y-100177000D01*
X175477000Y-100177000D01*
X175477000Y-99223750D01*
X176123000Y-99223750D01*
X176123000Y-100177000D01*
X178026250Y-100177000D01*
X178185000Y-100018250D01*
X178188072Y-99700000D01*
X178175812Y-99575518D01*
X178139502Y-99455820D01*
X178080537Y-99345506D01*
X178001185Y-99248815D01*
X177904494Y-99169463D01*
X177794180Y-99110498D01*
X177674482Y-99074188D01*
X177550000Y-99061928D01*
X176281750Y-99065000D01*
X176123000Y-99223750D01*
X175477000Y-99223750D01*
X175318250Y-99065000D01*
X174050000Y-99061928D01*
X173927000Y-99074042D01*
X173927000Y-98152606D01*
X175352606Y-96727000D01*
X177500000Y-96727000D01*
X177524776Y-96724560D01*
X177548601Y-96717333D01*
X177570557Y-96705597D01*
X177589803Y-96689803D01*
X179089803Y-95189803D01*
X179105597Y-95170557D01*
X179117333Y-95148601D01*
X179124560Y-95124776D01*
X179127000Y-95100000D01*
X179127000Y-90100000D01*
X179124560Y-90075224D01*
X179117333Y-90051399D01*
X179105597Y-90029443D01*
X179089803Y-90010197D01*
X179070557Y-89994403D01*
X179048601Y-89982667D01*
X179024776Y-89975440D01*
X179000000Y-89973000D01*
X178174097Y-89973000D01*
X178189502Y-89944180D01*
X178225812Y-89824482D01*
X178238072Y-89700000D01*
X178235848Y-89400000D01*
X180561928Y-89400000D01*
X180574188Y-89524482D01*
X180610498Y-89644180D01*
X180669463Y-89754494D01*
X180748815Y-89851185D01*
X180845506Y-89930537D01*
X180955820Y-89989502D01*
X181075518Y-90025812D01*
X181200000Y-90038072D01*
X181489250Y-90035000D01*
X181648000Y-89876250D01*
X181648000Y-88827000D01*
X180723750Y-88827000D01*
X180565000Y-88985750D01*
X180561928Y-89400000D01*
X178235848Y-89400000D01*
X178235000Y-89285750D01*
X178076250Y-89127000D01*
X177152000Y-89127000D01*
X177152000Y-89147000D01*
X176898000Y-89147000D01*
X176898000Y-89127000D01*
X176878000Y-89127000D01*
X176878000Y-88873000D01*
X176898000Y-88873000D01*
X176898000Y-87823750D01*
X177152000Y-87823750D01*
X177152000Y-88873000D01*
X178076250Y-88873000D01*
X178235000Y-88714250D01*
X178238072Y-88300000D01*
X178225812Y-88175518D01*
X178189502Y-88055820D01*
X178130537Y-87945506D01*
X178051185Y-87848815D01*
X177954494Y-87769463D01*
X177844180Y-87710498D01*
X177724482Y-87674188D01*
X177600000Y-87661928D01*
X177310750Y-87665000D01*
X177152000Y-87823750D01*
X176898000Y-87823750D01*
X176739250Y-87665000D01*
X176450000Y-87661928D01*
X176325518Y-87674188D01*
X176205820Y-87710498D01*
X176127000Y-87752629D01*
X176127000Y-86627000D01*
X178000000Y-86627000D01*
X178024776Y-86624560D01*
X178048601Y-86617333D01*
X178070557Y-86605597D01*
X178089803Y-86589803D01*
X178352606Y-86327000D01*
X179997922Y-86327000D01*
X181063705Y-87377772D01*
M02*
