G04 #@! TF.GenerationSoftware,KiCad,Pcbnew,5.1.6*
G04 #@! TF.CreationDate,2020-07-27T17:19:51+02:00*
G04 #@! TF.ProjectId,motor-board,6d6f746f-722d-4626-9f61-72642e6b6963,1*
G04 #@! TF.SameCoordinates,Original*
G04 #@! TF.FileFunction,Soldermask,Bot*
G04 #@! TF.FilePolarity,Negative*
%FSLAX46Y46*%
G04 Gerber Fmt 4.6, Leading zero omitted, Abs format (unit mm)*
G04 Created by KiCad (PCBNEW 5.1.6) date 2020-07-27 17:19:51*
%MOMM*%
%LPD*%
G01*
G04 APERTURE LIST*
%ADD10C,0.152400*%
G04 APERTURE END LIST*
D10*
G36*
X164445012Y-120223057D02*
G01*
X164445015Y-120223058D01*
X164445014Y-120223058D01*
X164554207Y-120268287D01*
X164652478Y-120333950D01*
X164736050Y-120417522D01*
X164736051Y-120417524D01*
X164801714Y-120515795D01*
X164846943Y-120624988D01*
X164870000Y-120740904D01*
X164870000Y-120859096D01*
X164846943Y-120975012D01*
X164846942Y-120975014D01*
X164801713Y-121084207D01*
X164736050Y-121182478D01*
X164652478Y-121266050D01*
X164554207Y-121331713D01*
X164554206Y-121331714D01*
X164554205Y-121331714D01*
X164445012Y-121376943D01*
X164329096Y-121400000D01*
X164210904Y-121400000D01*
X164094988Y-121376943D01*
X163985795Y-121331714D01*
X163985794Y-121331714D01*
X163985793Y-121331713D01*
X163887522Y-121266050D01*
X163803950Y-121182478D01*
X163738287Y-121084207D01*
X163693058Y-120975014D01*
X163693057Y-120975012D01*
X163670000Y-120859096D01*
X163670000Y-120740904D01*
X163693057Y-120624988D01*
X163738286Y-120515795D01*
X163803949Y-120417524D01*
X163803950Y-120417522D01*
X163887522Y-120333950D01*
X163985793Y-120268287D01*
X164094986Y-120223058D01*
X164094985Y-120223058D01*
X164094988Y-120223057D01*
X164210904Y-120200000D01*
X164329096Y-120200000D01*
X164445012Y-120223057D01*
G37*
G36*
X161905012Y-120223057D02*
G01*
X161905015Y-120223058D01*
X161905014Y-120223058D01*
X162014207Y-120268287D01*
X162112478Y-120333950D01*
X162196050Y-120417522D01*
X162196051Y-120417524D01*
X162261714Y-120515795D01*
X162306943Y-120624988D01*
X162330000Y-120740904D01*
X162330000Y-120859096D01*
X162306943Y-120975012D01*
X162306942Y-120975014D01*
X162261713Y-121084207D01*
X162196050Y-121182478D01*
X162112478Y-121266050D01*
X162014207Y-121331713D01*
X162014206Y-121331714D01*
X162014205Y-121331714D01*
X161905012Y-121376943D01*
X161789096Y-121400000D01*
X161670904Y-121400000D01*
X161554988Y-121376943D01*
X161445795Y-121331714D01*
X161445794Y-121331714D01*
X161445793Y-121331713D01*
X161347522Y-121266050D01*
X161263950Y-121182478D01*
X161198287Y-121084207D01*
X161153058Y-120975014D01*
X161153057Y-120975012D01*
X161130000Y-120859096D01*
X161130000Y-120740904D01*
X161153057Y-120624988D01*
X161198286Y-120515795D01*
X161263949Y-120417524D01*
X161263950Y-120417522D01*
X161347522Y-120333950D01*
X161445793Y-120268287D01*
X161554986Y-120223058D01*
X161554985Y-120223058D01*
X161554988Y-120223057D01*
X161670904Y-120200000D01*
X161789096Y-120200000D01*
X161905012Y-120223057D01*
G37*
G36*
X164445012Y-112623057D02*
G01*
X164445015Y-112623058D01*
X164445014Y-112623058D01*
X164554207Y-112668287D01*
X164652478Y-112733950D01*
X164736050Y-112817522D01*
X164736051Y-112817524D01*
X164801714Y-112915795D01*
X164846943Y-113024988D01*
X164870000Y-113140904D01*
X164870000Y-113259096D01*
X164846943Y-113375012D01*
X164846942Y-113375014D01*
X164801713Y-113484207D01*
X164736050Y-113582478D01*
X164652478Y-113666050D01*
X164554207Y-113731713D01*
X164554206Y-113731714D01*
X164554205Y-113731714D01*
X164445012Y-113776943D01*
X164329096Y-113800000D01*
X164210904Y-113800000D01*
X164094988Y-113776943D01*
X163985795Y-113731714D01*
X163985794Y-113731714D01*
X163985793Y-113731713D01*
X163887522Y-113666050D01*
X163803950Y-113582478D01*
X163738287Y-113484207D01*
X163693058Y-113375014D01*
X163693057Y-113375012D01*
X163670000Y-113259096D01*
X163670000Y-113140904D01*
X163693057Y-113024988D01*
X163738286Y-112915795D01*
X163803949Y-112817524D01*
X163803950Y-112817522D01*
X163887522Y-112733950D01*
X163985793Y-112668287D01*
X164094986Y-112623058D01*
X164094985Y-112623058D01*
X164094988Y-112623057D01*
X164210904Y-112600000D01*
X164329096Y-112600000D01*
X164445012Y-112623057D01*
G37*
G36*
X161905012Y-112623057D02*
G01*
X161905015Y-112623058D01*
X161905014Y-112623058D01*
X162014207Y-112668287D01*
X162112478Y-112733950D01*
X162196050Y-112817522D01*
X162196051Y-112817524D01*
X162261714Y-112915795D01*
X162306943Y-113024988D01*
X162330000Y-113140904D01*
X162330000Y-113259096D01*
X162306943Y-113375012D01*
X162306942Y-113375014D01*
X162261713Y-113484207D01*
X162196050Y-113582478D01*
X162112478Y-113666050D01*
X162014207Y-113731713D01*
X162014206Y-113731714D01*
X162014205Y-113731714D01*
X161905012Y-113776943D01*
X161789096Y-113800000D01*
X161670904Y-113800000D01*
X161554988Y-113776943D01*
X161445795Y-113731714D01*
X161445794Y-113731714D01*
X161445793Y-113731713D01*
X161347522Y-113666050D01*
X161263950Y-113582478D01*
X161198287Y-113484207D01*
X161153058Y-113375014D01*
X161153057Y-113375012D01*
X161130000Y-113259096D01*
X161130000Y-113140904D01*
X161153057Y-113024988D01*
X161198286Y-112915795D01*
X161263949Y-112817524D01*
X161263950Y-112817522D01*
X161347522Y-112733950D01*
X161445793Y-112668287D01*
X161554986Y-112623058D01*
X161554985Y-112623058D01*
X161554988Y-112623057D01*
X161670904Y-112600000D01*
X161789096Y-112600000D01*
X161905012Y-112623057D01*
G37*
G36*
X194946034Y-109514469D02*
G01*
X195134536Y-109571651D01*
X195308256Y-109664506D01*
X195460528Y-109789472D01*
X195585494Y-109941744D01*
X195678349Y-110115464D01*
X195735531Y-110303966D01*
X195754838Y-110500000D01*
X195735531Y-110696034D01*
X195678349Y-110884536D01*
X195585494Y-111058256D01*
X195460528Y-111210528D01*
X195308256Y-111335494D01*
X195134536Y-111428349D01*
X194946034Y-111485531D01*
X194799124Y-111500000D01*
X193200876Y-111500000D01*
X193053966Y-111485531D01*
X192865464Y-111428349D01*
X192691744Y-111335494D01*
X192539472Y-111210528D01*
X192414506Y-111058256D01*
X192321651Y-110884536D01*
X192264469Y-110696034D01*
X192245162Y-110500000D01*
X192264469Y-110303966D01*
X192321651Y-110115464D01*
X192414506Y-109941744D01*
X192539472Y-109789472D01*
X192691744Y-109664506D01*
X192865464Y-109571651D01*
X193053966Y-109514469D01*
X193200876Y-109500000D01*
X194799124Y-109500000D01*
X194946034Y-109514469D01*
G37*
G36*
X188000000Y-108000000D02*
G01*
X186000000Y-108000000D01*
X186000000Y-104000000D01*
X188000000Y-104000000D01*
X188000000Y-108000000D01*
G37*
G36*
X193196033Y-104364469D02*
G01*
X193384535Y-104421651D01*
X193558256Y-104514506D01*
X193710528Y-104639472D01*
X193835494Y-104791744D01*
X193928349Y-104965464D01*
X193985531Y-105153966D01*
X194000000Y-105300876D01*
X194000000Y-106699124D01*
X193985531Y-106846034D01*
X193928349Y-107034536D01*
X193835494Y-107208256D01*
X193710528Y-107360528D01*
X193558256Y-107485494D01*
X193384536Y-107578349D01*
X193196034Y-107635531D01*
X193000000Y-107654838D01*
X192803967Y-107635531D01*
X192615465Y-107578349D01*
X192441745Y-107485494D01*
X192289473Y-107360528D01*
X192164507Y-107208256D01*
X192071652Y-107034536D01*
X192014470Y-106846033D01*
X192000000Y-106699124D01*
X192000000Y-105300877D01*
X192014469Y-105153967D01*
X192071651Y-104965465D01*
X192164506Y-104791744D01*
X192289472Y-104639472D01*
X192441744Y-104514506D01*
X192615464Y-104421651D01*
X192803966Y-104364469D01*
X193000000Y-104345162D01*
X193196033Y-104364469D01*
G37*
G36*
X163193779Y-105001879D02*
G01*
X163439463Y-105103645D01*
X163439465Y-105103646D01*
X163660575Y-105251387D01*
X163848613Y-105439425D01*
X163848614Y-105439427D01*
X163996355Y-105660537D01*
X164098121Y-105906221D01*
X164150000Y-106167035D01*
X164150000Y-106432965D01*
X164098121Y-106693779D01*
X163996355Y-106939463D01*
X163996354Y-106939465D01*
X163848613Y-107160575D01*
X163660575Y-107348613D01*
X163439465Y-107496354D01*
X163439464Y-107496355D01*
X163439463Y-107496355D01*
X163193779Y-107598121D01*
X162932965Y-107650000D01*
X162667035Y-107650000D01*
X162406221Y-107598121D01*
X162160537Y-107496355D01*
X162160536Y-107496355D01*
X162160535Y-107496354D01*
X161939425Y-107348613D01*
X161751387Y-107160575D01*
X161603646Y-106939465D01*
X161603645Y-106939463D01*
X161501879Y-106693779D01*
X161450000Y-106432965D01*
X161450000Y-106167035D01*
X161501879Y-105906221D01*
X161603645Y-105660537D01*
X161751386Y-105439427D01*
X161751387Y-105439425D01*
X161939425Y-105251387D01*
X162160535Y-105103646D01*
X162160537Y-105103645D01*
X162406221Y-105001879D01*
X162667035Y-104950000D01*
X162932965Y-104950000D01*
X163193779Y-105001879D01*
G37*
G36*
X196181832Y-105220495D02*
G01*
X196233351Y-105230743D01*
X196283187Y-105251386D01*
X196378941Y-105291048D01*
X196509969Y-105378598D01*
X196621402Y-105490031D01*
X196708952Y-105621059D01*
X196769257Y-105766650D01*
X196800000Y-105921205D01*
X196800000Y-106078795D01*
X196769257Y-106233350D01*
X196708952Y-106378941D01*
X196621402Y-106509969D01*
X196509969Y-106621402D01*
X196378941Y-106708952D01*
X196293656Y-106744278D01*
X196233351Y-106769257D01*
X196181832Y-106779505D01*
X196078795Y-106800000D01*
X195921205Y-106800000D01*
X195818168Y-106779505D01*
X195766649Y-106769257D01*
X195706344Y-106744278D01*
X195621059Y-106708952D01*
X195490031Y-106621402D01*
X195378598Y-106509969D01*
X195291048Y-106378941D01*
X195230743Y-106233350D01*
X195200000Y-106078795D01*
X195200000Y-105921205D01*
X195230743Y-105766650D01*
X195291048Y-105621059D01*
X195378598Y-105490031D01*
X195490031Y-105378598D01*
X195621059Y-105291048D01*
X195716813Y-105251386D01*
X195766649Y-105230743D01*
X195818168Y-105220495D01*
X195921205Y-105200000D01*
X196078795Y-105200000D01*
X196181832Y-105220495D01*
G37*
G36*
X194946034Y-100514469D02*
G01*
X195134536Y-100571651D01*
X195308256Y-100664506D01*
X195460528Y-100789472D01*
X195585494Y-100941744D01*
X195678349Y-101115464D01*
X195735531Y-101303966D01*
X195754838Y-101500000D01*
X195735531Y-101696034D01*
X195678349Y-101884536D01*
X195585494Y-102058256D01*
X195460528Y-102210528D01*
X195308256Y-102335494D01*
X195134536Y-102428349D01*
X194946034Y-102485531D01*
X194799124Y-102500000D01*
X193200876Y-102500000D01*
X193053966Y-102485531D01*
X192865464Y-102428349D01*
X192691744Y-102335494D01*
X192539472Y-102210528D01*
X192414506Y-102058256D01*
X192321651Y-101884536D01*
X192264469Y-101696034D01*
X192245162Y-101500000D01*
X192264469Y-101303966D01*
X192321651Y-101115464D01*
X192414506Y-100941744D01*
X192539472Y-100789472D01*
X192691744Y-100664506D01*
X192865464Y-100571651D01*
X193053966Y-100514469D01*
X193200876Y-100500000D01*
X194799124Y-100500000D01*
X194946034Y-100514469D01*
G37*
G36*
X188293779Y-92101879D02*
G01*
X188539463Y-92203645D01*
X188539465Y-92203646D01*
X188760575Y-92351387D01*
X188948613Y-92539425D01*
X188948614Y-92539427D01*
X189096355Y-92760537D01*
X189198121Y-93006221D01*
X189250000Y-93267035D01*
X189250000Y-93532965D01*
X189198121Y-93793779D01*
X189096355Y-94039463D01*
X189096354Y-94039465D01*
X188948613Y-94260575D01*
X188760575Y-94448613D01*
X188539465Y-94596354D01*
X188539464Y-94596355D01*
X188539463Y-94596355D01*
X188293779Y-94698121D01*
X188032965Y-94750000D01*
X187767035Y-94750000D01*
X187506221Y-94698121D01*
X187260537Y-94596355D01*
X187260536Y-94596355D01*
X187260535Y-94596354D01*
X187039425Y-94448613D01*
X186851387Y-94260575D01*
X186703646Y-94039465D01*
X186703645Y-94039463D01*
X186601879Y-93793779D01*
X186550000Y-93532965D01*
X186550000Y-93267035D01*
X186601879Y-93006221D01*
X186703645Y-92760537D01*
X186851386Y-92539427D01*
X186851387Y-92539425D01*
X187039425Y-92351387D01*
X187260535Y-92203646D01*
X187260537Y-92203645D01*
X187506221Y-92101879D01*
X187767035Y-92050000D01*
X188032965Y-92050000D01*
X188293779Y-92101879D01*
G37*
G36*
X176193779Y-92101879D02*
G01*
X176439463Y-92203645D01*
X176439465Y-92203646D01*
X176660575Y-92351387D01*
X176848613Y-92539425D01*
X176848614Y-92539427D01*
X176996355Y-92760537D01*
X177098121Y-93006221D01*
X177150000Y-93267035D01*
X177150000Y-93532965D01*
X177098121Y-93793779D01*
X176996355Y-94039463D01*
X176996354Y-94039465D01*
X176848613Y-94260575D01*
X176660575Y-94448613D01*
X176439465Y-94596354D01*
X176439464Y-94596355D01*
X176439463Y-94596355D01*
X176193779Y-94698121D01*
X175932965Y-94750000D01*
X175667035Y-94750000D01*
X175406221Y-94698121D01*
X175160537Y-94596355D01*
X175160536Y-94596355D01*
X175160535Y-94596354D01*
X174939425Y-94448613D01*
X174751387Y-94260575D01*
X174603646Y-94039465D01*
X174603645Y-94039463D01*
X174501879Y-93793779D01*
X174450000Y-93532965D01*
X174450000Y-93267035D01*
X174501879Y-93006221D01*
X174603645Y-92760537D01*
X174751386Y-92539427D01*
X174751387Y-92539425D01*
X174939425Y-92351387D01*
X175160535Y-92203646D01*
X175160537Y-92203645D01*
X175406221Y-92101879D01*
X175667035Y-92050000D01*
X175932965Y-92050000D01*
X176193779Y-92101879D01*
G37*
G36*
X198247934Y-84722664D02*
G01*
X198402625Y-84786739D01*
X198402626Y-84786740D01*
X198541844Y-84879762D01*
X198660238Y-84998156D01*
X198660239Y-84998158D01*
X198753261Y-85137375D01*
X198817336Y-85292066D01*
X198850000Y-85456281D01*
X198850000Y-85623719D01*
X198817336Y-85787934D01*
X198753261Y-85942625D01*
X198753260Y-85942626D01*
X198660238Y-86081844D01*
X198541844Y-86200238D01*
X198471762Y-86247065D01*
X198402625Y-86293261D01*
X198247934Y-86357336D01*
X198083719Y-86390000D01*
X197916281Y-86390000D01*
X197752066Y-86357336D01*
X197597375Y-86293261D01*
X197528238Y-86247065D01*
X197458156Y-86200238D01*
X197339762Y-86081844D01*
X197246740Y-85942626D01*
X197246739Y-85942625D01*
X197182664Y-85787934D01*
X197150000Y-85623719D01*
X197150000Y-85456281D01*
X197182664Y-85292066D01*
X197246739Y-85137375D01*
X197339761Y-84998158D01*
X197339762Y-84998156D01*
X197458156Y-84879762D01*
X197597374Y-84786740D01*
X197597375Y-84786739D01*
X197752066Y-84722664D01*
X197916281Y-84690000D01*
X198083719Y-84690000D01*
X198247934Y-84722664D01*
G37*
G36*
X198850000Y-83850000D02*
G01*
X197150000Y-83850000D01*
X197150000Y-82150000D01*
X198850000Y-82150000D01*
X198850000Y-83850000D01*
G37*
G36*
X181193779Y-72201879D02*
G01*
X181439463Y-72303645D01*
X181439465Y-72303646D01*
X181660575Y-72451387D01*
X181848613Y-72639425D01*
X181848614Y-72639427D01*
X181996355Y-72860537D01*
X182098121Y-73106221D01*
X182150000Y-73367035D01*
X182150000Y-73632965D01*
X182098121Y-73893779D01*
X181996355Y-74139463D01*
X181996354Y-74139465D01*
X181848613Y-74360575D01*
X181660575Y-74548613D01*
X181439465Y-74696354D01*
X181439464Y-74696355D01*
X181439463Y-74696355D01*
X181193779Y-74798121D01*
X180932965Y-74850000D01*
X180667035Y-74850000D01*
X180406221Y-74798121D01*
X180160537Y-74696355D01*
X180160536Y-74696355D01*
X180160535Y-74696354D01*
X179939425Y-74548613D01*
X179751387Y-74360575D01*
X179603646Y-74139465D01*
X179603645Y-74139463D01*
X179501879Y-73893779D01*
X179450000Y-73632965D01*
X179450000Y-73367035D01*
X179501879Y-73106221D01*
X179603645Y-72860537D01*
X179751386Y-72639427D01*
X179751387Y-72639425D01*
X179939425Y-72451387D01*
X180160535Y-72303646D01*
X180160537Y-72303645D01*
X180406221Y-72201879D01*
X180667035Y-72150000D01*
X180932965Y-72150000D01*
X181193779Y-72201879D01*
G37*
G36*
X161850000Y-73850000D02*
G01*
X160150000Y-73850000D01*
X160150000Y-72150000D01*
X161850000Y-72150000D01*
X161850000Y-73850000D01*
G37*
G36*
X163787934Y-72182664D02*
G01*
X163942625Y-72246739D01*
X163942626Y-72246740D01*
X164081844Y-72339762D01*
X164200238Y-72458156D01*
X164200239Y-72458158D01*
X164293261Y-72597375D01*
X164357336Y-72752066D01*
X164390000Y-72916281D01*
X164390000Y-73083719D01*
X164357336Y-73247934D01*
X164293261Y-73402625D01*
X164293260Y-73402626D01*
X164200238Y-73541844D01*
X164081844Y-73660238D01*
X164011762Y-73707065D01*
X163942625Y-73753261D01*
X163787934Y-73817336D01*
X163623719Y-73850000D01*
X163456281Y-73850000D01*
X163292066Y-73817336D01*
X163137375Y-73753261D01*
X163068238Y-73707065D01*
X162998156Y-73660238D01*
X162879762Y-73541844D01*
X162786740Y-73402626D01*
X162786739Y-73402625D01*
X162722664Y-73247934D01*
X162690000Y-73083719D01*
X162690000Y-72916281D01*
X162722664Y-72752066D01*
X162786739Y-72597375D01*
X162879761Y-72458158D01*
X162879762Y-72458156D01*
X162998156Y-72339762D01*
X163137374Y-72246740D01*
X163137375Y-72246739D01*
X163292066Y-72182664D01*
X163456281Y-72150000D01*
X163623719Y-72150000D01*
X163787934Y-72182664D01*
G37*
G36*
X166327934Y-72182664D02*
G01*
X166482625Y-72246739D01*
X166482626Y-72246740D01*
X166621844Y-72339762D01*
X166740238Y-72458156D01*
X166740239Y-72458158D01*
X166833261Y-72597375D01*
X166897336Y-72752066D01*
X166930000Y-72916281D01*
X166930000Y-73083719D01*
X166897336Y-73247934D01*
X166833261Y-73402625D01*
X166833260Y-73402626D01*
X166740238Y-73541844D01*
X166621844Y-73660238D01*
X166551762Y-73707065D01*
X166482625Y-73753261D01*
X166327934Y-73817336D01*
X166163719Y-73850000D01*
X165996281Y-73850000D01*
X165832066Y-73817336D01*
X165677375Y-73753261D01*
X165608238Y-73707065D01*
X165538156Y-73660238D01*
X165419762Y-73541844D01*
X165326740Y-73402626D01*
X165326739Y-73402625D01*
X165262664Y-73247934D01*
X165230000Y-73083719D01*
X165230000Y-72916281D01*
X165262664Y-72752066D01*
X165326739Y-72597375D01*
X165419761Y-72458158D01*
X165419762Y-72458156D01*
X165538156Y-72339762D01*
X165677374Y-72246740D01*
X165677375Y-72246739D01*
X165832066Y-72182664D01*
X165996281Y-72150000D01*
X166163719Y-72150000D01*
X166327934Y-72182664D01*
G37*
G36*
X168867934Y-72182664D02*
G01*
X169022625Y-72246739D01*
X169022626Y-72246740D01*
X169161844Y-72339762D01*
X169280238Y-72458156D01*
X169280239Y-72458158D01*
X169373261Y-72597375D01*
X169437336Y-72752066D01*
X169470000Y-72916281D01*
X169470000Y-73083719D01*
X169437336Y-73247934D01*
X169373261Y-73402625D01*
X169373260Y-73402626D01*
X169280238Y-73541844D01*
X169161844Y-73660238D01*
X169091762Y-73707065D01*
X169022625Y-73753261D01*
X168867934Y-73817336D01*
X168703719Y-73850000D01*
X168536281Y-73850000D01*
X168372066Y-73817336D01*
X168217375Y-73753261D01*
X168148238Y-73707065D01*
X168078156Y-73660238D01*
X167959762Y-73541844D01*
X167866740Y-73402626D01*
X167866739Y-73402625D01*
X167802664Y-73247934D01*
X167770000Y-73083719D01*
X167770000Y-72916281D01*
X167802664Y-72752066D01*
X167866739Y-72597375D01*
X167959761Y-72458158D01*
X167959762Y-72458156D01*
X168078156Y-72339762D01*
X168217374Y-72246740D01*
X168217375Y-72246739D01*
X168372066Y-72182664D01*
X168536281Y-72150000D01*
X168703719Y-72150000D01*
X168867934Y-72182664D01*
G37*
G36*
X171407934Y-72182664D02*
G01*
X171562625Y-72246739D01*
X171562626Y-72246740D01*
X171701844Y-72339762D01*
X171820238Y-72458156D01*
X171820239Y-72458158D01*
X171913261Y-72597375D01*
X171977336Y-72752066D01*
X172010000Y-72916281D01*
X172010000Y-73083719D01*
X171977336Y-73247934D01*
X171913261Y-73402625D01*
X171913260Y-73402626D01*
X171820238Y-73541844D01*
X171701844Y-73660238D01*
X171631762Y-73707065D01*
X171562625Y-73753261D01*
X171407934Y-73817336D01*
X171243719Y-73850000D01*
X171076281Y-73850000D01*
X170912066Y-73817336D01*
X170757375Y-73753261D01*
X170688238Y-73707065D01*
X170618156Y-73660238D01*
X170499762Y-73541844D01*
X170406740Y-73402626D01*
X170406739Y-73402625D01*
X170342664Y-73247934D01*
X170310000Y-73083719D01*
X170310000Y-72916281D01*
X170342664Y-72752066D01*
X170406739Y-72597375D01*
X170499761Y-72458158D01*
X170499762Y-72458156D01*
X170618156Y-72339762D01*
X170757374Y-72246740D01*
X170757375Y-72246739D01*
X170912066Y-72182664D01*
X171076281Y-72150000D01*
X171243719Y-72150000D01*
X171407934Y-72182664D01*
G37*
G36*
X173947934Y-72182664D02*
G01*
X174102625Y-72246739D01*
X174102626Y-72246740D01*
X174241844Y-72339762D01*
X174360238Y-72458156D01*
X174360239Y-72458158D01*
X174453261Y-72597375D01*
X174517336Y-72752066D01*
X174550000Y-72916281D01*
X174550000Y-73083719D01*
X174517336Y-73247934D01*
X174453261Y-73402625D01*
X174453260Y-73402626D01*
X174360238Y-73541844D01*
X174241844Y-73660238D01*
X174171762Y-73707065D01*
X174102625Y-73753261D01*
X173947934Y-73817336D01*
X173783719Y-73850000D01*
X173616281Y-73850000D01*
X173452066Y-73817336D01*
X173297375Y-73753261D01*
X173228238Y-73707065D01*
X173158156Y-73660238D01*
X173039762Y-73541844D01*
X172946740Y-73402626D01*
X172946739Y-73402625D01*
X172882664Y-73247934D01*
X172850000Y-73083719D01*
X172850000Y-72916281D01*
X172882664Y-72752066D01*
X172946739Y-72597375D01*
X173039761Y-72458158D01*
X173039762Y-72458156D01*
X173158156Y-72339762D01*
X173297374Y-72246740D01*
X173297375Y-72246739D01*
X173452066Y-72182664D01*
X173616281Y-72150000D01*
X173783719Y-72150000D01*
X173947934Y-72182664D01*
G37*
M02*
