G04 #@! TF.GenerationSoftware,KiCad,Pcbnew,5.1.6*
G04 #@! TF.CreationDate,2020-07-27T17:19:51+02:00*
G04 #@! TF.ProjectId,motor-board,6d6f746f-722d-4626-9f61-72642e6b6963,1*
G04 #@! TF.SameCoordinates,Original*
G04 #@! TF.FileFunction,Paste,Top*
G04 #@! TF.FilePolarity,Positive*
%FSLAX46Y46*%
G04 Gerber Fmt 4.6, Leading zero omitted, Abs format (unit mm)*
G04 Created by KiCad (PCBNEW 5.1.6) date 2020-07-27 17:19:51*
%MOMM*%
%LPD*%
G01*
G04 APERTURE LIST*
%ADD10R,0.650000X1.560000*%
%ADD11R,1.525000X0.650000*%
%ADD12R,2.390000X2.390000*%
%ADD13R,1.560000X0.650000*%
G04 APERTURE END LIST*
G36*
G01*
X158450001Y-119925000D02*
X157549999Y-119925000D01*
G75*
G02*
X157300000Y-119675001I0J249999D01*
G01*
X157300000Y-119024999D01*
G75*
G02*
X157549999Y-118775000I249999J0D01*
G01*
X158450001Y-118775000D01*
G75*
G02*
X158700000Y-119024999I0J-249999D01*
G01*
X158700000Y-119675001D01*
G75*
G02*
X158450001Y-119925000I-249999J0D01*
G01*
G37*
G36*
G01*
X158450001Y-121975000D02*
X157549999Y-121975000D01*
G75*
G02*
X157300000Y-121725001I0J249999D01*
G01*
X157300000Y-121074999D01*
G75*
G02*
X157549999Y-120825000I249999J0D01*
G01*
X158450001Y-120825000D01*
G75*
G02*
X158700000Y-121074999I0J-249999D01*
G01*
X158700000Y-121725001D01*
G75*
G02*
X158450001Y-121975000I-249999J0D01*
G01*
G37*
G36*
G01*
X177550000Y-99949600D02*
X177550000Y-101050400D01*
G75*
G02*
X177300400Y-101300000I-249600J0D01*
G01*
X174299600Y-101300000D01*
G75*
G02*
X174050000Y-101050400I0J249600D01*
G01*
X174050000Y-99949600D01*
G75*
G02*
X174299600Y-99700000I249600J0D01*
G01*
X177300400Y-99700000D01*
G75*
G02*
X177550000Y-99949600I0J-249600D01*
G01*
G37*
G36*
G01*
X172150000Y-99950000D02*
X172150000Y-101050000D01*
G75*
G02*
X171900000Y-101300000I-250000J0D01*
G01*
X168900000Y-101300000D01*
G75*
G02*
X168650000Y-101050000I0J250000D01*
G01*
X168650000Y-99950000D01*
G75*
G02*
X168900000Y-99700000I250000J0D01*
G01*
X171900000Y-99700000D01*
G75*
G02*
X172150000Y-99950000I0J-250000D01*
G01*
G37*
G36*
G01*
X183250000Y-89150001D02*
X183250000Y-88249999D01*
G75*
G02*
X183499999Y-88000000I249999J0D01*
G01*
X184150001Y-88000000D01*
G75*
G02*
X184400000Y-88249999I0J-249999D01*
G01*
X184400000Y-89150001D01*
G75*
G02*
X184150001Y-89400000I-249999J0D01*
G01*
X183499999Y-89400000D01*
G75*
G02*
X183250000Y-89150001I0J249999D01*
G01*
G37*
G36*
G01*
X181200000Y-89150450D02*
X181200000Y-88249550D01*
G75*
G02*
X181449550Y-88000000I249550J0D01*
G01*
X182100450Y-88000000D01*
G75*
G02*
X182350000Y-88249550I0J-249550D01*
G01*
X182350000Y-89150450D01*
G75*
G02*
X182100450Y-89400000I-249550J0D01*
G01*
X181449550Y-89400000D01*
G75*
G02*
X181200000Y-89150450I0J249550D01*
G01*
G37*
G36*
G01*
X183625000Y-110049999D02*
X183625000Y-110950001D01*
G75*
G02*
X183375001Y-111200000I-249999J0D01*
G01*
X182724999Y-111200000D01*
G75*
G02*
X182475000Y-110950001I0J249999D01*
G01*
X182475000Y-110049999D01*
G75*
G02*
X182724999Y-109800000I249999J0D01*
G01*
X183375001Y-109800000D01*
G75*
G02*
X183625000Y-110049999I0J-249999D01*
G01*
G37*
G36*
G01*
X181575000Y-110049999D02*
X181575000Y-110950001D01*
G75*
G02*
X181325001Y-111200000I-249999J0D01*
G01*
X180674999Y-111200000D01*
G75*
G02*
X180425000Y-110950001I0J249999D01*
G01*
X180425000Y-110049999D01*
G75*
G02*
X180674999Y-109800000I249999J0D01*
G01*
X181325001Y-109800000D01*
G75*
G02*
X181575000Y-110049999I0J-249999D01*
G01*
G37*
G36*
G01*
X182475000Y-103200001D02*
X182475000Y-102299999D01*
G75*
G02*
X182724999Y-102050000I249999J0D01*
G01*
X183375001Y-102050000D01*
G75*
G02*
X183625000Y-102299999I0J-249999D01*
G01*
X183625000Y-103200001D01*
G75*
G02*
X183375001Y-103450000I-249999J0D01*
G01*
X182724999Y-103450000D01*
G75*
G02*
X182475000Y-103200001I0J249999D01*
G01*
G37*
G36*
G01*
X180425000Y-103200450D02*
X180425000Y-102299550D01*
G75*
G02*
X180674550Y-102050000I249550J0D01*
G01*
X181325450Y-102050000D01*
G75*
G02*
X181575000Y-102299550I0J-249550D01*
G01*
X181575000Y-103200450D01*
G75*
G02*
X181325450Y-103450000I-249550J0D01*
G01*
X180674550Y-103450000D01*
G75*
G02*
X180425000Y-103200450I0J249550D01*
G01*
G37*
G36*
G01*
X171925000Y-86849999D02*
X171925000Y-87750001D01*
G75*
G02*
X171675001Y-88000000I-249999J0D01*
G01*
X171024999Y-88000000D01*
G75*
G02*
X170775000Y-87750001I0J249999D01*
G01*
X170775000Y-86849999D01*
G75*
G02*
X171024999Y-86600000I249999J0D01*
G01*
X171675001Y-86600000D01*
G75*
G02*
X171925000Y-86849999I0J-249999D01*
G01*
G37*
G36*
G01*
X169875000Y-86849999D02*
X169875000Y-87750001D01*
G75*
G02*
X169625001Y-88000000I-249999J0D01*
G01*
X168974999Y-88000000D01*
G75*
G02*
X168725000Y-87750001I0J249999D01*
G01*
X168725000Y-86849999D01*
G75*
G02*
X168974999Y-86600000I249999J0D01*
G01*
X169625001Y-86600000D01*
G75*
G02*
X169875000Y-86849999I0J-249999D01*
G01*
G37*
G36*
G01*
X186050001Y-78975000D02*
X185149999Y-78975000D01*
G75*
G02*
X184900000Y-78725001I0J249999D01*
G01*
X184900000Y-78074999D01*
G75*
G02*
X185149999Y-77825000I249999J0D01*
G01*
X186050001Y-77825000D01*
G75*
G02*
X186300000Y-78074999I0J-249999D01*
G01*
X186300000Y-78725001D01*
G75*
G02*
X186050001Y-78975000I-249999J0D01*
G01*
G37*
G36*
G01*
X186050001Y-76925000D02*
X185149999Y-76925000D01*
G75*
G02*
X184900000Y-76675001I0J249999D01*
G01*
X184900000Y-76024999D01*
G75*
G02*
X185149999Y-75775000I249999J0D01*
G01*
X186050001Y-75775000D01*
G75*
G02*
X186300000Y-76024999I0J-249999D01*
G01*
X186300000Y-76675001D01*
G75*
G02*
X186050001Y-76925000I-249999J0D01*
G01*
G37*
G36*
G01*
X159950001Y-86025000D02*
X159049999Y-86025000D01*
G75*
G02*
X158800000Y-85775001I0J249999D01*
G01*
X158800000Y-85124999D01*
G75*
G02*
X159049999Y-84875000I249999J0D01*
G01*
X159950001Y-84875000D01*
G75*
G02*
X160200000Y-85124999I0J-249999D01*
G01*
X160200000Y-85775001D01*
G75*
G02*
X159950001Y-86025000I-249999J0D01*
G01*
G37*
G36*
G01*
X159950001Y-88075000D02*
X159049999Y-88075000D01*
G75*
G02*
X158800000Y-87825001I0J249999D01*
G01*
X158800000Y-87174999D01*
G75*
G02*
X159049999Y-86925000I249999J0D01*
G01*
X159950001Y-86925000D01*
G75*
G02*
X160200000Y-87174999I0J-249999D01*
G01*
X160200000Y-87825001D01*
G75*
G02*
X159950001Y-88075000I-249999J0D01*
G01*
G37*
G36*
G01*
X175550000Y-88549999D02*
X175550000Y-89450001D01*
G75*
G02*
X175300001Y-89700000I-249999J0D01*
G01*
X174649999Y-89700000D01*
G75*
G02*
X174400000Y-89450001I0J249999D01*
G01*
X174400000Y-88549999D01*
G75*
G02*
X174649999Y-88300000I249999J0D01*
G01*
X175300001Y-88300000D01*
G75*
G02*
X175550000Y-88549999I0J-249999D01*
G01*
G37*
G36*
G01*
X177600000Y-88549550D02*
X177600000Y-89450450D01*
G75*
G02*
X177350450Y-89700000I-249550J0D01*
G01*
X176699550Y-89700000D01*
G75*
G02*
X176450000Y-89450450I0J249550D01*
G01*
X176450000Y-88549550D01*
G75*
G02*
X176699550Y-88300000I249550J0D01*
G01*
X177350450Y-88300000D01*
G75*
G02*
X177600000Y-88549550I0J-249550D01*
G01*
G37*
G36*
G01*
X178225000Y-79849999D02*
X178225000Y-80750001D01*
G75*
G02*
X177975001Y-81000000I-249999J0D01*
G01*
X177324999Y-81000000D01*
G75*
G02*
X177075000Y-80750001I0J249999D01*
G01*
X177075000Y-79849999D01*
G75*
G02*
X177324999Y-79600000I249999J0D01*
G01*
X177975001Y-79600000D01*
G75*
G02*
X178225000Y-79849999I0J-249999D01*
G01*
G37*
G36*
G01*
X176175000Y-79849999D02*
X176175000Y-80750001D01*
G75*
G02*
X175925001Y-81000000I-249999J0D01*
G01*
X175274999Y-81000000D01*
G75*
G02*
X175025000Y-80750001I0J249999D01*
G01*
X175025000Y-79849999D01*
G75*
G02*
X175274999Y-79600000I249999J0D01*
G01*
X175925001Y-79600000D01*
G75*
G02*
X176175000Y-79849999I0J-249999D01*
G01*
G37*
G36*
G01*
X195925000Y-76849999D02*
X195925000Y-77750001D01*
G75*
G02*
X195675001Y-78000000I-249999J0D01*
G01*
X195024999Y-78000000D01*
G75*
G02*
X194775000Y-77750001I0J249999D01*
G01*
X194775000Y-76849999D01*
G75*
G02*
X195024999Y-76600000I249999J0D01*
G01*
X195675001Y-76600000D01*
G75*
G02*
X195925000Y-76849999I0J-249999D01*
G01*
G37*
G36*
G01*
X193875000Y-76849999D02*
X193875000Y-77750001D01*
G75*
G02*
X193625001Y-78000000I-249999J0D01*
G01*
X192974999Y-78000000D01*
G75*
G02*
X192725000Y-77750001I0J249999D01*
G01*
X192725000Y-76849999D01*
G75*
G02*
X192974999Y-76600000I249999J0D01*
G01*
X193625001Y-76600000D01*
G75*
G02*
X193875000Y-76849999I0J-249999D01*
G01*
G37*
G36*
G01*
X169875000Y-89249999D02*
X169875000Y-90150001D01*
G75*
G02*
X169625001Y-90400000I-249999J0D01*
G01*
X168974999Y-90400000D01*
G75*
G02*
X168725000Y-90150001I0J249999D01*
G01*
X168725000Y-89249999D01*
G75*
G02*
X168974999Y-89000000I249999J0D01*
G01*
X169625001Y-89000000D01*
G75*
G02*
X169875000Y-89249999I0J-249999D01*
G01*
G37*
G36*
G01*
X171925000Y-89249999D02*
X171925000Y-90150001D01*
G75*
G02*
X171675001Y-90400000I-249999J0D01*
G01*
X171024999Y-90400000D01*
G75*
G02*
X170775000Y-90150001I0J249999D01*
G01*
X170775000Y-89249999D01*
G75*
G02*
X171024999Y-89000000I249999J0D01*
G01*
X171675001Y-89000000D01*
G75*
G02*
X171925000Y-89249999I0J-249999D01*
G01*
G37*
G36*
G01*
X189875000Y-76849999D02*
X189875000Y-77750001D01*
G75*
G02*
X189625001Y-78000000I-249999J0D01*
G01*
X188974999Y-78000000D01*
G75*
G02*
X188725000Y-77750001I0J249999D01*
G01*
X188725000Y-76849999D01*
G75*
G02*
X188974999Y-76600000I249999J0D01*
G01*
X189625001Y-76600000D01*
G75*
G02*
X189875000Y-76849999I0J-249999D01*
G01*
G37*
G36*
G01*
X191925000Y-76849999D02*
X191925000Y-77750001D01*
G75*
G02*
X191675001Y-78000000I-249999J0D01*
G01*
X191024999Y-78000000D01*
G75*
G02*
X190775000Y-77750001I0J249999D01*
G01*
X190775000Y-76849999D01*
G75*
G02*
X191024999Y-76600000I249999J0D01*
G01*
X191675001Y-76600000D01*
G75*
G02*
X191925000Y-76849999I0J-249999D01*
G01*
G37*
G36*
G01*
X191925000Y-79249999D02*
X191925000Y-80150001D01*
G75*
G02*
X191675001Y-80400000I-249999J0D01*
G01*
X191024999Y-80400000D01*
G75*
G02*
X190775000Y-80150001I0J249999D01*
G01*
X190775000Y-79249999D01*
G75*
G02*
X191024999Y-79000000I249999J0D01*
G01*
X191675001Y-79000000D01*
G75*
G02*
X191925000Y-79249999I0J-249999D01*
G01*
G37*
G36*
G01*
X189875000Y-79249999D02*
X189875000Y-80150001D01*
G75*
G02*
X189625001Y-80400000I-249999J0D01*
G01*
X188974999Y-80400000D01*
G75*
G02*
X188725000Y-80150001I0J249999D01*
G01*
X188725000Y-79249999D01*
G75*
G02*
X188974999Y-79000000I249999J0D01*
G01*
X189625001Y-79000000D01*
G75*
G02*
X189875000Y-79249999I0J-249999D01*
G01*
G37*
G36*
G01*
X163549999Y-89375000D02*
X164450001Y-89375000D01*
G75*
G02*
X164700000Y-89624999I0J-249999D01*
G01*
X164700000Y-90275001D01*
G75*
G02*
X164450001Y-90525000I-249999J0D01*
G01*
X163549999Y-90525000D01*
G75*
G02*
X163300000Y-90275001I0J249999D01*
G01*
X163300000Y-89624999D01*
G75*
G02*
X163549999Y-89375000I249999J0D01*
G01*
G37*
G36*
G01*
X163549999Y-91425000D02*
X164450001Y-91425000D01*
G75*
G02*
X164700000Y-91674999I0J-249999D01*
G01*
X164700000Y-92325001D01*
G75*
G02*
X164450001Y-92575000I-249999J0D01*
G01*
X163549999Y-92575000D01*
G75*
G02*
X163300000Y-92325001I0J249999D01*
G01*
X163300000Y-91674999D01*
G75*
G02*
X163549999Y-91425000I249999J0D01*
G01*
G37*
G36*
G01*
X162950001Y-99925000D02*
X162049999Y-99925000D01*
G75*
G02*
X161800000Y-99675001I0J249999D01*
G01*
X161800000Y-99024999D01*
G75*
G02*
X162049999Y-98775000I249999J0D01*
G01*
X162950001Y-98775000D01*
G75*
G02*
X163200000Y-99024999I0J-249999D01*
G01*
X163200000Y-99675001D01*
G75*
G02*
X162950001Y-99925000I-249999J0D01*
G01*
G37*
G36*
G01*
X162950001Y-97875000D02*
X162049999Y-97875000D01*
G75*
G02*
X161800000Y-97625001I0J249999D01*
G01*
X161800000Y-96974999D01*
G75*
G02*
X162049999Y-96725000I249999J0D01*
G01*
X162950001Y-96725000D01*
G75*
G02*
X163200000Y-96974999I0J-249999D01*
G01*
X163200000Y-97625001D01*
G75*
G02*
X162950001Y-97875000I-249999J0D01*
G01*
G37*
G36*
G01*
X159049999Y-95975000D02*
X159950001Y-95975000D01*
G75*
G02*
X160200000Y-96224999I0J-249999D01*
G01*
X160200000Y-96875001D01*
G75*
G02*
X159950001Y-97125000I-249999J0D01*
G01*
X159049999Y-97125000D01*
G75*
G02*
X158800000Y-96875001I0J249999D01*
G01*
X158800000Y-96224999D01*
G75*
G02*
X159049999Y-95975000I249999J0D01*
G01*
G37*
G36*
G01*
X159049999Y-93925000D02*
X159950001Y-93925000D01*
G75*
G02*
X160200000Y-94174999I0J-249999D01*
G01*
X160200000Y-94825001D01*
G75*
G02*
X159950001Y-95075000I-249999J0D01*
G01*
X159049999Y-95075000D01*
G75*
G02*
X158800000Y-94825001I0J249999D01*
G01*
X158800000Y-94174999D01*
G75*
G02*
X159049999Y-93925000I249999J0D01*
G01*
G37*
G36*
G01*
X169450001Y-111575000D02*
X168549999Y-111575000D01*
G75*
G02*
X168300000Y-111325001I0J249999D01*
G01*
X168300000Y-110674999D01*
G75*
G02*
X168549999Y-110425000I249999J0D01*
G01*
X169450001Y-110425000D01*
G75*
G02*
X169700000Y-110674999I0J-249999D01*
G01*
X169700000Y-111325001D01*
G75*
G02*
X169450001Y-111575000I-249999J0D01*
G01*
G37*
G36*
G01*
X169450001Y-109525000D02*
X168549999Y-109525000D01*
G75*
G02*
X168300000Y-109275001I0J249999D01*
G01*
X168300000Y-108624999D01*
G75*
G02*
X168549999Y-108375000I249999J0D01*
G01*
X169450001Y-108375000D01*
G75*
G02*
X169700000Y-108624999I0J-249999D01*
G01*
X169700000Y-109275001D01*
G75*
G02*
X169450001Y-109525000I-249999J0D01*
G01*
G37*
G36*
G01*
X165550001Y-97875000D02*
X164649999Y-97875000D01*
G75*
G02*
X164400000Y-97625001I0J249999D01*
G01*
X164400000Y-96974999D01*
G75*
G02*
X164649999Y-96725000I249999J0D01*
G01*
X165550001Y-96725000D01*
G75*
G02*
X165800000Y-96974999I0J-249999D01*
G01*
X165800000Y-97625001D01*
G75*
G02*
X165550001Y-97875000I-249999J0D01*
G01*
G37*
G36*
G01*
X165550001Y-99925000D02*
X164649999Y-99925000D01*
G75*
G02*
X164400000Y-99675001I0J249999D01*
G01*
X164400000Y-99024999D01*
G75*
G02*
X164649999Y-98775000I249999J0D01*
G01*
X165550001Y-98775000D01*
G75*
G02*
X165800000Y-99024999I0J-249999D01*
G01*
X165800000Y-99675001D01*
G75*
G02*
X165550001Y-99925000I-249999J0D01*
G01*
G37*
D10*
X181175000Y-107975000D03*
X182125000Y-107975000D03*
X183075000Y-107975000D03*
X183075000Y-105275000D03*
X181175000Y-105275000D03*
D11*
X173876000Y-82830000D03*
X173876000Y-84100000D03*
X173876000Y-85370000D03*
X173876000Y-86640000D03*
X179300000Y-86640000D03*
X179300000Y-85370000D03*
X179300000Y-84100000D03*
X179300000Y-82830000D03*
D12*
X176588000Y-84735000D03*
D13*
X180700000Y-78400000D03*
X180700000Y-79350000D03*
X180700000Y-80300000D03*
X183400000Y-80300000D03*
X183400000Y-78400000D03*
D10*
X159675000Y-89525000D03*
X161575000Y-89525000D03*
X161575000Y-92225000D03*
X160625000Y-92225000D03*
X159675000Y-92225000D03*
M02*
