G04 #@! TF.GenerationSoftware,KiCad,Pcbnew,5.1.6*
G04 #@! TF.CreationDate,2020-07-27T17:19:51+02:00*
G04 #@! TF.ProjectId,motor-board,6d6f746f-722d-4626-9f61-72642e6b6963,1*
G04 #@! TF.SameCoordinates,Original*
G04 #@! TF.FileFunction,Copper,L2,Bot*
G04 #@! TF.FilePolarity,Positive*
%FSLAX46Y46*%
G04 Gerber Fmt 4.6, Leading zero omitted, Abs format (unit mm)*
G04 Created by KiCad (PCBNEW 5.1.6) date 2020-07-27 17:19:51*
%MOMM*%
%LPD*%
G01*
G04 APERTURE LIST*
G04 #@! TA.AperFunction,ComponentPad*
%ADD10R,2.000000X4.000000*%
G04 #@! TD*
G04 #@! TA.AperFunction,ComponentPad*
%ADD11O,2.000000X3.300000*%
G04 #@! TD*
G04 #@! TA.AperFunction,ComponentPad*
%ADD12O,3.500000X2.000000*%
G04 #@! TD*
G04 #@! TA.AperFunction,ComponentPad*
%ADD13R,1.700000X1.700000*%
G04 #@! TD*
G04 #@! TA.AperFunction,ComponentPad*
%ADD14O,1.700000X1.700000*%
G04 #@! TD*
G04 #@! TA.AperFunction,ComponentPad*
%ADD15C,1.200000*%
G04 #@! TD*
G04 #@! TA.AperFunction,ViaPad*
%ADD16C,0.800000*%
G04 #@! TD*
G04 #@! TA.AperFunction,ViaPad*
%ADD17C,1.000000*%
G04 #@! TD*
G04 #@! TA.AperFunction,Conductor*
%ADD18C,0.254000*%
G04 #@! TD*
G04 APERTURE END LIST*
D10*
X187000000Y-106000000D03*
D11*
X193000000Y-106000000D03*
D12*
X194000000Y-110500000D03*
X194000000Y-101500000D03*
D13*
X198000000Y-83000000D03*
D14*
X198000000Y-85540000D03*
D13*
X161000000Y-73000000D03*
D14*
X163540000Y-73000000D03*
X166080000Y-73000000D03*
X168620000Y-73000000D03*
X171160000Y-73000000D03*
X173700000Y-73000000D03*
D15*
X164270000Y-120800000D03*
X161730000Y-120800000D03*
X161730000Y-113200000D03*
X164270000Y-113200000D03*
D16*
X176590000Y-85430000D03*
X175890000Y-84730000D03*
X176590000Y-84040000D03*
X177280000Y-84720000D03*
D17*
X174399994Y-80300000D03*
X172629974Y-82830000D03*
X169000000Y-107600000D03*
D16*
X182125000Y-109175000D03*
X165100000Y-96300000D03*
X160714995Y-93374151D03*
X167900000Y-87300000D03*
X167900000Y-89700000D03*
X179250000Y-79350000D03*
X192700000Y-79700000D03*
X196700000Y-77300000D03*
D17*
X158000000Y-118300000D03*
X179600000Y-109800002D03*
X179600000Y-111149998D03*
X184200000Y-103200000D03*
X184200000Y-102150000D03*
D16*
X184900002Y-89200000D03*
X184900002Y-88200000D03*
X185050000Y-75100000D03*
X186200000Y-75100000D03*
X160099994Y-84250000D03*
X158900000Y-84250000D03*
X167999994Y-100500000D03*
X167999992Y-99450000D03*
X167999994Y-101500000D03*
D18*
G36*
X199254782Y-70713267D02*
G01*
X199499855Y-70787259D01*
X199725890Y-70907443D01*
X199924281Y-71069248D01*
X200087460Y-71266497D01*
X200209220Y-71491687D01*
X200284924Y-71736247D01*
X200315001Y-72022408D01*
X200315000Y-111966495D01*
X200286733Y-112254782D01*
X200212741Y-112499855D01*
X200092554Y-112725893D01*
X199930754Y-112924279D01*
X199733503Y-113087460D01*
X199508310Y-113209221D01*
X199263753Y-113284924D01*
X198977602Y-113315000D01*
X171966353Y-113315000D01*
X171936355Y-113317955D01*
X171923953Y-113317868D01*
X171914434Y-113318802D01*
X171526242Y-113359603D01*
X171465461Y-113372080D01*
X171404440Y-113383720D01*
X171395284Y-113386484D01*
X171022409Y-113501908D01*
X170965163Y-113525972D01*
X170907612Y-113549224D01*
X170899167Y-113553714D01*
X170555812Y-113739365D01*
X170504344Y-113774081D01*
X170452389Y-113808080D01*
X170444978Y-113814124D01*
X170373809Y-113873000D01*
X170000000Y-113873000D01*
X169975224Y-113875440D01*
X169951399Y-113882667D01*
X169929443Y-113894403D01*
X169910197Y-113910197D01*
X169894403Y-113929443D01*
X169882667Y-113951399D01*
X169875440Y-113975224D01*
X169873000Y-114000000D01*
X169873000Y-114374842D01*
X169803321Y-114460277D01*
X169768960Y-114511995D01*
X169733888Y-114563216D01*
X169729339Y-114571629D01*
X169546089Y-114916270D01*
X169522418Y-114973700D01*
X169497972Y-115030737D01*
X169495144Y-115039873D01*
X169382326Y-115413545D01*
X169370265Y-115474455D01*
X169357359Y-115535174D01*
X169356359Y-115544686D01*
X169318269Y-115933155D01*
X169318269Y-115933173D01*
X169315001Y-115966353D01*
X169315000Y-122966494D01*
X169286733Y-123254782D01*
X169212741Y-123499855D01*
X169092554Y-123725893D01*
X168930754Y-123924279D01*
X168733503Y-124087460D01*
X168508310Y-124209221D01*
X168263753Y-124284924D01*
X167977602Y-124315000D01*
X158033505Y-124315000D01*
X157745218Y-124286733D01*
X157500145Y-124212741D01*
X157274107Y-124092554D01*
X157075721Y-123930754D01*
X156912540Y-123733503D01*
X156790779Y-123508310D01*
X156715076Y-123263753D01*
X156685000Y-122977602D01*
X156685000Y-120678363D01*
X160495000Y-120678363D01*
X160495000Y-120921637D01*
X160542460Y-121160236D01*
X160635557Y-121384992D01*
X160770713Y-121587267D01*
X160942733Y-121759287D01*
X161145008Y-121894443D01*
X161369764Y-121987540D01*
X161608363Y-122035000D01*
X161851637Y-122035000D01*
X162090236Y-121987540D01*
X162314992Y-121894443D01*
X162517267Y-121759287D01*
X162689287Y-121587267D01*
X162824443Y-121384992D01*
X162917540Y-121160236D01*
X162965000Y-120921637D01*
X162965000Y-120678363D01*
X163035000Y-120678363D01*
X163035000Y-120921637D01*
X163082460Y-121160236D01*
X163175557Y-121384992D01*
X163310713Y-121587267D01*
X163482733Y-121759287D01*
X163685008Y-121894443D01*
X163909764Y-121987540D01*
X164148363Y-122035000D01*
X164391637Y-122035000D01*
X164630236Y-121987540D01*
X164854992Y-121894443D01*
X165057267Y-121759287D01*
X165229287Y-121587267D01*
X165364443Y-121384992D01*
X165457540Y-121160236D01*
X165505000Y-120921637D01*
X165505000Y-120678363D01*
X165457540Y-120439764D01*
X165364443Y-120215008D01*
X165229287Y-120012733D01*
X165057267Y-119840713D01*
X164854992Y-119705557D01*
X164630236Y-119612460D01*
X164391637Y-119565000D01*
X164148363Y-119565000D01*
X163909764Y-119612460D01*
X163685008Y-119705557D01*
X163482733Y-119840713D01*
X163310713Y-120012733D01*
X163175557Y-120215008D01*
X163082460Y-120439764D01*
X163035000Y-120678363D01*
X162965000Y-120678363D01*
X162917540Y-120439764D01*
X162824443Y-120215008D01*
X162689287Y-120012733D01*
X162517267Y-119840713D01*
X162314992Y-119705557D01*
X162090236Y-119612460D01*
X161851637Y-119565000D01*
X161608363Y-119565000D01*
X161369764Y-119612460D01*
X161145008Y-119705557D01*
X160942733Y-119840713D01*
X160770713Y-120012733D01*
X160635557Y-120215008D01*
X160542460Y-120439764D01*
X160495000Y-120678363D01*
X156685000Y-120678363D01*
X156685000Y-113078363D01*
X160495000Y-113078363D01*
X160495000Y-113321637D01*
X160542460Y-113560236D01*
X160635557Y-113784992D01*
X160770713Y-113987267D01*
X160942733Y-114159287D01*
X161145008Y-114294443D01*
X161369764Y-114387540D01*
X161608363Y-114435000D01*
X161851637Y-114435000D01*
X162090236Y-114387540D01*
X162314992Y-114294443D01*
X162517267Y-114159287D01*
X162689287Y-113987267D01*
X162824443Y-113784992D01*
X162917540Y-113560236D01*
X162965000Y-113321637D01*
X162965000Y-113078363D01*
X163035000Y-113078363D01*
X163035000Y-113321637D01*
X163082460Y-113560236D01*
X163175557Y-113784992D01*
X163310713Y-113987267D01*
X163482733Y-114159287D01*
X163685008Y-114294443D01*
X163909764Y-114387540D01*
X164148363Y-114435000D01*
X164391637Y-114435000D01*
X164630236Y-114387540D01*
X164854992Y-114294443D01*
X165057267Y-114159287D01*
X165229287Y-113987267D01*
X165364443Y-113784992D01*
X165457540Y-113560236D01*
X165505000Y-113321637D01*
X165505000Y-113078363D01*
X165457540Y-112839764D01*
X165364443Y-112615008D01*
X165229287Y-112412733D01*
X165057267Y-112240713D01*
X164854992Y-112105557D01*
X164630236Y-112012460D01*
X164391637Y-111965000D01*
X164148363Y-111965000D01*
X163909764Y-112012460D01*
X163685008Y-112105557D01*
X163482733Y-112240713D01*
X163310713Y-112412733D01*
X163175557Y-112615008D01*
X163082460Y-112839764D01*
X163035000Y-113078363D01*
X162965000Y-113078363D01*
X162917540Y-112839764D01*
X162824443Y-112615008D01*
X162689287Y-112412733D01*
X162517267Y-112240713D01*
X162314992Y-112105557D01*
X162090236Y-112012460D01*
X161851637Y-111965000D01*
X161608363Y-111965000D01*
X161369764Y-112012460D01*
X161145008Y-112105557D01*
X160942733Y-112240713D01*
X160770713Y-112412733D01*
X160635557Y-112615008D01*
X160542460Y-112839764D01*
X160495000Y-113078363D01*
X156685000Y-113078363D01*
X156685000Y-110500000D01*
X191607089Y-110500000D01*
X191638657Y-110820516D01*
X191732148Y-111128715D01*
X191883969Y-111412752D01*
X192088286Y-111661714D01*
X192337248Y-111866031D01*
X192621285Y-112017852D01*
X192929484Y-112111343D01*
X193169678Y-112135000D01*
X194830322Y-112135000D01*
X195070516Y-112111343D01*
X195378715Y-112017852D01*
X195662752Y-111866031D01*
X195911714Y-111661714D01*
X196116031Y-111412752D01*
X196267852Y-111128715D01*
X196361343Y-110820516D01*
X196392911Y-110500000D01*
X196361343Y-110179484D01*
X196267852Y-109871285D01*
X196116031Y-109587248D01*
X195911714Y-109338286D01*
X195662752Y-109133969D01*
X195378715Y-108982148D01*
X195070516Y-108888657D01*
X194830322Y-108865000D01*
X193169678Y-108865000D01*
X192929484Y-108888657D01*
X192621285Y-108982148D01*
X192337248Y-109133969D01*
X192088286Y-109338286D01*
X191883969Y-109587248D01*
X191732148Y-109871285D01*
X191638657Y-110179484D01*
X191607089Y-110500000D01*
X156685000Y-110500000D01*
X156685000Y-106104495D01*
X160815000Y-106104495D01*
X160815000Y-106495505D01*
X160891282Y-106879003D01*
X161040915Y-107240250D01*
X161258149Y-107565364D01*
X161534636Y-107841851D01*
X161859750Y-108059085D01*
X162220997Y-108208718D01*
X162604495Y-108285000D01*
X162995505Y-108285000D01*
X163379003Y-108208718D01*
X163740250Y-108059085D01*
X164065364Y-107841851D01*
X164341851Y-107565364D01*
X164559085Y-107240250D01*
X164708718Y-106879003D01*
X164785000Y-106495505D01*
X164785000Y-106104495D01*
X164708718Y-105720997D01*
X164559085Y-105359750D01*
X164341851Y-105034636D01*
X164065364Y-104758149D01*
X163740250Y-104540915D01*
X163379003Y-104391282D01*
X162995505Y-104315000D01*
X162604495Y-104315000D01*
X162220997Y-104391282D01*
X161859750Y-104540915D01*
X161534636Y-104758149D01*
X161258149Y-105034636D01*
X161040915Y-105359750D01*
X160891282Y-105720997D01*
X160815000Y-106104495D01*
X156685000Y-106104495D01*
X156685000Y-104000000D01*
X185361928Y-104000000D01*
X185361928Y-108000000D01*
X185374188Y-108124482D01*
X185410498Y-108244180D01*
X185469463Y-108354494D01*
X185548815Y-108451185D01*
X185645506Y-108530537D01*
X185755820Y-108589502D01*
X185875518Y-108625812D01*
X186000000Y-108638072D01*
X188000000Y-108638072D01*
X188124482Y-108625812D01*
X188244180Y-108589502D01*
X188354494Y-108530537D01*
X188451185Y-108451185D01*
X188530537Y-108354494D01*
X188589502Y-108244180D01*
X188625812Y-108124482D01*
X188638072Y-108000000D01*
X188638072Y-106127000D01*
X191365000Y-106127000D01*
X191365000Y-106777000D01*
X191421193Y-107093532D01*
X191538058Y-107393020D01*
X191711105Y-107663954D01*
X191933683Y-107895922D01*
X192197239Y-108080010D01*
X192491645Y-108209144D01*
X192619566Y-108240124D01*
X192873000Y-108120777D01*
X192873000Y-106127000D01*
X191365000Y-106127000D01*
X188638072Y-106127000D01*
X188638072Y-105223000D01*
X191365000Y-105223000D01*
X191365000Y-105873000D01*
X192873000Y-105873000D01*
X192873000Y-103879223D01*
X193127000Y-103879223D01*
X193127000Y-105873000D01*
X193147000Y-105873000D01*
X193147000Y-106127000D01*
X193127000Y-106127000D01*
X193127000Y-108120777D01*
X193380434Y-108240124D01*
X193508355Y-108209144D01*
X193802761Y-108080010D01*
X194066317Y-107895922D01*
X194288895Y-107663954D01*
X194461942Y-107393020D01*
X194578807Y-107093532D01*
X194635000Y-106777000D01*
X194635000Y-106454432D01*
X194728320Y-106679727D01*
X194885363Y-106914759D01*
X195085241Y-107114637D01*
X195320273Y-107271680D01*
X195581426Y-107379853D01*
X195858665Y-107435000D01*
X196141335Y-107435000D01*
X196418574Y-107379853D01*
X196679727Y-107271680D01*
X196914759Y-107114637D01*
X197114637Y-106914759D01*
X197271680Y-106679727D01*
X197379853Y-106418574D01*
X197435000Y-106141335D01*
X197435000Y-105858665D01*
X197379853Y-105581426D01*
X197271680Y-105320273D01*
X197114637Y-105085241D01*
X196914759Y-104885363D01*
X196679727Y-104728320D01*
X196418574Y-104620147D01*
X196141335Y-104565000D01*
X195858665Y-104565000D01*
X195581426Y-104620147D01*
X195320273Y-104728320D01*
X195085241Y-104885363D01*
X194885363Y-105085241D01*
X194728320Y-105320273D01*
X194635000Y-105545568D01*
X194635000Y-105223000D01*
X194578807Y-104906468D01*
X194461942Y-104606980D01*
X194288895Y-104336046D01*
X194066317Y-104104078D01*
X193802761Y-103919990D01*
X193508355Y-103790856D01*
X193380434Y-103759876D01*
X193127000Y-103879223D01*
X192873000Y-103879223D01*
X192619566Y-103759876D01*
X192491645Y-103790856D01*
X192197239Y-103919990D01*
X191933683Y-104104078D01*
X191711105Y-104336046D01*
X191538058Y-104606980D01*
X191421193Y-104906468D01*
X191365000Y-105223000D01*
X188638072Y-105223000D01*
X188638072Y-104000000D01*
X188625812Y-103875518D01*
X188589502Y-103755820D01*
X188530537Y-103645506D01*
X188451185Y-103548815D01*
X188354494Y-103469463D01*
X188244180Y-103410498D01*
X188124482Y-103374188D01*
X188000000Y-103361928D01*
X186000000Y-103361928D01*
X185875518Y-103374188D01*
X185755820Y-103410498D01*
X185645506Y-103469463D01*
X185548815Y-103548815D01*
X185469463Y-103645506D01*
X185410498Y-103755820D01*
X185374188Y-103875518D01*
X185361928Y-104000000D01*
X156685000Y-104000000D01*
X156685000Y-101500000D01*
X191607089Y-101500000D01*
X191638657Y-101820516D01*
X191732148Y-102128715D01*
X191883969Y-102412752D01*
X192088286Y-102661714D01*
X192337248Y-102866031D01*
X192621285Y-103017852D01*
X192929484Y-103111343D01*
X193169678Y-103135000D01*
X194830322Y-103135000D01*
X195070516Y-103111343D01*
X195378715Y-103017852D01*
X195662752Y-102866031D01*
X195911714Y-102661714D01*
X196116031Y-102412752D01*
X196267852Y-102128715D01*
X196361343Y-101820516D01*
X196392911Y-101500000D01*
X196361343Y-101179484D01*
X196267852Y-100871285D01*
X196116031Y-100587248D01*
X195911714Y-100338286D01*
X195662752Y-100133969D01*
X195378715Y-99982148D01*
X195070516Y-99888657D01*
X194830322Y-99865000D01*
X193169678Y-99865000D01*
X192929484Y-99888657D01*
X192621285Y-99982148D01*
X192337248Y-100133969D01*
X192088286Y-100338286D01*
X191883969Y-100587248D01*
X191732148Y-100871285D01*
X191638657Y-101179484D01*
X191607089Y-101500000D01*
X156685000Y-101500000D01*
X156685000Y-93204495D01*
X173815000Y-93204495D01*
X173815000Y-93595505D01*
X173891282Y-93979003D01*
X174040915Y-94340250D01*
X174258149Y-94665364D01*
X174534636Y-94941851D01*
X174859750Y-95159085D01*
X175220997Y-95308718D01*
X175604495Y-95385000D01*
X175995505Y-95385000D01*
X176379003Y-95308718D01*
X176740250Y-95159085D01*
X177065364Y-94941851D01*
X177341851Y-94665364D01*
X177559085Y-94340250D01*
X177708718Y-93979003D01*
X177785000Y-93595505D01*
X177785000Y-93204495D01*
X185915000Y-93204495D01*
X185915000Y-93595505D01*
X185991282Y-93979003D01*
X186140915Y-94340250D01*
X186358149Y-94665364D01*
X186634636Y-94941851D01*
X186959750Y-95159085D01*
X187320997Y-95308718D01*
X187704495Y-95385000D01*
X188095505Y-95385000D01*
X188479003Y-95308718D01*
X188840250Y-95159085D01*
X189165364Y-94941851D01*
X189441851Y-94665364D01*
X189659085Y-94340250D01*
X189808718Y-93979003D01*
X189885000Y-93595505D01*
X189885000Y-93204495D01*
X189808718Y-92820997D01*
X189659085Y-92459750D01*
X189441851Y-92134636D01*
X189165364Y-91858149D01*
X188840250Y-91640915D01*
X188479003Y-91491282D01*
X188095505Y-91415000D01*
X187704495Y-91415000D01*
X187320997Y-91491282D01*
X186959750Y-91640915D01*
X186634636Y-91858149D01*
X186358149Y-92134636D01*
X186140915Y-92459750D01*
X185991282Y-92820997D01*
X185915000Y-93204495D01*
X177785000Y-93204495D01*
X177708718Y-92820997D01*
X177559085Y-92459750D01*
X177341851Y-92134636D01*
X177065364Y-91858149D01*
X176740250Y-91640915D01*
X176379003Y-91491282D01*
X175995505Y-91415000D01*
X175604495Y-91415000D01*
X175220997Y-91491282D01*
X174859750Y-91640915D01*
X174534636Y-91858149D01*
X174258149Y-92134636D01*
X174040915Y-92459750D01*
X173891282Y-92820997D01*
X173815000Y-93204495D01*
X156685000Y-93204495D01*
X156685000Y-82150000D01*
X196511928Y-82150000D01*
X196511928Y-83850000D01*
X196524188Y-83974482D01*
X196560498Y-84094180D01*
X196619463Y-84204494D01*
X196698815Y-84301185D01*
X196795506Y-84380537D01*
X196905820Y-84439502D01*
X196978380Y-84461513D01*
X196846525Y-84593368D01*
X196684010Y-84836589D01*
X196572068Y-85106842D01*
X196515000Y-85393740D01*
X196515000Y-85686260D01*
X196572068Y-85973158D01*
X196684010Y-86243411D01*
X196846525Y-86486632D01*
X197053368Y-86693475D01*
X197296589Y-86855990D01*
X197566842Y-86967932D01*
X197853740Y-87025000D01*
X198146260Y-87025000D01*
X198433158Y-86967932D01*
X198703411Y-86855990D01*
X198946632Y-86693475D01*
X199153475Y-86486632D01*
X199315990Y-86243411D01*
X199427932Y-85973158D01*
X199485000Y-85686260D01*
X199485000Y-85393740D01*
X199427932Y-85106842D01*
X199315990Y-84836589D01*
X199153475Y-84593368D01*
X199021620Y-84461513D01*
X199094180Y-84439502D01*
X199204494Y-84380537D01*
X199301185Y-84301185D01*
X199380537Y-84204494D01*
X199439502Y-84094180D01*
X199475812Y-83974482D01*
X199488072Y-83850000D01*
X199488072Y-82150000D01*
X199475812Y-82025518D01*
X199439502Y-81905820D01*
X199380537Y-81795506D01*
X199301185Y-81698815D01*
X199204494Y-81619463D01*
X199094180Y-81560498D01*
X198974482Y-81524188D01*
X198850000Y-81511928D01*
X197150000Y-81511928D01*
X197025518Y-81524188D01*
X196905820Y-81560498D01*
X196795506Y-81619463D01*
X196698815Y-81698815D01*
X196619463Y-81795506D01*
X196560498Y-81905820D01*
X196524188Y-82025518D01*
X196511928Y-82150000D01*
X156685000Y-82150000D01*
X156685000Y-72150000D01*
X159511928Y-72150000D01*
X159511928Y-73850000D01*
X159524188Y-73974482D01*
X159560498Y-74094180D01*
X159619463Y-74204494D01*
X159698815Y-74301185D01*
X159795506Y-74380537D01*
X159905820Y-74439502D01*
X160025518Y-74475812D01*
X160150000Y-74488072D01*
X161850000Y-74488072D01*
X161974482Y-74475812D01*
X162094180Y-74439502D01*
X162204494Y-74380537D01*
X162301185Y-74301185D01*
X162380537Y-74204494D01*
X162439502Y-74094180D01*
X162461513Y-74021620D01*
X162593368Y-74153475D01*
X162836589Y-74315990D01*
X163106842Y-74427932D01*
X163393740Y-74485000D01*
X163686260Y-74485000D01*
X163973158Y-74427932D01*
X164243411Y-74315990D01*
X164486632Y-74153475D01*
X164693475Y-73946632D01*
X164810000Y-73772240D01*
X164926525Y-73946632D01*
X165133368Y-74153475D01*
X165376589Y-74315990D01*
X165646842Y-74427932D01*
X165933740Y-74485000D01*
X166226260Y-74485000D01*
X166513158Y-74427932D01*
X166783411Y-74315990D01*
X167026632Y-74153475D01*
X167233475Y-73946632D01*
X167350000Y-73772240D01*
X167466525Y-73946632D01*
X167673368Y-74153475D01*
X167916589Y-74315990D01*
X168186842Y-74427932D01*
X168473740Y-74485000D01*
X168766260Y-74485000D01*
X169053158Y-74427932D01*
X169323411Y-74315990D01*
X169566632Y-74153475D01*
X169773475Y-73946632D01*
X169890000Y-73772240D01*
X170006525Y-73946632D01*
X170213368Y-74153475D01*
X170456589Y-74315990D01*
X170726842Y-74427932D01*
X171013740Y-74485000D01*
X171306260Y-74485000D01*
X171593158Y-74427932D01*
X171863411Y-74315990D01*
X172106632Y-74153475D01*
X172313475Y-73946632D01*
X172435195Y-73764466D01*
X172504822Y-73881355D01*
X172699731Y-74097588D01*
X172933080Y-74271641D01*
X173195901Y-74396825D01*
X173343110Y-74441476D01*
X173573000Y-74320155D01*
X173573000Y-73127000D01*
X173827000Y-73127000D01*
X173827000Y-74320155D01*
X174056890Y-74441476D01*
X174204099Y-74396825D01*
X174466920Y-74271641D01*
X174700269Y-74097588D01*
X174895178Y-73881355D01*
X175044157Y-73631252D01*
X175141481Y-73356891D01*
X175113979Y-73304495D01*
X178815000Y-73304495D01*
X178815000Y-73695505D01*
X178891282Y-74079003D01*
X179040915Y-74440250D01*
X179258149Y-74765364D01*
X179534636Y-75041851D01*
X179859750Y-75259085D01*
X180220997Y-75408718D01*
X180604495Y-75485000D01*
X180995505Y-75485000D01*
X181379003Y-75408718D01*
X181740250Y-75259085D01*
X182065364Y-75041851D01*
X182341851Y-74765364D01*
X182559085Y-74440250D01*
X182708718Y-74079003D01*
X182785000Y-73695505D01*
X182785000Y-73304495D01*
X182708718Y-72920997D01*
X182559085Y-72559750D01*
X182341851Y-72234636D01*
X182065364Y-71958149D01*
X181740250Y-71740915D01*
X181379003Y-71591282D01*
X180995505Y-71515000D01*
X180604495Y-71515000D01*
X180220997Y-71591282D01*
X179859750Y-71740915D01*
X179534636Y-71958149D01*
X179258149Y-72234636D01*
X179040915Y-72559750D01*
X178891282Y-72920997D01*
X178815000Y-73304495D01*
X175113979Y-73304495D01*
X175020814Y-73127000D01*
X173827000Y-73127000D01*
X173573000Y-73127000D01*
X173553000Y-73127000D01*
X173553000Y-72873000D01*
X173573000Y-72873000D01*
X173573000Y-71679845D01*
X173827000Y-71679845D01*
X173827000Y-72873000D01*
X175020814Y-72873000D01*
X175141481Y-72643109D01*
X175044157Y-72368748D01*
X174895178Y-72118645D01*
X174700269Y-71902412D01*
X174466920Y-71728359D01*
X174204099Y-71603175D01*
X174056890Y-71558524D01*
X173827000Y-71679845D01*
X173573000Y-71679845D01*
X173343110Y-71558524D01*
X173195901Y-71603175D01*
X172933080Y-71728359D01*
X172699731Y-71902412D01*
X172504822Y-72118645D01*
X172435195Y-72235534D01*
X172313475Y-72053368D01*
X172106632Y-71846525D01*
X171863411Y-71684010D01*
X171593158Y-71572068D01*
X171306260Y-71515000D01*
X171013740Y-71515000D01*
X170726842Y-71572068D01*
X170456589Y-71684010D01*
X170213368Y-71846525D01*
X170006525Y-72053368D01*
X169890000Y-72227760D01*
X169773475Y-72053368D01*
X169566632Y-71846525D01*
X169323411Y-71684010D01*
X169053158Y-71572068D01*
X168766260Y-71515000D01*
X168473740Y-71515000D01*
X168186842Y-71572068D01*
X167916589Y-71684010D01*
X167673368Y-71846525D01*
X167466525Y-72053368D01*
X167350000Y-72227760D01*
X167233475Y-72053368D01*
X167026632Y-71846525D01*
X166783411Y-71684010D01*
X166513158Y-71572068D01*
X166226260Y-71515000D01*
X165933740Y-71515000D01*
X165646842Y-71572068D01*
X165376589Y-71684010D01*
X165133368Y-71846525D01*
X164926525Y-72053368D01*
X164810000Y-72227760D01*
X164693475Y-72053368D01*
X164486632Y-71846525D01*
X164243411Y-71684010D01*
X163973158Y-71572068D01*
X163686260Y-71515000D01*
X163393740Y-71515000D01*
X163106842Y-71572068D01*
X162836589Y-71684010D01*
X162593368Y-71846525D01*
X162461513Y-71978380D01*
X162439502Y-71905820D01*
X162380537Y-71795506D01*
X162301185Y-71698815D01*
X162204494Y-71619463D01*
X162094180Y-71560498D01*
X161974482Y-71524188D01*
X161850000Y-71511928D01*
X160150000Y-71511928D01*
X160025518Y-71524188D01*
X159905820Y-71560498D01*
X159795506Y-71619463D01*
X159698815Y-71698815D01*
X159619463Y-71795506D01*
X159560498Y-71905820D01*
X159524188Y-72025518D01*
X159511928Y-72150000D01*
X156685000Y-72150000D01*
X156685000Y-72033505D01*
X156713267Y-71745218D01*
X156787259Y-71500145D01*
X156907443Y-71274110D01*
X157069248Y-71075719D01*
X157266497Y-70912540D01*
X157491687Y-70790780D01*
X157736247Y-70715076D01*
X158022398Y-70685000D01*
X198966495Y-70685000D01*
X199254782Y-70713267D01*
G37*
X199254782Y-70713267D02*
X199499855Y-70787259D01*
X199725890Y-70907443D01*
X199924281Y-71069248D01*
X200087460Y-71266497D01*
X200209220Y-71491687D01*
X200284924Y-71736247D01*
X200315001Y-72022408D01*
X200315000Y-111966495D01*
X200286733Y-112254782D01*
X200212741Y-112499855D01*
X200092554Y-112725893D01*
X199930754Y-112924279D01*
X199733503Y-113087460D01*
X199508310Y-113209221D01*
X199263753Y-113284924D01*
X198977602Y-113315000D01*
X171966353Y-113315000D01*
X171936355Y-113317955D01*
X171923953Y-113317868D01*
X171914434Y-113318802D01*
X171526242Y-113359603D01*
X171465461Y-113372080D01*
X171404440Y-113383720D01*
X171395284Y-113386484D01*
X171022409Y-113501908D01*
X170965163Y-113525972D01*
X170907612Y-113549224D01*
X170899167Y-113553714D01*
X170555812Y-113739365D01*
X170504344Y-113774081D01*
X170452389Y-113808080D01*
X170444978Y-113814124D01*
X170373809Y-113873000D01*
X170000000Y-113873000D01*
X169975224Y-113875440D01*
X169951399Y-113882667D01*
X169929443Y-113894403D01*
X169910197Y-113910197D01*
X169894403Y-113929443D01*
X169882667Y-113951399D01*
X169875440Y-113975224D01*
X169873000Y-114000000D01*
X169873000Y-114374842D01*
X169803321Y-114460277D01*
X169768960Y-114511995D01*
X169733888Y-114563216D01*
X169729339Y-114571629D01*
X169546089Y-114916270D01*
X169522418Y-114973700D01*
X169497972Y-115030737D01*
X169495144Y-115039873D01*
X169382326Y-115413545D01*
X169370265Y-115474455D01*
X169357359Y-115535174D01*
X169356359Y-115544686D01*
X169318269Y-115933155D01*
X169318269Y-115933173D01*
X169315001Y-115966353D01*
X169315000Y-122966494D01*
X169286733Y-123254782D01*
X169212741Y-123499855D01*
X169092554Y-123725893D01*
X168930754Y-123924279D01*
X168733503Y-124087460D01*
X168508310Y-124209221D01*
X168263753Y-124284924D01*
X167977602Y-124315000D01*
X158033505Y-124315000D01*
X157745218Y-124286733D01*
X157500145Y-124212741D01*
X157274107Y-124092554D01*
X157075721Y-123930754D01*
X156912540Y-123733503D01*
X156790779Y-123508310D01*
X156715076Y-123263753D01*
X156685000Y-122977602D01*
X156685000Y-120678363D01*
X160495000Y-120678363D01*
X160495000Y-120921637D01*
X160542460Y-121160236D01*
X160635557Y-121384992D01*
X160770713Y-121587267D01*
X160942733Y-121759287D01*
X161145008Y-121894443D01*
X161369764Y-121987540D01*
X161608363Y-122035000D01*
X161851637Y-122035000D01*
X162090236Y-121987540D01*
X162314992Y-121894443D01*
X162517267Y-121759287D01*
X162689287Y-121587267D01*
X162824443Y-121384992D01*
X162917540Y-121160236D01*
X162965000Y-120921637D01*
X162965000Y-120678363D01*
X163035000Y-120678363D01*
X163035000Y-120921637D01*
X163082460Y-121160236D01*
X163175557Y-121384992D01*
X163310713Y-121587267D01*
X163482733Y-121759287D01*
X163685008Y-121894443D01*
X163909764Y-121987540D01*
X164148363Y-122035000D01*
X164391637Y-122035000D01*
X164630236Y-121987540D01*
X164854992Y-121894443D01*
X165057267Y-121759287D01*
X165229287Y-121587267D01*
X165364443Y-121384992D01*
X165457540Y-121160236D01*
X165505000Y-120921637D01*
X165505000Y-120678363D01*
X165457540Y-120439764D01*
X165364443Y-120215008D01*
X165229287Y-120012733D01*
X165057267Y-119840713D01*
X164854992Y-119705557D01*
X164630236Y-119612460D01*
X164391637Y-119565000D01*
X164148363Y-119565000D01*
X163909764Y-119612460D01*
X163685008Y-119705557D01*
X163482733Y-119840713D01*
X163310713Y-120012733D01*
X163175557Y-120215008D01*
X163082460Y-120439764D01*
X163035000Y-120678363D01*
X162965000Y-120678363D01*
X162917540Y-120439764D01*
X162824443Y-120215008D01*
X162689287Y-120012733D01*
X162517267Y-119840713D01*
X162314992Y-119705557D01*
X162090236Y-119612460D01*
X161851637Y-119565000D01*
X161608363Y-119565000D01*
X161369764Y-119612460D01*
X161145008Y-119705557D01*
X160942733Y-119840713D01*
X160770713Y-120012733D01*
X160635557Y-120215008D01*
X160542460Y-120439764D01*
X160495000Y-120678363D01*
X156685000Y-120678363D01*
X156685000Y-113078363D01*
X160495000Y-113078363D01*
X160495000Y-113321637D01*
X160542460Y-113560236D01*
X160635557Y-113784992D01*
X160770713Y-113987267D01*
X160942733Y-114159287D01*
X161145008Y-114294443D01*
X161369764Y-114387540D01*
X161608363Y-114435000D01*
X161851637Y-114435000D01*
X162090236Y-114387540D01*
X162314992Y-114294443D01*
X162517267Y-114159287D01*
X162689287Y-113987267D01*
X162824443Y-113784992D01*
X162917540Y-113560236D01*
X162965000Y-113321637D01*
X162965000Y-113078363D01*
X163035000Y-113078363D01*
X163035000Y-113321637D01*
X163082460Y-113560236D01*
X163175557Y-113784992D01*
X163310713Y-113987267D01*
X163482733Y-114159287D01*
X163685008Y-114294443D01*
X163909764Y-114387540D01*
X164148363Y-114435000D01*
X164391637Y-114435000D01*
X164630236Y-114387540D01*
X164854992Y-114294443D01*
X165057267Y-114159287D01*
X165229287Y-113987267D01*
X165364443Y-113784992D01*
X165457540Y-113560236D01*
X165505000Y-113321637D01*
X165505000Y-113078363D01*
X165457540Y-112839764D01*
X165364443Y-112615008D01*
X165229287Y-112412733D01*
X165057267Y-112240713D01*
X164854992Y-112105557D01*
X164630236Y-112012460D01*
X164391637Y-111965000D01*
X164148363Y-111965000D01*
X163909764Y-112012460D01*
X163685008Y-112105557D01*
X163482733Y-112240713D01*
X163310713Y-112412733D01*
X163175557Y-112615008D01*
X163082460Y-112839764D01*
X163035000Y-113078363D01*
X162965000Y-113078363D01*
X162917540Y-112839764D01*
X162824443Y-112615008D01*
X162689287Y-112412733D01*
X162517267Y-112240713D01*
X162314992Y-112105557D01*
X162090236Y-112012460D01*
X161851637Y-111965000D01*
X161608363Y-111965000D01*
X161369764Y-112012460D01*
X161145008Y-112105557D01*
X160942733Y-112240713D01*
X160770713Y-112412733D01*
X160635557Y-112615008D01*
X160542460Y-112839764D01*
X160495000Y-113078363D01*
X156685000Y-113078363D01*
X156685000Y-110500000D01*
X191607089Y-110500000D01*
X191638657Y-110820516D01*
X191732148Y-111128715D01*
X191883969Y-111412752D01*
X192088286Y-111661714D01*
X192337248Y-111866031D01*
X192621285Y-112017852D01*
X192929484Y-112111343D01*
X193169678Y-112135000D01*
X194830322Y-112135000D01*
X195070516Y-112111343D01*
X195378715Y-112017852D01*
X195662752Y-111866031D01*
X195911714Y-111661714D01*
X196116031Y-111412752D01*
X196267852Y-111128715D01*
X196361343Y-110820516D01*
X196392911Y-110500000D01*
X196361343Y-110179484D01*
X196267852Y-109871285D01*
X196116031Y-109587248D01*
X195911714Y-109338286D01*
X195662752Y-109133969D01*
X195378715Y-108982148D01*
X195070516Y-108888657D01*
X194830322Y-108865000D01*
X193169678Y-108865000D01*
X192929484Y-108888657D01*
X192621285Y-108982148D01*
X192337248Y-109133969D01*
X192088286Y-109338286D01*
X191883969Y-109587248D01*
X191732148Y-109871285D01*
X191638657Y-110179484D01*
X191607089Y-110500000D01*
X156685000Y-110500000D01*
X156685000Y-106104495D01*
X160815000Y-106104495D01*
X160815000Y-106495505D01*
X160891282Y-106879003D01*
X161040915Y-107240250D01*
X161258149Y-107565364D01*
X161534636Y-107841851D01*
X161859750Y-108059085D01*
X162220997Y-108208718D01*
X162604495Y-108285000D01*
X162995505Y-108285000D01*
X163379003Y-108208718D01*
X163740250Y-108059085D01*
X164065364Y-107841851D01*
X164341851Y-107565364D01*
X164559085Y-107240250D01*
X164708718Y-106879003D01*
X164785000Y-106495505D01*
X164785000Y-106104495D01*
X164708718Y-105720997D01*
X164559085Y-105359750D01*
X164341851Y-105034636D01*
X164065364Y-104758149D01*
X163740250Y-104540915D01*
X163379003Y-104391282D01*
X162995505Y-104315000D01*
X162604495Y-104315000D01*
X162220997Y-104391282D01*
X161859750Y-104540915D01*
X161534636Y-104758149D01*
X161258149Y-105034636D01*
X161040915Y-105359750D01*
X160891282Y-105720997D01*
X160815000Y-106104495D01*
X156685000Y-106104495D01*
X156685000Y-104000000D01*
X185361928Y-104000000D01*
X185361928Y-108000000D01*
X185374188Y-108124482D01*
X185410498Y-108244180D01*
X185469463Y-108354494D01*
X185548815Y-108451185D01*
X185645506Y-108530537D01*
X185755820Y-108589502D01*
X185875518Y-108625812D01*
X186000000Y-108638072D01*
X188000000Y-108638072D01*
X188124482Y-108625812D01*
X188244180Y-108589502D01*
X188354494Y-108530537D01*
X188451185Y-108451185D01*
X188530537Y-108354494D01*
X188589502Y-108244180D01*
X188625812Y-108124482D01*
X188638072Y-108000000D01*
X188638072Y-106127000D01*
X191365000Y-106127000D01*
X191365000Y-106777000D01*
X191421193Y-107093532D01*
X191538058Y-107393020D01*
X191711105Y-107663954D01*
X191933683Y-107895922D01*
X192197239Y-108080010D01*
X192491645Y-108209144D01*
X192619566Y-108240124D01*
X192873000Y-108120777D01*
X192873000Y-106127000D01*
X191365000Y-106127000D01*
X188638072Y-106127000D01*
X188638072Y-105223000D01*
X191365000Y-105223000D01*
X191365000Y-105873000D01*
X192873000Y-105873000D01*
X192873000Y-103879223D01*
X193127000Y-103879223D01*
X193127000Y-105873000D01*
X193147000Y-105873000D01*
X193147000Y-106127000D01*
X193127000Y-106127000D01*
X193127000Y-108120777D01*
X193380434Y-108240124D01*
X193508355Y-108209144D01*
X193802761Y-108080010D01*
X194066317Y-107895922D01*
X194288895Y-107663954D01*
X194461942Y-107393020D01*
X194578807Y-107093532D01*
X194635000Y-106777000D01*
X194635000Y-106454432D01*
X194728320Y-106679727D01*
X194885363Y-106914759D01*
X195085241Y-107114637D01*
X195320273Y-107271680D01*
X195581426Y-107379853D01*
X195858665Y-107435000D01*
X196141335Y-107435000D01*
X196418574Y-107379853D01*
X196679727Y-107271680D01*
X196914759Y-107114637D01*
X197114637Y-106914759D01*
X197271680Y-106679727D01*
X197379853Y-106418574D01*
X197435000Y-106141335D01*
X197435000Y-105858665D01*
X197379853Y-105581426D01*
X197271680Y-105320273D01*
X197114637Y-105085241D01*
X196914759Y-104885363D01*
X196679727Y-104728320D01*
X196418574Y-104620147D01*
X196141335Y-104565000D01*
X195858665Y-104565000D01*
X195581426Y-104620147D01*
X195320273Y-104728320D01*
X195085241Y-104885363D01*
X194885363Y-105085241D01*
X194728320Y-105320273D01*
X194635000Y-105545568D01*
X194635000Y-105223000D01*
X194578807Y-104906468D01*
X194461942Y-104606980D01*
X194288895Y-104336046D01*
X194066317Y-104104078D01*
X193802761Y-103919990D01*
X193508355Y-103790856D01*
X193380434Y-103759876D01*
X193127000Y-103879223D01*
X192873000Y-103879223D01*
X192619566Y-103759876D01*
X192491645Y-103790856D01*
X192197239Y-103919990D01*
X191933683Y-104104078D01*
X191711105Y-104336046D01*
X191538058Y-104606980D01*
X191421193Y-104906468D01*
X191365000Y-105223000D01*
X188638072Y-105223000D01*
X188638072Y-104000000D01*
X188625812Y-103875518D01*
X188589502Y-103755820D01*
X188530537Y-103645506D01*
X188451185Y-103548815D01*
X188354494Y-103469463D01*
X188244180Y-103410498D01*
X188124482Y-103374188D01*
X188000000Y-103361928D01*
X186000000Y-103361928D01*
X185875518Y-103374188D01*
X185755820Y-103410498D01*
X185645506Y-103469463D01*
X185548815Y-103548815D01*
X185469463Y-103645506D01*
X185410498Y-103755820D01*
X185374188Y-103875518D01*
X185361928Y-104000000D01*
X156685000Y-104000000D01*
X156685000Y-101500000D01*
X191607089Y-101500000D01*
X191638657Y-101820516D01*
X191732148Y-102128715D01*
X191883969Y-102412752D01*
X192088286Y-102661714D01*
X192337248Y-102866031D01*
X192621285Y-103017852D01*
X192929484Y-103111343D01*
X193169678Y-103135000D01*
X194830322Y-103135000D01*
X195070516Y-103111343D01*
X195378715Y-103017852D01*
X195662752Y-102866031D01*
X195911714Y-102661714D01*
X196116031Y-102412752D01*
X196267852Y-102128715D01*
X196361343Y-101820516D01*
X196392911Y-101500000D01*
X196361343Y-101179484D01*
X196267852Y-100871285D01*
X196116031Y-100587248D01*
X195911714Y-100338286D01*
X195662752Y-100133969D01*
X195378715Y-99982148D01*
X195070516Y-99888657D01*
X194830322Y-99865000D01*
X193169678Y-99865000D01*
X192929484Y-99888657D01*
X192621285Y-99982148D01*
X192337248Y-100133969D01*
X192088286Y-100338286D01*
X191883969Y-100587248D01*
X191732148Y-100871285D01*
X191638657Y-101179484D01*
X191607089Y-101500000D01*
X156685000Y-101500000D01*
X156685000Y-93204495D01*
X173815000Y-93204495D01*
X173815000Y-93595505D01*
X173891282Y-93979003D01*
X174040915Y-94340250D01*
X174258149Y-94665364D01*
X174534636Y-94941851D01*
X174859750Y-95159085D01*
X175220997Y-95308718D01*
X175604495Y-95385000D01*
X175995505Y-95385000D01*
X176379003Y-95308718D01*
X176740250Y-95159085D01*
X177065364Y-94941851D01*
X177341851Y-94665364D01*
X177559085Y-94340250D01*
X177708718Y-93979003D01*
X177785000Y-93595505D01*
X177785000Y-93204495D01*
X185915000Y-93204495D01*
X185915000Y-93595505D01*
X185991282Y-93979003D01*
X186140915Y-94340250D01*
X186358149Y-94665364D01*
X186634636Y-94941851D01*
X186959750Y-95159085D01*
X187320997Y-95308718D01*
X187704495Y-95385000D01*
X188095505Y-95385000D01*
X188479003Y-95308718D01*
X188840250Y-95159085D01*
X189165364Y-94941851D01*
X189441851Y-94665364D01*
X189659085Y-94340250D01*
X189808718Y-93979003D01*
X189885000Y-93595505D01*
X189885000Y-93204495D01*
X189808718Y-92820997D01*
X189659085Y-92459750D01*
X189441851Y-92134636D01*
X189165364Y-91858149D01*
X188840250Y-91640915D01*
X188479003Y-91491282D01*
X188095505Y-91415000D01*
X187704495Y-91415000D01*
X187320997Y-91491282D01*
X186959750Y-91640915D01*
X186634636Y-91858149D01*
X186358149Y-92134636D01*
X186140915Y-92459750D01*
X185991282Y-92820997D01*
X185915000Y-93204495D01*
X177785000Y-93204495D01*
X177708718Y-92820997D01*
X177559085Y-92459750D01*
X177341851Y-92134636D01*
X177065364Y-91858149D01*
X176740250Y-91640915D01*
X176379003Y-91491282D01*
X175995505Y-91415000D01*
X175604495Y-91415000D01*
X175220997Y-91491282D01*
X174859750Y-91640915D01*
X174534636Y-91858149D01*
X174258149Y-92134636D01*
X174040915Y-92459750D01*
X173891282Y-92820997D01*
X173815000Y-93204495D01*
X156685000Y-93204495D01*
X156685000Y-82150000D01*
X196511928Y-82150000D01*
X196511928Y-83850000D01*
X196524188Y-83974482D01*
X196560498Y-84094180D01*
X196619463Y-84204494D01*
X196698815Y-84301185D01*
X196795506Y-84380537D01*
X196905820Y-84439502D01*
X196978380Y-84461513D01*
X196846525Y-84593368D01*
X196684010Y-84836589D01*
X196572068Y-85106842D01*
X196515000Y-85393740D01*
X196515000Y-85686260D01*
X196572068Y-85973158D01*
X196684010Y-86243411D01*
X196846525Y-86486632D01*
X197053368Y-86693475D01*
X197296589Y-86855990D01*
X197566842Y-86967932D01*
X197853740Y-87025000D01*
X198146260Y-87025000D01*
X198433158Y-86967932D01*
X198703411Y-86855990D01*
X198946632Y-86693475D01*
X199153475Y-86486632D01*
X199315990Y-86243411D01*
X199427932Y-85973158D01*
X199485000Y-85686260D01*
X199485000Y-85393740D01*
X199427932Y-85106842D01*
X199315990Y-84836589D01*
X199153475Y-84593368D01*
X199021620Y-84461513D01*
X199094180Y-84439502D01*
X199204494Y-84380537D01*
X199301185Y-84301185D01*
X199380537Y-84204494D01*
X199439502Y-84094180D01*
X199475812Y-83974482D01*
X199488072Y-83850000D01*
X199488072Y-82150000D01*
X199475812Y-82025518D01*
X199439502Y-81905820D01*
X199380537Y-81795506D01*
X199301185Y-81698815D01*
X199204494Y-81619463D01*
X199094180Y-81560498D01*
X198974482Y-81524188D01*
X198850000Y-81511928D01*
X197150000Y-81511928D01*
X197025518Y-81524188D01*
X196905820Y-81560498D01*
X196795506Y-81619463D01*
X196698815Y-81698815D01*
X196619463Y-81795506D01*
X196560498Y-81905820D01*
X196524188Y-82025518D01*
X196511928Y-82150000D01*
X156685000Y-82150000D01*
X156685000Y-72150000D01*
X159511928Y-72150000D01*
X159511928Y-73850000D01*
X159524188Y-73974482D01*
X159560498Y-74094180D01*
X159619463Y-74204494D01*
X159698815Y-74301185D01*
X159795506Y-74380537D01*
X159905820Y-74439502D01*
X160025518Y-74475812D01*
X160150000Y-74488072D01*
X161850000Y-74488072D01*
X161974482Y-74475812D01*
X162094180Y-74439502D01*
X162204494Y-74380537D01*
X162301185Y-74301185D01*
X162380537Y-74204494D01*
X162439502Y-74094180D01*
X162461513Y-74021620D01*
X162593368Y-74153475D01*
X162836589Y-74315990D01*
X163106842Y-74427932D01*
X163393740Y-74485000D01*
X163686260Y-74485000D01*
X163973158Y-74427932D01*
X164243411Y-74315990D01*
X164486632Y-74153475D01*
X164693475Y-73946632D01*
X164810000Y-73772240D01*
X164926525Y-73946632D01*
X165133368Y-74153475D01*
X165376589Y-74315990D01*
X165646842Y-74427932D01*
X165933740Y-74485000D01*
X166226260Y-74485000D01*
X166513158Y-74427932D01*
X166783411Y-74315990D01*
X167026632Y-74153475D01*
X167233475Y-73946632D01*
X167350000Y-73772240D01*
X167466525Y-73946632D01*
X167673368Y-74153475D01*
X167916589Y-74315990D01*
X168186842Y-74427932D01*
X168473740Y-74485000D01*
X168766260Y-74485000D01*
X169053158Y-74427932D01*
X169323411Y-74315990D01*
X169566632Y-74153475D01*
X169773475Y-73946632D01*
X169890000Y-73772240D01*
X170006525Y-73946632D01*
X170213368Y-74153475D01*
X170456589Y-74315990D01*
X170726842Y-74427932D01*
X171013740Y-74485000D01*
X171306260Y-74485000D01*
X171593158Y-74427932D01*
X171863411Y-74315990D01*
X172106632Y-74153475D01*
X172313475Y-73946632D01*
X172435195Y-73764466D01*
X172504822Y-73881355D01*
X172699731Y-74097588D01*
X172933080Y-74271641D01*
X173195901Y-74396825D01*
X173343110Y-74441476D01*
X173573000Y-74320155D01*
X173573000Y-73127000D01*
X173827000Y-73127000D01*
X173827000Y-74320155D01*
X174056890Y-74441476D01*
X174204099Y-74396825D01*
X174466920Y-74271641D01*
X174700269Y-74097588D01*
X174895178Y-73881355D01*
X175044157Y-73631252D01*
X175141481Y-73356891D01*
X175113979Y-73304495D01*
X178815000Y-73304495D01*
X178815000Y-73695505D01*
X178891282Y-74079003D01*
X179040915Y-74440250D01*
X179258149Y-74765364D01*
X179534636Y-75041851D01*
X179859750Y-75259085D01*
X180220997Y-75408718D01*
X180604495Y-75485000D01*
X180995505Y-75485000D01*
X181379003Y-75408718D01*
X181740250Y-75259085D01*
X182065364Y-75041851D01*
X182341851Y-74765364D01*
X182559085Y-74440250D01*
X182708718Y-74079003D01*
X182785000Y-73695505D01*
X182785000Y-73304495D01*
X182708718Y-72920997D01*
X182559085Y-72559750D01*
X182341851Y-72234636D01*
X182065364Y-71958149D01*
X181740250Y-71740915D01*
X181379003Y-71591282D01*
X180995505Y-71515000D01*
X180604495Y-71515000D01*
X180220997Y-71591282D01*
X179859750Y-71740915D01*
X179534636Y-71958149D01*
X179258149Y-72234636D01*
X179040915Y-72559750D01*
X178891282Y-72920997D01*
X178815000Y-73304495D01*
X175113979Y-73304495D01*
X175020814Y-73127000D01*
X173827000Y-73127000D01*
X173573000Y-73127000D01*
X173553000Y-73127000D01*
X173553000Y-72873000D01*
X173573000Y-72873000D01*
X173573000Y-71679845D01*
X173827000Y-71679845D01*
X173827000Y-72873000D01*
X175020814Y-72873000D01*
X175141481Y-72643109D01*
X175044157Y-72368748D01*
X174895178Y-72118645D01*
X174700269Y-71902412D01*
X174466920Y-71728359D01*
X174204099Y-71603175D01*
X174056890Y-71558524D01*
X173827000Y-71679845D01*
X173573000Y-71679845D01*
X173343110Y-71558524D01*
X173195901Y-71603175D01*
X172933080Y-71728359D01*
X172699731Y-71902412D01*
X172504822Y-72118645D01*
X172435195Y-72235534D01*
X172313475Y-72053368D01*
X172106632Y-71846525D01*
X171863411Y-71684010D01*
X171593158Y-71572068D01*
X171306260Y-71515000D01*
X171013740Y-71515000D01*
X170726842Y-71572068D01*
X170456589Y-71684010D01*
X170213368Y-71846525D01*
X170006525Y-72053368D01*
X169890000Y-72227760D01*
X169773475Y-72053368D01*
X169566632Y-71846525D01*
X169323411Y-71684010D01*
X169053158Y-71572068D01*
X168766260Y-71515000D01*
X168473740Y-71515000D01*
X168186842Y-71572068D01*
X167916589Y-71684010D01*
X167673368Y-71846525D01*
X167466525Y-72053368D01*
X167350000Y-72227760D01*
X167233475Y-72053368D01*
X167026632Y-71846525D01*
X166783411Y-71684010D01*
X166513158Y-71572068D01*
X166226260Y-71515000D01*
X165933740Y-71515000D01*
X165646842Y-71572068D01*
X165376589Y-71684010D01*
X165133368Y-71846525D01*
X164926525Y-72053368D01*
X164810000Y-72227760D01*
X164693475Y-72053368D01*
X164486632Y-71846525D01*
X164243411Y-71684010D01*
X163973158Y-71572068D01*
X163686260Y-71515000D01*
X163393740Y-71515000D01*
X163106842Y-71572068D01*
X162836589Y-71684010D01*
X162593368Y-71846525D01*
X162461513Y-71978380D01*
X162439502Y-71905820D01*
X162380537Y-71795506D01*
X162301185Y-71698815D01*
X162204494Y-71619463D01*
X162094180Y-71560498D01*
X161974482Y-71524188D01*
X161850000Y-71511928D01*
X160150000Y-71511928D01*
X160025518Y-71524188D01*
X159905820Y-71560498D01*
X159795506Y-71619463D01*
X159698815Y-71698815D01*
X159619463Y-71795506D01*
X159560498Y-71905820D01*
X159524188Y-72025518D01*
X159511928Y-72150000D01*
X156685000Y-72150000D01*
X156685000Y-72033505D01*
X156713267Y-71745218D01*
X156787259Y-71500145D01*
X156907443Y-71274110D01*
X157069248Y-71075719D01*
X157266497Y-70912540D01*
X157491687Y-70790780D01*
X157736247Y-70715076D01*
X158022398Y-70685000D01*
X198966495Y-70685000D01*
X199254782Y-70713267D01*
M02*
