  0
SECTION
  2
HEADER
  9
$ACADVER
  1
AC1009
  9
$INSBASE
 10
0.0
 20
0.0
 30
0.0
  9
$EXTMIN
 10
0.0
 20
0.0
 30
0.0
  9
$EXTMAX
 10
0.0
 20
0.0
 30
0.0
  0
ENDSEC
  0
SECTION
  2
TABLES
  0
TABLE
  2
VPORT
 70
0
  0
ENDTAB
  0
TABLE
  2
LTYPE
 70
1
  0
LTYPE
  2
CONTINUOUS
 70
0
  3
Solid line
 72
65
 73
0
 40
0.0
  0
ENDTAB
  0
TABLE
  2
LAYER
 70
1
  0
LAYER
  2
0
 70
64
 62
7
  6
continuous
  0
ENDTAB
  0
TABLE
  2
STYLE
 70
1
  0
STYLE
  2
STANDARD
 70
0
 40
0
 41
1.0
 50
0.0
 71
0
 42
1
 3
ARIAL.TTF
 4

  0
ENDTAB
  0
TABLE
  2
VIEW
 70
0
  0
ENDTAB
  0
ENDSEC
  0
SECTION
  2
BLOCKS
  0
BLOCK
  8
0
  2
CUT001
 70
0
 10
0.0
 20
0.0
 30
0.0
  3
CUT001
  0
ARC
  8
0
 62
0
 10
0.0
 20
0.0
 30
0.0
 40
11.25
 50
-12.45268181743034
 51
-2.54731818256961
  0
LINE
  8
0
 62
0
 10
7.0
 20
-0.5
 30
0.0
 11
11.238883396494527
 21
-0.5
 31
0.0
  0
LINE
  8
0
 62
0
 10
6.890890306574739
 20
-1.3287704025731109
 30
0.0
 11
10.985337253876724
 21
-2.425874155554753
 31
0.0
  0
LINE
  8
0
 62
0
 10
7.0
 20
0.5
 30
0.0
 11
11.23888339649453
 21
0.5
 31
0.0
  0
ARC
  8
0
 62
0
 10
7.0
 20
0.0
 30
0.0
 40
0.5
 50
90.0
 51
-90.0
  0
ARC
  8
0
 62
0
 10
6.761480784023478
 20
-1.8117333157176447
 30
0.0
 40
0.5
 50
75.00000000000006
 51
-105.00000000000004
  0
LINE
  8
0
 62
0
 10
6.632071261472218
 20
-2.294696228862179
 30
0.0
 11
10.726518208774163
 21
-3.3917999818438105
 31
0.0
  0
ARC
  8
0
 62
0
 10
0.0
 20
0.0
 30
0.0
 40
11.25
 50
-27.452681817431383
 51
-17.547318182572006
  0
LINE
  8
0
 62
0
 10
6.3121778264910695
 20
-3.066987298107784
 30
0.0
 11
9.983158531535405
 21
-5.186428996355056
 31
0.0
  0
ARC
  8
0
 62
0
 10
6.062177826491069
 20
-3.500000000000003
 30
0.0
 40
0.5
 50
59.99999999999999
 51
-120.00000000000001
  0
LINE
  8
0
 62
0
 10
5.812177826491069
 20
-3.9330127018922223
 30
0.0
 11
9.483158531535384
 21
-6.052454400139482
 31
0.0
  0
ARC
  8
0
 62
0
 10
0.0
 20
0.0
 30
0.0
 40
11.25
 50
-42.45268181743181
 51
-32.54731818257015
  0
LINE
  8
0
 62
0
 10
5.303300858899106
 20
-4.5961940777125605
 30
0.0
 11
8.300644053219465
 21
-7.593537272032922
 31
0.0
  0
ARC
  8
0
 62
0
 10
4.949747468305832
 20
-4.949747468305834
 30
0.0
 40
0.5
 50
45.0
 51
-135.0
  0
LINE
  8
0
 62
0
 10
4.596194077712558
 20
-5.3033008588991075
 30
0.0
 11
7.593537272032917
 21
-8.300644053219468
 31
0.0
  0
ARC
  8
0
 62
0
 10
0.0
 20
0.0
 30
0.0
 40
11.25
 50
-57.45268181742987
 51
-47.547318182568254
  0
LINE
  8
0
 62
0
 10
3.9330127018922205
 20
-5.81217782649107
 30
0.0
 11
6.052454400139478
 21
-9.483158531535384
 31
0.0
  0
ARC
  8
0
 62
0
 10
3.500000000000001
 20
-6.06217782649107
 30
0.0
 40
0.5
 50
30.000000000000004
 51
-150.0
  0
LINE
  8
0
 62
0
 10
3.0669872981077817
 20
-6.31217782649107
 30
0.0
 11
5.186428996355053
 21
-9.983158531535409
 31
0.0
  0
ARC
  8
0
 62
0
 10
0.0
 20
0.0
 30
0.0
 40
11.25
 50
-72.45268181742803
 51
-62.547318182568645
  0
LINE
  8
0
 62
0
 10
2.2946962288621764
 20
-6.632071261472218
 30
0.0
 11
3.391799981843807
 21
-10.726518208774166
 31
0.0
  0
ARC
  8
0
 62
0
 10
1.811733315717642
 20
-6.761480784023479
 30
0.0
 40
0.5
 50
14.999999999999922
 51
-165.00000000000009
  0
LINE
  8
0
 62
0
 10
1.3287704025731077
 20
-6.890890306574739
 30
0.0
 11
2.425874155554749
 21
-10.985337253876725
 31
0.0
  0
ARC
  8
0
 62
0
 10
0.0
 20
0.0
 30
0.0
 40
11.25
 50
-87.45268181743015
 51
-77.5473181825697
  0
LINE
  8
0
 62
0
 10
0.49999999999999845
 20
-7.0
 30
0.0
 11
0.4999999999999975
 21
-11.23888339649452
 31
0.0
  0
ARC
  8
0
 62
0
 10
-1.5543122344752192e-15
 20
-7.0
 30
0.0
 40
0.5
 50
-0.0
 51
-180.0
  0
LINE
  8
0
 62
0
 10
-0.5000000000000016
 20
-7.0
 30
0.0
 11
-0.5000000000000024
 21
-11.238883396494485
 31
0.0
  0
ARC
  8
0
 62
0
 10
0.0
 20
0.0
 30
0.0
 40
11.25
 50
-102.45268181743033
 51
-92.54731818257187
  0
LINE
  8
0
 62
0
 10
-1.3287704025731113
 20
-6.890890306574739
 30
0.0
 11
-2.4258741555547534
 21
-10.985337253876724
 31
0.0
  0
ARC
  8
0
 62
0
 10
-1.8117333157176452
 20
-6.761480784023478
 30
0.0
 40
0.5
 50
-15.000000000000018
 51
165.0
  0
LINE
  8
0
 62
0
 10
-2.2946962288621795
 20
-6.632071261472218
 30
0.0
 11
-3.391799981843811
 21
-10.726518208774163
 31
0.0
  0
ARC
  8
0
 62
0
 10
0.0
 20
0.0
 30
0.0
 40
11.25
 50
-117.45268181743144
 51
-107.547318182572
  0
LINE
  8
0
 62
0
 10
-3.066987298107784
 20
-6.3121778264910695
 30
0.0
 11
-5.186428996355056
 21
-9.983158531535405
 31
0.0
  0
ARC
  8
0
 62
0
 10
-3.500000000000003
 20
-6.062177826491069
 30
0.0
 40
0.5
 50
-30.000000000000004
 51
150.0
  0
LINE
  8
0
 62
0
 10
-3.9330127018922223
 20
-5.812177826491069
 30
0.0
 11
-6.052454400139482
 21
-9.483158531535384
 31
0.0
  0
ARC
  8
0
 62
0
 10
0.0
 20
0.0
 30
0.0
 40
11.25
 50
-132.45268181743185
 51
-122.54731818257017
  0
LINE
  8
0
 62
0
 10
-4.5961940777125605
 20
-5.303300858899106
 30
0.0
 11
-7.593537272032922
 21
-8.300644053219466
 31
0.0
  0
ARC
  8
0
 62
0
 10
-4.949747468305834
 20
-4.949747468305832
 30
0.0
 40
0.5
 50
-45.0
 51
135.0
  0
LINE
  8
0
 62
0
 10
-5.3033008588991075
 20
-4.596194077712558
 30
0.0
 11
-8.300644053219415
 21
-7.593537272032864
 31
0.0
  0
ARC
  8
0
 62
0
 10
0.0
 20
0.0
 30
0.0
 40
11.25
 50
-147.45268181742992
 51
-137.5473181825726
  0
LINE
  8
0
 62
0
 10
-5.81217782649107
 20
-3.9330127018922205
 30
0.0
 11
-9.483158531535384
 21
-6.052454400139478
 31
0.0
  0
ARC
  8
0
 62
0
 10
-6.06217782649107
 20
-3.500000000000001
 30
0.0
 40
0.5
 50
-59.99999999999999
 51
120.00000000000001
  0
LINE
  8
0
 62
0
 10
-6.31217782649107
 20
-3.0669872981077817
 30
0.0
 11
-9.983158531535409
 21
-5.186428996355053
 31
0.0
  0
ARC
  8
0
 62
0
 10
0.0
 20
0.0
 30
0.0
 40
11.25
 50
-162.45268181742804
 51
-152.54731818256866
  0
LINE
  8
0
 62
0
 10
-6.632071261472218
 20
-2.29469622886218
 30
0.0
 11
-10.726518208774163
 21
-3.3917999818438123
 31
0.0
  0
ARC
  8
0
 62
0
 10
-6.761480784023478
 20
-1.8117333157176456
 30
0.0
 40
0.5
 50
-74.99999999999996
 51
104.99999999999996
  0
LINE
  8
0
 62
0
 10
-6.890890306574739
 20
-1.3287704025731115
 30
0.0
 11
-10.985337253876724
 21
-2.4258741555547543
 31
0.0
  0
ARC
  8
0
 62
0
 10
0.0
 20
0.0
 30
0.0
 40
11.25
 50
-177.45268181742983
 51
-167.54731818256974
  0
LINE
  8
0
 62
0
 10
-7.0
 20
-0.4999999999999991
 30
0.0
 11
-11.238883396494515
 21
-0.4999999999999986
 31
0.0
  0
ARC
  8
0
 62
0
 10
-7.0
 20
8.572527594031472e-16
 30
0.0
 40
0.5
 50
-90.0
 51
90.0
  0
LINE
  8
0
 62
0
 10
-7.0
 20
0.5000000000000009
 30
0.0
 11
-11.238883396494515
 21
0.5000000000000014
 31
0.0
  0
ARC
  8
0
 62
0
 10
0.0
 20
0.0
 30
0.0
 40
11.25
 50
167.54731818256965
 51
177.45268181742983
  0
LINE
  8
0
 62
0
 10
-6.890890306574738
 20
1.328770402573113
 30
0.0
 11
-10.985337253876722
 21
2.425874155554756
 31
0.0
  0
ARC
  8
0
 62
0
 10
-6.761480784023478
 20
1.8117333157176472
 30
0.0
 40
0.5
 50
-105.00000000000006
 51
74.99999999999996
  0
LINE
  8
0
 62
0
 10
-6.632071261472217
 20
2.2946962288621813
 30
0.0
 11
-10.726518208774163
 21
3.3917999818438145
 31
0.0
  0
ARC
  8
0
 62
0
 10
0.0
 20
0.0
 30
0.0
 40
11.25
 50
152.5473181825687
 51
162.45268181742802
  0
LINE
  8
0
 62
0
 10
-6.312177826491071
 20
3.06698729810778
 30
0.0
 11
-9.983158531535409
 21
5.186428996355049
 31
0.0
  0
ARC
  8
0
 62
0
 10
-6.062177826491071
 20
3.4999999999999996
 30
0.0
 40
0.5
 50
-120.00000000000001
 51
59.99999999999999
  0
LINE
  8
0
 62
0
 10
-5.812177826491071
 20
3.9330127018922187
 30
0.0
 11
-9.483158531535388
 21
6.052454400139476
 31
0.0
  0
ARC
  8
0
 62
0
 10
0.0
 20
0.0
 30
0.0
 40
11.25
 50
137.54731818256818
 51
147.45268181742992
  0
LINE
  8
0
 62
0
 10
-5.303300858899106
 20
4.596194077712559
 30
0.0
 11
-8.300644053219466
 21
7.59353727203292
 31
0.0
  0
ARC
  8
0
 62
0
 10
-4.949747468305832
 20
4.949747468305833
 30
0.0
 40
0.5
 50
-135.0
 51
45.0
  0
LINE
  8
0
 62
0
 10
-4.596194077712558
 20
5.303300858899107
 30
0.0
 11
-7.593537272032918
 21
8.300644053219468
 31
0.0
  0
ARC
  8
0
 62
0
 10
0.0
 20
0.0
 30
0.0
 40
11.25
 50
122.5473181825701
 51
132.45268181743182
  0
LINE
  8
0
 62
0
 10
-3.933012701892218
 20
5.812177826491071
 30
0.0
 11
-6.0524544001394744
 21
9.483158531535388
 31
0.0
  0
ARC
  8
0
 62
0
 10
-3.4999999999999982
 20
6.062177826491071
 30
0.0
 40
0.5
 50
-150.00000000000003
 51
29.999999999999964
  0
LINE
  8
0
 62
0
 10
-3.066987298107779
 20
6.312177826491071
 30
0.0
 11
-5.1864289963550485
 21
9.983158531535409
 31
0.0
  0
ARC
  8
0
 62
0
 10
0.0
 20
0.0
 30
0.0
 40
11.25
 50
107.54731818257196
 51
117.45268181743131
  0
LINE
  8
0
 62
0
 10
-2.2946962288621795
 20
6.632071261472217
 30
0.0
 11
-3.3917999818438114
 21
10.726518208774163
 31
0.0
  0
ARC
  8
0
 62
0
 10
-1.8117333157176452
 20
6.761480784023478
 30
0.0
 40
0.5
 50
-165.00000000000009
 51
14.999999999999945
  0
LINE
  8
0
 62
0
 10
-1.328770402573111
 20
6.890890306574738
 30
0.0
 11
-2.4258741555547534
 21
10.985337253876722
 31
0.0
  0
ARC
  8
0
 62
0
 10
0.0
 20
0.0
 30
0.0
 40
11.25
 50
92.54731818257183
 51
102.45268181743033
  0
LINE
  8
0
 62
0
 10
-0.4999999999999992
 20
7.0
 30
0.0
 11
-0.4999999999999988
 21
11.238883396494487
 31
0.0
  0
ARC
  8
0
 62
0
 10
7.771561172376096e-16
 20
7.0
 30
0.0
 40
0.5
 50
-180.0
 51
-0.0
  0
LINE
  8
0
 62
0
 10
0.5000000000000008
 20
7.0
 30
0.0
 11
0.5000000000000012
 21
11.238883396494519
 31
0.0
  0
ARC
  8
0
 62
0
 10
0.0
 20
0.0
 30
0.0
 40
11.25
 50
77.54731818256968
 51
87.4526818174301
  0
LINE
  8
0
 62
0
 10
1.3287704025731113
 20
6.890890306574739
 30
0.0
 11
2.4258741555547543
 21
10.985337253876725
 31
0.0
  0
ARC
  8
0
 62
0
 10
1.8117333157176452
 20
6.761480784023478
 30
0.0
 40
0.5
 50
165.0
 51
-15.000000000000018
  0
LINE
  8
0
 62
0
 10
2.2946962288621795
 20
6.632071261472218
 30
0.0
 11
3.3917999818438114
 21
10.726518208774165
 31
0.0
  0
ARC
  8
0
 62
0
 10
0.0
 20
0.0
 30
0.0
 40
11.25
 50
62.547318182568645
 51
72.45268181742803
  0
LINE
  8
0
 62
0
 10
3.0669872981077813
 20
6.31217782649107
 30
0.0
 11
5.186428996355053
 21
9.983158531535409
 31
0.0
  0
ARC
  8
0
 62
0
 10
3.500000000000001
 20
6.06217782649107
 30
0.0
 40
0.5
 50
150.0
 51
-30.000000000000004
  0
LINE
  8
0
 62
0
 10
3.93301270189222
 20
5.81217782649107
 30
0.0
 11
6.052454400139479
 21
9.483158531535388
 31
0.0
  0
ARC
  8
0
 62
0
 10
0.0
 20
0.0
 30
0.0
 40
11.25
 50
47.54731818256819
 51
57.45268181742987
  0
LINE
  8
0
 62
0
 10
4.596194077712559
 20
5.303300858899106
 30
0.0
 11
7.59353727203292
 21
8.300644053219466
 31
0.0
  0
ARC
  8
0
 62
0
 10
4.949747468305833
 20
4.949747468305832
 30
0.0
 40
0.5
 50
135.0
 51
-45.0
  0
LINE
  8
0
 62
0
 10
5.303300858899107
 20
4.596194077712558
 30
0.0
 11
8.300644053219468
 21
7.593537272032918
 31
0.0
  0
ARC
  8
0
 62
0
 10
0.0
 20
0.0
 30
0.0
 40
11.25
 50
32.5473181825701
 51
42.45268181743181
  0
LINE
  8
0
 62
0
 10
5.812177826491071
 20
3.933012701892219
 30
0.0
 11
9.483158531535388
 21
6.052454400139476
 31
0.0
  0
ARC
  8
0
 62
0
 10
6.062177826491071
 20
3.4999999999999996
 30
0.0
 40
0.5
 50
120.00000000000001
 51
-59.99999999999999
  0
LINE
  8
0
 62
0
 10
6.312177826491071
 20
3.0669872981077804
 30
0.0
 11
9.983158531535409
 21
5.18642899635505
 31
0.0
  0
ARC
  8
0
 62
0
 10
0.0
 20
0.0
 30
0.0
 40
11.25
 50
17.54731818257196
 51
27.45268181743134
  0
LINE
  8
0
 62
0
 10
6.632071261472217
 20
2.2946962288621795
 30
0.0
 11
10.726518208774163
 21
3.3917999818438114
 31
0.0
  0
ARC
  8
0
 62
0
 10
6.761480784023478
 20
1.8117333157176452
 30
0.0
 40
0.5
 50
104.99999999999994
 51
-75.00000000000006
  0
LINE
  8
0
 62
0
 10
6.890890306574738
 20
1.328770402573111
 30
0.0
 11
10.985337253876722
 21
2.4258741555547534
 31
0.0
  0
ARC
  8
0
 62
0
 10
0.0
 20
0.0
 30
0.0
 40
11.25
 50
2.547318182569324
 51
12.45268181743034
  0
CIRCLE
  8
0
 62
0
 10
0.0
 20
0.0
 30
0.0
 40
0.95
  0
ENDBLK
  0
ENDSEC
  0
SECTION
  2
ENTITIES
  0
INSERT
  2
CUT001
  8
0
 62
0
 10
0.0
 20
0.0
 30
0.0
  0
ENDSEC
  0
EOF
