G04 #@! TF.GenerationSoftware,KiCad,Pcbnew,5.1.6*
G04 #@! TF.CreationDate,2020-07-31T21:35:34+02:00*
G04 #@! TF.ProjectId,motor-encoder-disk,6d6f746f-722d-4656-9e63-6f6465722d64,1*
G04 #@! TF.SameCoordinates,Original*
G04 #@! TF.FileFunction,Profile,NP*
%FSLAX46Y46*%
G04 Gerber Fmt 4.6, Leading zero omitted, Abs format (unit mm)*
G04 Created by KiCad (PCBNEW 5.1.6) date 2020-07-31 21:35:34*
%MOMM*%
%LPD*%
G01*
G04 APERTURE LIST*
G04 #@! TA.AperFunction,Profile*
%ADD10C,0.200000*%
G04 #@! TD*
G04 APERTURE END LIST*
D10*
X150305317Y-85519712D02*
X153326106Y-82498923D01*
X148699077Y-84592348D02*
G75*
G02*
X146960411Y-84126474I-869333J232937D01*
G01*
X140487987Y-86792504D02*
X137467198Y-83771715D01*
X149804763Y-80465874D02*
X148699077Y-84592348D01*
X146983048Y-91064773D02*
G75*
G03*
X146983048Y-91064773I-950000J0D01*
G01*
X149804763Y-80465875D02*
G75*
G02*
X153326106Y-82498923I-3771715J-10598898D01*
G01*
X145105685Y-84126474D02*
G75*
G02*
X143367019Y-84592348I-869333J-232937D01*
G01*
X138739990Y-82498923D02*
X141760779Y-85519712D01*
X146960411Y-84126474D02*
X148066096Y-80000000D01*
X140487987Y-95337042D02*
G75*
G02*
X141760779Y-96609834I636396J-636396D01*
G01*
X137467198Y-98357831D02*
X140487987Y-95337042D01*
X138739989Y-82498922D02*
G75*
G02*
X142261333Y-80465874I7293059J-8565851D01*
G01*
X139094749Y-90137410D02*
X134968275Y-89031725D01*
X135434150Y-87293058D02*
G75*
G02*
X137467198Y-83771715I10598898J-3771715D01*
G01*
X134968276Y-93097822D02*
G75*
G02*
X134968275Y-89031725I11064772J2033049D01*
G01*
X143367019Y-84592348D02*
X142261333Y-80465874D01*
X139560623Y-88398744D02*
G75*
G02*
X139094749Y-90137410I-232937J-869333D01*
G01*
X156631947Y-94836488D02*
X152505473Y-93730802D01*
X156631946Y-94836488D02*
G75*
G02*
X154598898Y-98357831I-10598898J3771715D01*
G01*
X151578109Y-95337042D02*
X154598898Y-98357831D01*
X150305317Y-96609834D02*
G75*
G02*
X151578109Y-95337042I636396J636396D01*
G01*
X153326106Y-99630623D02*
X150305317Y-96609834D01*
X153326107Y-99630624D02*
G75*
G02*
X149804763Y-101663672I-7293059J8565851D01*
G01*
X143367019Y-97537198D02*
G75*
G02*
X145105685Y-98003072I869333J-232937D01*
G01*
X142261333Y-101663672D02*
X143367019Y-97537198D01*
X142261333Y-101663671D02*
G75*
G02*
X138739990Y-99630623I3771715J10598898D01*
G01*
X141760779Y-96609834D02*
X138739990Y-99630623D01*
X139094749Y-91992136D02*
G75*
G02*
X139560623Y-93730802I232937J-869333D01*
G01*
X134968275Y-93097821D02*
X139094749Y-91992136D01*
X141760779Y-85519712D02*
G75*
G02*
X140487987Y-86792504I-636396J-636396D01*
G01*
X135434149Y-87293058D02*
X139560623Y-88398744D01*
X151578109Y-86792504D02*
G75*
G02*
X150305317Y-85519712I-636396J636396D01*
G01*
X154598898Y-83771715D02*
X151578109Y-86792504D01*
X154598899Y-83771714D02*
G75*
G02*
X156631947Y-87293058I-8565851J-7293059D01*
G01*
X152505473Y-88398744D02*
X156631947Y-87293058D01*
X152971347Y-90137410D02*
G75*
G02*
X152505473Y-88398744I-232937J869333D01*
G01*
X157097821Y-89031725D02*
X152971347Y-90137410D01*
X157097820Y-89031724D02*
G75*
G02*
X157097821Y-93097821I-11064772J-2033049D01*
G01*
X152971347Y-91992136D02*
X157097821Y-93097821D01*
X152505473Y-93730802D02*
G75*
G02*
X152971347Y-91992136I232937J869333D01*
G01*
X137467197Y-98357832D02*
G75*
G02*
X135434149Y-94836488I8565851J7293059D01*
G01*
X139560623Y-93730802D02*
X135434149Y-94836488D01*
X148699077Y-97537198D02*
X149804763Y-101663672D01*
X146960411Y-98003072D02*
G75*
G02*
X148699077Y-97537198I869333J232937D01*
G01*
X148066096Y-102129546D02*
X146960411Y-98003072D01*
X148066097Y-102129545D02*
G75*
G02*
X144000000Y-102129546I-2033049J11064772D01*
G01*
X145105685Y-98003072D02*
X144000000Y-102129546D01*
X143999999Y-80000001D02*
G75*
G02*
X148066096Y-80000000I2033049J-11064772D01*
G01*
X144000000Y-80000000D02*
X145105685Y-84126474D01*
M02*
