  0
SECTION
  2
HEADER
  9
$ACADVER
  1
AC1009
  9
$INSBASE
 10
0.0
 20
0.0
 30
0.0
  9
$EXTMIN
 10
0.0
 20
0.0
 30
0.0
  9
$EXTMAX
 10
0.0
 20
0.0
 30
0.0
  0
ENDSEC
  0
SECTION
  2
TABLES
  0
TABLE
  2
VPORT
 70
0
  0
ENDTAB
  0
TABLE
  2
LTYPE
 70
1
  0
LTYPE
  2
CONTINUOUS
 70
0
  3
Solid line
 72
65
 73
0
 40
0.0
  0
ENDTAB
  0
TABLE
  2
LAYER
 70
1
  0
LAYER
  2
0
 70
64
 62
7
  6
continuous
  0
ENDTAB
  0
TABLE
  2
STYLE
 70
1
  0
STYLE
  2
STANDARD
 70
0
 40
0
 41
1.0
 50
0.0
 71
0
 42
1
 3
ARIAL.TTF
 4

  0
ENDTAB
  0
TABLE
  2
VIEW
 70
0
  0
ENDTAB
  0
ENDSEC
  0
SECTION
  2
BLOCKS
  0
BLOCK
  8
0
  2
SKETCH
 70
0
 10
0.0
 20
0.0
 30
0.0
  3
SKETCH
  0
CIRCLE
  8
0
 62
7
 10
0.0
 20
0.0
 30
0.0
 40
0.95
  0
POLYLINE
  8
0
 62
7
 70
1
 66
1
 10
0.0
 20
0.0
 30
0.0
  0
VERTEX
  8
0
 10
4.272269703442059
 20
5.545061909577845
 30
0.0
  0
VERTEX
  8
0
 10
7.29305848094985
 20
8.565850687085636
 30
0.0
 42
0.09110773938861748
  0
VERTEX
  8
0
 10
3.771715059565624
 20
10.598899259330937
 30
0.0
  0
VERTEX
  8
0
 10
2.666029627530834
 20
6.472425049788356
 30
0.0
 42
-1.0000000000000002
  0
VERTEX
  8
0
 10
0.927363140210511
 20
6.938299330972893
 30
0.0
  0
VERTEX
  8
0
 10
2.0330485722453027
 20
11.064773540515475
 30
0.0
 42
0.09110773938861753
  0
VERTEX
  8
0
 10
-2.0330485722453013
 20
11.064773540515477
 30
0.0
  0
VERTEX
  8
0
 10
-0.9273631402105122
 20
6.938299330972893
 30
0.0
 42
-0.9999999999999994
  0
VERTEX
  8
0
 10
-2.6660296275308344
 20
6.472425049788354
 30
0.0
  0
VERTEX
  8
0
 10
-3.7717150595656252
 20
10.598899259330937
 30
0.0
 42
0.09110773938861742
  0
VERTEX
  8
0
 10
-7.293058480949849
 20
8.565850687085637
 30
0.0
  0
VERTEX
  8
0
 10
-4.27226970344206
 20
5.545061909577844
 30
0.0
 42
-0.9999999999999999
  0
VERTEX
  8
0
 10
-5.545061909577846
 20
4.272269703442059
 30
0.0
  0
VERTEX
  8
0
 10
-8.565850687085636
 20
7.293058480949853
 30
0.0
 42
0.09110773938861753
  0
VERTEX
  8
0
 10
-10.598899259330938
 20
3.771715059565625
 30
0.0
  0
VERTEX
  8
0
 10
-6.472425049788357
 20
2.6660296275308335
 30
0.0
 42
-0.9999999999999999
  0
VERTEX
  8
0
 10
-6.938299330972893
 20
0.9273631402105105
 30
0.0
  0
VERTEX
  8
0
 10
-11.064773540515475
 20
2.033048572245298
 30
0.0
 42
0.09110773938861742
  0
VERTEX
  8
0
 10
-11.064773540515475
 20
-2.0330485722453013
 30
0.0
  0
VERTEX
  8
0
 10
-6.938299330972894
 20
-0.9273631402105125
 30
0.0
 42
-1.0000000000000004
  0
VERTEX
  8
0
 10
-6.472425049788355
 20
-2.666029627530835
 30
0.0
  0
VERTEX
  8
0
 10
-10.59889925933094
 20
-3.7717150595656244
 30
0.0
 42
0.09110773938861742
  0
VERTEX
  8
0
 10
-8.56585068708564
 20
-7.293058480949847
 30
0.0
  0
VERTEX
  8
0
 10
-5.545061909577845
 20
-4.272269703442059
 30
0.0
 42
-0.9999999999999994
  0
VERTEX
  8
0
 10
-4.27226970344206
 20
-5.5450619095778455
 30
0.0
  0
VERTEX
  8
0
 10
-7.293058480949854
 20
-8.565850687085634
 30
0.0
 42
0.09110773938861765
  0
VERTEX
  8
0
 10
-3.7717150595656226
 20
-10.598899259330938
 30
0.0
  0
VERTEX
  8
0
 10
-2.6660296275308344
 20
-6.472425049788357
 30
0.0
 42
-1.0000000000000004
  0
VERTEX
  8
0
 10
-0.9273631402105114
 20
-6.938299330972894
 30
0.0
  0
VERTEX
  8
0
 10
-2.033048572245308
 20
-11.064773540515475
 30
0.0
 42
0.09110773938861765
  0
VERTEX
  8
0
 10
2.0330485722453027
 20
-11.064773540515477
 30
0.0
  0
VERTEX
  8
0
 10
0.9273631402105126
 20
-6.938299330972894
 30
0.0
 42
-1.0000000000000002
  0
VERTEX
  8
0
 10
2.6660296275308353
 20
-6.472425049788355
 30
0.0
  0
VERTEX
  8
0
 10
3.771715059565625
 20
-10.598899259330938
 30
0.0
 42
0.09110773938861765
  0
VERTEX
  8
0
 10
7.293058480949854
 20
-8.565850687085632
 30
0.0
  0
VERTEX
  8
0
 10
4.27226970344206
 20
-5.545061909577845
 30
0.0
 42
-0.9999999999999999
  0
VERTEX
  8
0
 10
5.545061909577845
 20
-4.272269703442058
 30
0.0
  0
VERTEX
  8
0
 10
8.565850687085636
 20
-7.2930584809498535
 30
0.0
 42
0.09110773938861765
  0
VERTEX
  8
0
 10
10.59889925933094
 20
-3.7717150595656213
 30
0.0
  0
VERTEX
  8
0
 10
6.472425049788357
 20
-2.6660296275308335
 30
0.0
 42
-1.0000000000000004
  0
VERTEX
  8
0
 10
6.938299330972894
 20
-0.9273631402105106
 30
0.0
  0
VERTEX
  8
0
 10
11.064773540515475
 20
-2.0330485722453027
 30
0.0
 42
0.09110773938861742
  0
VERTEX
  8
0
 10
11.064773540515477
 20
2.0330485722452964
 30
0.0
  0
VERTEX
  8
0
 10
6.938299330972893
 20
0.9273631402105118
 30
0.0
 42
-1.0000000000000004
  0
VERTEX
  8
0
 10
6.472425049788355
 20
2.6660296275308344
 30
0.0
  0
VERTEX
  8
0
 10
10.598899259330935
 20
3.771715059565624
 30
0.0
 42
0.09110773938861753
  0
VERTEX
  8
0
 10
8.565850687085636
 20
7.293058480949853
 30
0.0
  0
VERTEX
  8
0
 10
5.545061909577845
 20
4.27226970344206
 30
0.0
 42
-0.9999999999999997
  0
SEQEND
  8
0
  0
ENDBLK
  0
ENDSEC
  0
SECTION
  2
ENTITIES
  0
INSERT
  2
SKETCH
  8
0
 62
7
 10
0.0
 20
0.0
 30
0.0
  0
ENDSEC
  0
EOF
