<?xml version="1.0" encoding="UTF-8" standalone="no"?>
<!-- Created with Inkscape (http://www.inkscape.org/) -->

<svg
   xmlns:dc="http://purl.org/dc/elements/1.1/"
   xmlns:cc="http://creativecommons.org/ns#"
   xmlns:rdf="http://www.w3.org/1999/02/22-rdf-syntax-ns#"
   xmlns:svg="http://www.w3.org/2000/svg"
   xmlns="http://www.w3.org/2000/svg"
   xmlns:sodipodi="http://sodipodi.sourceforge.net/DTD/sodipodi-0.dtd"
   xmlns:inkscape="http://www.inkscape.org/namespaces/inkscape"
   width="210mm"
   height="297mm"
   viewBox="0 0 210 297"
   version="1.1"
   id="svg8"
   inkscape:version="0.92.5 (2060ec1f9f, 2020-04-08)"
   sodipodi:docname="spinner.svg">
  <defs
     id="defs2" />
  <sodipodi:namedview
     id="base"
     pagecolor="#ffffff"
     bordercolor="#666666"
     borderopacity="1.0"
     inkscape:pageopacity="0.0"
     inkscape:pageshadow="2"
     inkscape:zoom="25.029405"
     inkscape:cx="354.07305"
     inkscape:cy="619.90655"
     inkscape:document-units="px"
     inkscape:current-layer="layer1"
     showgrid="false"
     inkscape:window-width="1914"
     inkscape:window-height="1050"
     inkscape:window-x="0"
     inkscape:window-y="24"
     inkscape:window-maximized="0" />
  <metadata
     id="metadata5">
    <rdf:RDF>
      <cc:Work
         rdf:about="">
        <dc:format>image/svg+xml</dc:format>
        <dc:type
           rdf:resource="http://purl.org/dc/dcmitype/StillImage" />
        <dc:title></dc:title>
      </cc:Work>
    </rdf:RDF>
  </metadata>
  <g
     inkscape:label="Layer 1"
     inkscape:groupmode="layer"
     id="layer1">
    <path
       style="opacity:1;fill:#000000;fill-opacity:1;stroke:#000000;stroke-width:0.02645834;stroke-linecap:butt;stroke-linejoin:round;stroke-miterlimit:4;stroke-dasharray:none;stroke-dashoffset:0;stroke-opacity:1"
       d="M 93.600939,134.26208 A 1.2367709,1.2367709 0 0 1 93.238684,135.13645 1.2367709,1.2367709 0 0 1 93.238684,135.13696 L 94.299603,136.19736 A 2.7367709,2.7367709 0 0 0 95.101105,134.26208 Z"
       id="path836"
       inkscape:connector-curvature="0" />
    <path
       inkscape:connector-curvature="0"
       style="opacity:1;fill:#000000;fill-opacity:1;stroke:#000000;stroke-width:0.02645834;stroke-linecap:butt;stroke-linejoin:round;stroke-miterlimit:4;stroke-dasharray:none;stroke-dashoffset:0;stroke-opacity:1"
       d="M 92.364334,135.49869 A 1.2367709,1.2367709 0 0 1 91.489964,135.13643 1.2367709,1.2367709 0 0 1 91.489444,135.13643 L 90.429044,136.19735 A 2.7367709,2.7367709 0 0 0 92.364334,136.99886 Z"
       id="path836-3" />
    <path
       style="opacity:1;fill:#000000;fill-opacity:1;stroke:#000000;stroke-width:0.02645834;stroke-linecap:butt;stroke-linejoin:round;stroke-miterlimit:4;stroke-dasharray:none;stroke-dashoffset:0;stroke-opacity:1"
       d="M 92.364334,133.02548 A 1.2367709,1.2367709 0 0 1 93.238704,133.38773 1.2367709,1.2367709 0 0 1 93.239214,133.38773 L 94.299614,132.32681 A 2.7367709,2.7367709 0 0 0 92.364334,131.52531 Z"
       id="path836-9"
       inkscape:connector-curvature="0" />
    <path
       style="opacity:1;fill:#000000;fill-opacity:1;stroke:#000000;stroke-width:0.02645834;stroke-linecap:butt;stroke-linejoin:round;stroke-miterlimit:4;stroke-dasharray:none;stroke-dashoffset:0;stroke-opacity:1"
       d="M 91.127733,134.26208 A 1.2367709,1.2367709 0 0 1 91.489983,133.38771 1.2367709,1.2367709 0 0 1 91.489983,133.3872 L 90.429063,132.3268 A 2.7367709,2.7367709 0 0 0 89.627563,134.26208 Z"
       id="path836-0"
       inkscape:connector-curvature="0" />
  </g>
</svg>
